<?xml version="1.0" standalone="no"?>
<!DOCTYPE svg PUBLIC "-//W3C//DTD SVG 20010904//EN"
 "http://www.w3.org/TR/2001/REC-SVG-20010904/DTD/svg10.dtd">
<svg version="1.0" xmlns="http://www.w3.org/2000/svg"
 width="2152.000000pt" height="2152.000000pt" viewBox="0 0 2152.000000 2152.000000"
 preserveAspectRatio="xMidYMid meet">
<metadata>
Created by potrace 1.11, written by Peter Selinger 2001-2013
</metadata>
<g transform="translate(0.000000,2152.000000) scale(0.100000,-0.100000)"
fill="#000000" stroke="none">
<path d="M7030 13362 c-55 -7 -160 -45 -160 -58 0 -8 7 -14 15 -14 9 0 20 -10
24 -22 13 -34 -35 -96 -129 -167 -19 -14 -37 -29 -40 -32 -3 -3 -95 -66 -205
-140 -110 -74 -204 -137 -210 -142 -40 -30 -118 -78 -121 -74 -4 4 118 276
252 563 14 30 24 58 20 61 -23 24 -370 22 -531 -2 -16 -3 -46 -7 -65 -10 -19
-3 -48 -8 -63 -10 -51 -8 -201 -47 -277 -72 -340 -114 -648 -305 -817 -508
-72 -87 -98 -177 -63 -220 38 -46 198 -15 272 53 37 34 27 43 -30 28 -77 -21
-108 2 -96 69 29 160 342 397 687 519 53 19 97 33 97 30 0 -3 8 0 18 5 11 6
30 12 43 15 13 2 44 9 69 14 25 6 64 13 86 17 23 3 59 8 80 11 53 9 372 10
380 2 8 -9 -43 -141 -136 -353 -70 -158 -110 -255 -110 -264 0 -6 -4 -11 -10
-11 -5 0 -10 -6 -10 -14 0 -28 -196 -440 -292 -614 -16 -30 -31 -62 -33 -72
-9 -49 130 -14 182 46 35 40 77 114 65 114 -4 0 -2 4 3 8 10 7 46 77 51 97 1
6 22 53 47 105 64 135 110 237 133 292 10 27 22 48 25 48 12 0 58 -110 94
-225 20 -66 44 -142 54 -170 70 -194 95 -255 118 -288 72 -103 169 -85 345 63
18 14 25 40 11 40 -4 0 -26 -9 -50 -21 -56 -27 -91 -31 -128 -13 -31 15 -85
82 -85 106 0 8 -4 18 -10 24 -5 5 -43 113 -84 239 -42 127 -84 248 -95 270
l-18 38 26 22 c14 12 87 59 161 105 510 316 685 464 601 510 -18 9 -32 10 -91
2z"/>
<path d="M730 13314 c-5 -16 -16 -40 -24 -54 -8 -14 -25 -46 -39 -73 -14 -26
-39 -64 -55 -85 -45 -57 -45 -59 -17 -114 61 -119 77 -222 28 -169 -22 24 -40
76 -49 144 -7 51 -34 87 -65 87 -53 0 -111 25 -165 71 -99 84 -98 72 10 -144
74 -146 108 -231 122 -301 2 -10 5 -21 8 -23 2 -2 122 -4 267 -4 l264 -1 35
104 c32 92 148 338 171 363 11 11 12 55 1 55 -5 0 -28 -18 -53 -40 -50 -46
-80 -61 -160 -79 -64 -13 -70 -22 -88 -117 -12 -66 -37 -124 -52 -124 -5 0
-12 0 -16 0 -20 0 7 93 52 177 l27 53 -33 42 c-19 24 -36 45 -39 48 -9 9 -40
64 -75 134 -19 38 -37 71 -40 74 -2 3 -9 -8 -15 -24z m54 -246 c18 -31 22 -46
14 -55 -6 -7 -8 -13 -4 -13 4 0 -38 -85 -50 -99 -1 -1 -17 25 -34 60 -34 66
-33 82 7 128 25 30 39 26 67 -21z m-311 -89 l38 -10 -2 -70 c-1 -38 -4 -69 -5
-69 -2 0 -22 36 -44 80 -22 44 -37 80 -33 80 5 0 25 -5 46 -11z m588 -6 c-49
-110 -65 -143 -70 -143 -8 0 -11 140 -3 141 24 2 57 10 61 14 11 12 20 3 12
-12z"/>
<path d="M3528 13335 c-2 -1 -39 -5 -83 -8 -44 -4 -93 -9 -110 -12 -16 -3 -46
-8 -65 -11 -19 -3 -46 -8 -60 -10 -184 -32 -433 -114 -600 -199 -179 -90 -340
-201 -455 -315 -105 -103 -148 -187 -131 -254 18 -72 190 -63 279 14 31 27 37
56 10 45 -10 -4 -39 -9 -65 -11 -40 -3 -49 -1 -58 17 -33 61 58 201 210 320
206 161 534 301 784 334 27 3 54 9 60 12 13 8 397 13 449 6 39 -5 45 -13 25
-35 -7 -7 -35 -42 -63 -78 -27 -36 -59 -76 -71 -90 -66 -77 -170 -197 -183
-213 -103 -121 -233 -259 -436 -463 -237 -239 -315 -310 -379 -348 -90 -53
-157 -37 -159 37 -1 20 -6 37 -12 37 -20 0 -95 -71 -120 -114 -39 -67 -38
-138 3 -155 61 -24 160 16 307 126 116 87 425 395 670 668 93 103 172 193 290
330 77 88 141 162 144 165 3 3 28 31 55 63 26 32 50 56 53 54 2 -3 -25 -65
-61 -138 -35 -74 -115 -251 -176 -394 -61 -143 -118 -273 -126 -289 -8 -16
-14 -33 -14 -37 0 -5 -11 -32 -24 -61 -13 -29 -39 -93 -56 -143 -17 -49 -36
-101 -41 -115 -5 -14 -12 -43 -15 -65 -3 -22 -6 -42 -7 -45 0 -3 2 -15 7 -27
11 -33 51 -39 110 -18 89 31 167 99 496 430 268 270 262 264 395 411 118 130
115 127 121 122 2 -3 -41 -113 -97 -244 -120 -285 -155 -373 -204 -518 -55
-165 -50 -198 30 -191 66 5 183 68 265 143 14 12 28 22 32 22 11 0 10 38 0 44
-5 3 -30 -6 -57 -19 -58 -30 -81 -31 -94 -7 -12 22 7 112 45 217 14 39 30 86
36 105 6 19 19 55 30 80 26 61 32 76 58 140 12 30 65 143 117 250 105 218 95
198 151 302 23 42 42 79 42 82 0 4 -15 4 -32 2 -122 -15 -149 -35 -249 -184
-61 -91 -129 -183 -149 -202 -3 -3 -39 -43 -80 -90 -41 -47 -102 -114 -137
-150 -34 -36 -78 -83 -98 -105 -265 -287 -521 -512 -526 -462 -5 40 8 118 21
131 6 6 10 16 10 24 0 16 109 288 190 477 70 162 73 169 75 175 2 11 61 132
126 264 38 76 69 141 69 145 0 4 -6 8 -12 8 -7 1 -40 4 -73 8 -59 6 -381 15
-387 10z"/>
<path d="M473 12375 c0 -112 3 -139 18 -164 21 -34 58 -56 109 -65 19 -3 46
-8 60 -10 14 -3 43 -7 65 -10 64 -9 98 -16 135 -28 l35 -12 -40 -7 c-22 -4
-62 -10 -90 -13 -69 -9 -73 -10 -137 -29 -65 -20 -97 -45 -129 -102 -20 -36
-23 -58 -27 -201 -5 -180 3 -222 46 -253 29 -20 83 -37 147 -45 91 -12 191
-33 210 -44 20 -11 20 -11 0 -12 -11 -1 -29 -3 -40 -5 -41 -7 -101 -17 -134
-21 -55 -7 -125 -33 -153 -57 -15 -12 -38 -44 -51 -71 -23 -44 -25 -61 -26
-212 -2 -132 1 -169 14 -194 18 -34 69 -70 101 -70 11 0 24 -3 27 -6 4 -4 25
-8 49 -11 23 -2 53 -6 67 -8 14 -3 42 -8 61 -11 19 -3 51 -10 70 -16 l35 -11
-27 -8 c-15 -4 -51 -10 -80 -13 -29 -4 -60 -8 -68 -10 -152 -28 -211 -70 -239
-172 -6 -21 -11 -106 -11 -187 0 -213 15 -231 213 -261 20 -3 54 -9 75 -12
152 -23 202 -52 243 -139 l19 -40 -3 155 c-2 165 -11 200 -61 243 -22 20 -96
60 -96 53 0 -3 -15 0 -32 5 -47 14 -129 26 -186 28 -13 1 -21 5 -17 10 6 10
81 28 155 36 45 5 68 9 125 21 45 9 95 43 107 73 5 14 10 99 10 188 0 151 -1
165 -25 216 -14 31 -39 65 -58 79 -33 25 -117 50 -209 63 -25 3 -54 8 -65 10
-11 2 -28 4 -38 4 -10 1 -16 5 -13 10 6 8 86 26 161 35 140 18 202 41 229 87
15 26 18 54 18 189 0 281 -39 330 -295 367 -21 2 -46 6 -55 8 -9 2 -25 4 -34
4 -36 2 -17 18 35 30 44 10 211 38 255 43 7 1 31 17 53 37 l41 36 0 162 c0
186 -4 212 -40 270 -39 61 -97 88 -239 109 -26 3 -55 8 -63 9 -8 2 -35 6 -60
10 -52 9 -98 30 -121 56 -9 11 -19 19 -21 19 -3 0 -5 -61 -5 -135z"/>
<path d="M3810 11712 c-49 -34 -62 -38 -125 -40 -145 -5 -301 -20 -385 -37
-14 -3 -38 -7 -55 -10 -16 -3 -41 -8 -55 -10 -14 -3 -34 -7 -45 -9 -173 -34
-571 -176 -643 -229 -7 -5 -30 -19 -52 -31 -82 -44 -227 -154 -302 -230 -43
-43 -78 -82 -78 -87 0 -4 -6 -14 -13 -21 -26 -26 -44 -91 -36 -128 11 -50 39
-69 97 -65 58 5 79 9 88 18 4 4 13 7 20 7 7 0 28 10 47 23 59 38 77 86 21 57
-34 -18 -95 -16 -110 4 -16 23 -3 84 31 143 38 64 124 148 211 206 81 53 284
162 284 151 0 -3 6 -2 13 3 23 19 244 94 316 108 13 2 30 6 39 9 9 3 31 7 47
10 17 3 46 8 65 11 97 18 234 31 312 30 49 0 88 2 88 5 0 4 21 4 99 1 11 -1 9
-7 -6 -23 -33 -38 -89 -137 -158 -282 -36 -76 -65 -139 -65 -142 0 -5 -49
-111 -81 -177 -11 -22 -19 -43 -19 -47 0 -4 -18 -47 -41 -95 -22 -48 -51 -110
-63 -139 -60 -133 -104 -218 -172 -339 -78 -135 -81 -154 -24 -140 84 21 145
65 196 143 27 39 94 171 94 183 0 3 11 30 25 61 14 31 24 57 23 59 -1 1 5 16
15 32 13 24 44 92 52 115 4 11 28 68 54 129 16 36 68 158 115 271 100 238 112
265 146 334 l25 51 90 0 c120 1 240 -14 334 -41 121 -35 202 -96 205 -153 1
-37 14 -39 71 -11 79 38 106 79 85 130 -16 39 -135 86 -290 115 -88 16 -261
33 -378 36 l-72 2 25 33 c14 18 25 35 25 38 0 16 -41 2 -90 -32z"/>
<path d="M7262 11698 c-120 -20 -319 -171 -477 -363 -28 -33 -52 -62 -55 -65
-3 -3 -17 -21 -30 -40 -13 -19 -27 -37 -30 -40 -41 -36 -260 -410 -260 -445 0
-4 -7 -21 -15 -38 -76 -166 -96 -370 -41 -422 41 -39 136 -46 221 -16 30 11
55 18 55 15 0 -5 88 44 139 79 67 46 174 151 235 230 102 134 145 262 113 339
-13 31 -23 39 -66 52 -51 15 -142 13 -208 -4 -18 -5 -33 -7 -33 -5 0 2 47 35
104 73 56 38 112 77 122 85 10 9 48 40 84 69 255 207 366 392 285 473 -13 14
-30 25 -37 26 -7 0 -24 1 -38 3 -14 1 -45 -2 -68 -6z m-28 -134 c23 -22 20
-81 -7 -137 -42 -92 -189 -236 -364 -357 -40 -28 -76 -50 -82 -50 -5 0 -11 -3
-13 -8 -1 -4 -18 -17 -37 -29 -23 -14 -35 -29 -35 -46 -1 -13 3 -24 9 -22 5 1
30 7 54 14 54 15 139 12 168 -6 26 -17 33 -34 40 -94 24 -216 -259 -535 -417
-469 -67 28 -64 170 10 377 11 32 22 63 24 68 8 27 24 60 83 180 68 138 80
160 152 269 84 125 90 133 174 217 93 92 201 134 241 93z"/>
<path d="M9056 11694 c-107 -28 -216 -103 -361 -250 -101 -102 -95 -95 -206
-241 -253 -335 -412 -744 -344 -887 25 -53 65 -70 149 -63 87 8 152 30 240 81
167 99 359 331 397 480 18 73 5 126 -37 155 -31 21 -47 24 -117 24 -45 0 -99
-5 -119 -11 -51 -14 -48 -3 10 31 65 38 86 51 92 57 3 3 32 25 65 49 33 25 62
47 65 50 3 3 28 24 55 46 80 63 175 156 208 205 17 25 33 47 36 50 16 14 44
90 48 128 8 72 -13 91 -117 107 -8 1 -37 -4 -64 -11z m-16 -134 c16 -16 19
-29 15 -62 -9 -67 -45 -126 -135 -219 -95 -98 -168 -155 -317 -253 -73 -47
-102 -72 -100 -84 3 -23 15 -25 64 -11 24 6 68 9 98 7 77 -6 105 -35 109 -109
8 -145 -80 -308 -224 -419 -94 -71 -194 -79 -226 -17 -51 98 42 416 205 702
18 33 39 69 45 80 76 136 229 316 312 368 67 42 123 48 154 17z"/>
<path d="M13197 11612 c-19 -27 -79 -75 -126 -100 -30 -15 -137 -52 -171 -58
-14 -2 -36 -7 -50 -9 -42 -8 -129 -14 -271 -20 -222 -7 -286 -17 -439 -67 -98
-32 -224 -116 -214 -143 4 -10 16 -7 51 15 97 62 184 77 463 79 370 4 473 21
615 104 81 48 207 190 190 216 -11 19 -29 12 -48 -17z"/>
<path d="M4140 11394 c-66 -28 -104 -77 -193 -244 -101 -191 -318 -716 -334
-810 -14 -80 0 -100 61 -94 41 4 170 66 207 99 8 8 18 15 22 15 3 0 17 10 31
23 18 17 23 30 19 45 l-5 22 -35 -21 c-19 -12 -50 -23 -69 -26 -52 -7 -58 22
-24 111 45 116 140 359 149 381 5 11 20 47 33 80 12 33 61 137 108 230 47 94
88 177 91 185 9 21 -16 22 -61 4z"/>
<path d="M5078 11145 c-2 -2 -15 -5 -28 -7 -33 -5 -110 -40 -110 -50 0 -4 -5
-8 -11 -8 -20 0 -132 -96 -207 -176 -40 -42 -75 -75 -78 -72 -3 3 11 37 30 74
52 101 77 163 79 193 2 23 -2 26 -30 27 -49 2 -293 -100 -355 -148 -24 -18 -8
-44 18 -30 60 33 106 51 131 54 26 3 28 1 26 -31 -1 -19 -6 -44 -11 -55 -47
-104 -92 -213 -92 -223 0 -7 -4 -13 -10 -13 -5 0 -10 -6 -10 -14 0 -13 -63
-159 -94 -216 -7 -14 -19 -23 -27 -21 -48 12 -58 -17 -33 -91 11 -31 10 -42
-1 -65 -8 -15 -59 -134 -115 -263 -56 -129 -112 -258 -125 -285 -58 -128 -78
-221 -50 -231 39 -15 164 49 191 97 7 13 13 34 14 46 0 25 46 171 80 253 12
30 28 71 35 90 104 280 98 269 143 261 108 -18 239 11 344 76 21 13 40 23 43
23 9 0 57 43 125 110 177 175 263 349 263 530 0 80 -18 131 -51 149 -18 10
-79 21 -84 16z m-62 -160 c6 -8 12 -46 12 -83 1 -216 -143 -473 -316 -561 -36
-18 -126 -33 -137 -23 -3 3 -18 6 -34 7 -15 1 -43 7 -60 15 -39 16 -37 29 15
135 51 103 54 108 124 207 173 247 343 376 396 303z"/>
<path d="M14872 11127 c-25 -10 -43 -31 -82 -96 -75 -125 -269 -348 -271 -311
0 17 -5 52 -13 106 -4 22 -8 53 -11 69 -3 17 -7 48 -10 70 -8 64 -15 98 -27
128 -10 26 -14 27 -57 23 -52 -4 -161 -46 -280 -106 -62 -31 -79 -44 -78 -60
1 -11 2 -20 2 -20 1 0 29 11 64 25 34 14 88 28 120 32 54 5 61 3 84 -19 17
-17 28 -44 36 -89 6 -35 13 -74 15 -85 5 -22 10 -57 21 -135 7 -45 6 -46 -42
-86 -105 -87 -271 -178 -349 -190 -19 -3 -39 -13 -43 -22 -15 -28 -4 -94 19
-113 19 -15 25 -15 60 -3 66 23 167 104 317 253 29 28 55 52 57 52 2 0 9 -28
16 -62 20 -101 41 -171 61 -204 18 -30 62 -58 73 -47 3 4 18 8 33 9 40 4 142
58 192 101 101 88 117 107 111 132 -5 21 -7 22 -20 10 -24 -23 -103 -83 -133
-102 -25 -16 -64 -23 -108 -19 -28 3 -77 153 -82 249 -2 39 2 44 178 224 186
190 245 270 215 289 -19 12 -27 12 -68 -3z"/>
<path d="M6088 11125 c-2 -2 -29 -6 -61 -9 -33 -4 -71 -12 -85 -17 -15 -6 -28
-10 -29 -10 -18 3 -186 -71 -243 -107 -292 -184 -468 -453 -427 -653 10 -50
43 -77 98 -82 101 -9 217 60 388 230 57 57 107 103 112 103 4 0 -4 -26 -18
-57 -13 -32 -31 -71 -38 -88 -39 -89 -49 -170 -23 -186 22 -14 94 3 168 39 41
19 77 38 80 42 3 3 34 26 70 51 92 63 98 69 93 90 -3 11 -7 19 -10 19 -2 0
-35 -18 -71 -39 -118 -70 -166 -59 -138 29 8 27 63 164 76 189 4 9 13 27 18
41 52 120 111 235 148 288 52 75 51 97 -5 112 -41 11 -98 19 -103 15z m-7 -91
c6 -3 0 -14 -13 -25 -53 -45 -66 -61 -117 -160 -29 -57 -67 -124 -84 -149 -38
-54 -233 -256 -256 -264 -9 -3 -28 -15 -42 -26 -36 -30 -104 -38 -128 -16 -47
43 10 218 121 368 103 139 263 260 373 281 28 5 134 -1 146 -9z"/>
<path d="M7722 11100 c-42 -14 -93 -35 -112 -45 -96 -54 -204 -148 -267 -232
-15 -21 -31 -40 -34 -43 -12 -10 -68 -116 -89 -168 -61 -159 -38 -299 58 -347
54 -27 167 -27 257 1 242 74 514 415 529 663 5 74 -32 149 -87 178 -51 27
-163 24 -255 -7z m116 -86 c30 -20 43 -57 43 -124 0 -69 -5 -104 -25 -166 -21
-62 -97 -214 -108 -214 -4 0 -8 -6 -8 -13 0 -23 -116 -126 -164 -148 -57 -25
-127 -27 -161 -5 -27 18 -59 72 -50 86 3 5 2 11 -3 13 -16 11 1 146 28 226 37
108 112 224 187 289 79 70 200 96 261 56z"/>
<path d="M9425 11123 c-81 -18 -345 -134 -345 -151 0 -4 4 -13 9 -21 8 -12 13
-12 35 3 14 9 26 13 26 9 0 -5 4 -3 8 3 9 15 101 46 113 38 17 -10 1 -57 -116
-333 -127 -301 -135 -324 -124 -366 12 -45 43 -59 128 -57 127 3 225 37 356
125 68 45 164 136 165 155 0 6 4 12 9 12 4 0 21 28 37 63 36 80 42 168 13 208
-48 68 -183 62 -372 -16 -14 -6 -16 -4 -10 11 3 11 12 28 18 39 28 47 107 256
101 270 -5 15 -14 16 -51 8z m144 -375 c22 -19 23 -27 18 -93 -7 -90 -40 -160
-107 -225 -64 -62 -140 -100 -201 -100 -61 0 -74 15 -66 80 7 61 103 290 130
310 65 49 188 65 226 28z"/>
<path d="M10175 11120 c-48 -10 -92 -37 -119 -73 -23 -30 -107 -199 -105 -212
0 -3 -9 -22 -20 -43 -10 -20 -36 -77 -57 -127 -20 -49 -39 -94 -43 -100 -3 -5
-6 -14 -7 -20 -1 -5 -18 -47 -38 -92 -19 -46 -33 -83 -29 -83 3 0 1 -6 -4 -12
-6 -7 -13 -29 -17 -50 -19 -108 119 -75 326 77 70 52 85 68 81 84 -3 12 -7 21
-10 21 -2 0 -24 -14 -49 -31 -25 -17 -66 -40 -91 -51 -43 -19 -47 -19 -59 -4
-15 21 -9 42 36 146 18 41 47 111 65 155 18 44 46 109 62 145 17 36 31 68 32
72 1 4 20 44 42 89 47 94 48 118 4 109z"/>
<path d="M10834 11109 c-99 -34 -119 -42 -135 -55 -8 -8 -19 -14 -23 -14 -12
0 -103 -64 -162 -115 -168 -145 -244 -282 -250 -451 -5 -122 48 -199 154 -222
39 -9 140 -8 187 2 50 11 196 78 223 103 6 6 21 15 32 18 11 3 20 11 20 16 0
5 5 9 11 9 19 0 38 26 29 40 -6 10 -26 4 -87 -27 -124 -65 -188 -78 -285 -59
-36 7 -98 62 -98 89 -1 7 -3 29 -6 51 -3 21 -3 58 1 81 l6 44 67 21 c250 78
556 318 537 419 -2 9 -4 22 -4 28 -3 39 -130 52 -217 22z m31 -103 c25 -33 0
-85 -76 -158 -39 -38 -75 -68 -81 -68 -6 0 -19 -6 -27 -14 -23 -19 -155 -69
-174 -65 -15 4 -14 9 6 49 12 25 25 47 30 48 4 2 7 8 7 14 0 12 64 92 109 135
73 69 177 99 206 59z"/>
<path d="M12128 11125 c-2 -2 -15 -6 -28 -8 -48 -9 -129 -44 -277 -120 -37
-19 -51 -31 -47 -42 6 -16 40 -21 46 -7 6 15 125 60 138 52 31 -19 -27 -188
-174 -501 -53 -113 -96 -217 -96 -231 0 -23 3 -26 26 -22 15 3 38 11 53 19 27
15 120 105 108 105 -13 0 65 142 115 208 53 70 55 73 134 162 125 140 260 235
308 217 12 -5 11 -20 -11 -89 -24 -79 -33 -101 -89 -226 -13 -29 -24 -55 -24
-57 0 -2 -24 -53 -53 -112 -95 -193 -101 -223 -48 -223 16 0 46 17 82 48 45
37 66 66 102 138 102 204 326 451 452 500 41 15 48 15 61 2 13 -13 11 -25 -17
-104 -17 -49 -39 -107 -49 -129 -10 -22 -34 -80 -54 -130 -21 -49 -41 -99 -47
-110 -22 -47 -55 -171 -51 -192 12 -64 154 -16 317 106 87 66 96 76 89 94 -8
22 -16 21 -49 -5 -41 -32 -137 -77 -152 -71 -29 11 -9 74 100 319 131 296 153
378 108 400 -46 23 -140 -17 -261 -111 -66 -50 -96 -77 -224 -197 -39 -36 -72
-65 -73 -64 -2 2 16 47 39 102 52 126 76 203 72 238 -4 36 -6 38 -51 39 -85 2
-270 -121 -454 -303 -60 -59 -110 -105 -113 -103 -4 4 10 39 74 178 58 126 85
224 63 226 -5 0 -16 2 -25 4 -9 2 -18 1 -20 0z"/>
<path d="M13803 11114 c-147 -38 -343 -172 -453 -309 -106 -132 -151 -279
-126 -413 10 -52 67 -118 117 -133 56 -17 152 -19 218 -4 103 25 321 147 321
180 0 22 -10 19 -107 -29 -103 -52 -151 -65 -224 -59 -103 8 -153 67 -152 179
1 81 11 97 72 113 108 28 319 149 433 250 97 86 133 176 87 217 -26 24 -112
28 -186 8z m19 -107 c28 -43 -29 -134 -127 -203 -80 -57 -225 -117 -242 -100
-7 7 8 39 55 114 55 88 152 177 217 200 35 12 86 6 97 -11z"/>
<path d="M15409 11126 c-2 -3 -16 -7 -29 -9 -50 -10 -313 -128 -324 -146 -3
-4 -1 -13 3 -20 7 -10 23 -6 75 18 71 33 112 39 118 19 6 -16 -13 -79 -58
-194 l-35 -90 -49 -13 c-55 -14 -97 -61 -47 -52 28 5 67 8 67 5 0 -4 -39 -89
-110 -239 -61 -129 -64 -142 -42 -154 20 -11 78 16 138 65 36 29 51 54 104
181 34 82 65 151 69 155 3 3 47 9 96 12 92 6 141 12 185 22 46 11 70 14 70 11
0 -6 -80 -191 -90 -209 -6 -10 -10 -22 -10 -27 0 -5 -5 -22 -12 -38 -6 -15
-12 -30 -12 -33 -1 -3 -5 -10 -9 -17 -15 -24 -20 -102 -7 -118 33 -40 165 15
333 139 68 50 74 60 58 85 -7 11 -15 9 -42 -12 -79 -59 -153 -87 -163 -62 -9
25 3 61 85 252 85 201 94 219 160 358 24 50 44 94 44 99 0 15 -34 15 -77 0
-83 -29 -122 -73 -168 -189 -13 -33 -30 -71 -37 -85 -7 -14 -13 -30 -13 -36 0
-29 -18 -33 -205 -49 -38 -3 -89 -8 -112 -10 l-41 -4 27 67 c16 37 37 87 48
112 35 76 66 178 60 195 -6 14 -38 21 -48 11z"/>
<path d="M16604 11109 c-108 -27 -168 -59 -269 -139 -180 -144 -298 -351 -299
-527 0 -72 3 -86 27 -122 40 -61 75 -75 182 -74 154 0 272 59 417 207 65 66
182 222 183 245 1 3 6 15 12 26 27 49 46 126 49 200 3 70 0 84 -22 122 -14 24
-39 50 -57 59 -44 23 -141 25 -223 3z m68 -85 c10 -3 27 -19 39 -36 18 -24 21
-43 20 -96 -1 -60 -7 -117 -11 -117 -1 0 -3 -8 -5 -18 -2 -10 -7 -26 -11 -35
-4 -9 -8 -23 -10 -31 -6 -28 -86 -175 -117 -215 -89 -113 -188 -162 -288 -143
-45 8 -80 67 -81 135 -1 50 10 140 18 154 3 5 8 21 10 36 12 66 120 240 185
298 39 34 97 65 132 71 17 3 33 6 35 8 4 3 63 -4 84 -11z"/>
<path d="M17714 11110 c-70 -17 -173 -63 -254 -115 -124 -78 -339 -280 -453
-425 -32 -41 -64 -82 -71 -91 -33 -41 -84 -160 -80 -187 11 -65 65 -71 144
-15 46 33 50 41 56 112 6 76 41 155 107 243 109 145 331 348 380 348 9 0 19 5
22 10 3 6 19 10 35 10 27 0 28 -2 21 -27 -5 -16 -57 -127 -116 -247 -59 -121
-108 -224 -109 -230 -1 -6 -5 -17 -9 -24 -16 -25 -57 -156 -57 -183 0 -36 17
-47 65 -45 63 4 150 44 255 119 61 43 68 55 48 75 -9 9 -19 7 -44 -8 -17 -11
-50 -23 -73 -26 -41 -6 -41 -5 -41 26 0 17 7 44 15 60 9 17 15 31 15 32 -2 6
33 86 71 167 22 46 45 93 50 105 5 12 13 28 18 36 5 8 17 33 28 55 11 22 39
75 62 118 66 123 52 140 -85 107z"/>
<path d="M18423 11110 c-124 -35 -233 -100 -333 -200 -238 -239 -310 -559
-145 -644 32 -16 58 -20 125 -20 95 1 167 22 259 76 69 41 213 184 266 263 22
33 45 63 50 67 6 4 6 8 2 8 -5 0 0 12 11 28 40 59 63 136 68 227 5 81 3 94
-18 129 -33 58 -78 80 -159 81 -37 1 -93 -6 -126 -15z m78 -90 c38 -21 53 -59
53 -134 -2 -152 -99 -367 -213 -474 -76 -71 -183 -101 -247 -71 -49 23 -66 71
-60 164 3 44 7 93 11 108 26 125 138 304 230 367 75 52 171 69 226 40z"/>
<path d="M19205 11115 c-28 -7 -59 -16 -70 -22 -11 -6 -40 -21 -65 -33 -34
-17 -149 -96 -199 -136 -2 -2 -1 -10 3 -19 4 -13 16 -8 64 25 82 55 138 79
176 73 39 -6 47 -18 44 -68 -2 -51 -13 -76 -62 -150 -32 -49 -165 -217 -186
-235 -3 -3 -21 -25 -40 -50 -19 -25 -37 -47 -40 -50 -13 -12 -58 -88 -65 -109
-4 -12 -4 -38 -1 -57 6 -28 12 -35 44 -43 54 -14 106 -6 180 29 66 31 209 138
232 174 23 36 -6 34 -60 -3 -163 -112 -261 -69 -179 78 27 47 89 133 110 151
16 14 185 230 207 265 55 87 61 168 13 181 -40 11 -52 11 -106 -1z"/>
<path d="M19765 11095 c-88 -30 -256 -115 -263 -133 -11 -30 16 -29 83 4 72
35 100 41 110 25 10 -18 -41 -150 -168 -431 -91 -204 -115 -288 -86 -306 47
-29 85 -14 195 79 125 105 500 484 512 518 2 5 10 9 17 9 9 0 2 -24 -22 -77
-19 -43 -37 -86 -40 -95 -3 -10 -10 -18 -16 -18 -6 0 -7 -3 -4 -6 3 -4 1 -16
-5 -28 -7 -11 -13 -23 -13 -26 0 -3 -11 -27 -24 -55 -79 -173 -105 -271 -80
-301 33 -39 156 11 316 130 84 62 90 70 74 95 -8 12 -16 10 -45 -12 -52 -41
-126 -75 -147 -70 -22 6 -22 6 -8 58 11 38 21 62 75 183 13 29 24 55 24 58 0
3 9 26 21 52 12 26 27 61 34 77 8 17 25 56 39 88 14 32 26 60 26 63 0 3 14 32
30 66 17 33 30 64 30 68 0 13 -61 1 -108 -22 -55 -26 -95 -64 -233 -223 -264
-303 -439 -459 -439 -389 0 9 16 52 35 97 19 44 35 86 35 94 0 7 5 13 10 13 6
0 10 6 10 14 0 8 11 36 24 63 52 105 128 294 131 328 4 42 -30 44 -130 10z"/>
<path d="M20820 11090 c-105 -38 -260 -116 -260 -130 0 -3 4 -11 8 -18 6 -9
22 -5 68 17 122 61 141 51 104 -52 -20 -54 -35 -90 -80 -192 -18 -41 -58 -132
-79 -180 -12 -27 -26 -59 -31 -70 -21 -47 -42 -101 -46 -120 -2 -11 -6 -32 -9
-46 -7 -31 16 -59 46 -59 77 0 240 145 637 570 28 30 54 52 57 49 3 -3 -11
-41 -31 -85 -20 -43 -50 -108 -66 -144 -88 -191 -130 -313 -123 -352 14 -71
124 -39 295 84 107 77 118 88 113 109 -7 23 -14 24 -44 2 -58 -43 -128 -80
-149 -78 -23 1 -17 70 10 130 13 28 24 52 25 55 3 8 14 34 77 180 32 74 58
140 58 147 0 7 5 13 10 13 6 0 10 6 10 14 0 8 16 47 35 87 42 87 43 102 12 94
-13 -4 -30 -7 -38 -9 -54 -9 -146 -86 -244 -206 -21 -25 -45 -52 -54 -61 -9
-10 -45 -50 -81 -90 -103 -115 -247 -254 -285 -275 -66 -35 -64 3 10 161 116
249 195 449 184 466 -13 22 -61 18 -139 -11z"/>
<path d="M4 9691 c-2 -2 -4 -7 -4 -11 0 -3 335 -7 745 -9 648 -2 745 0 745 12
0 13 -97 15 -741 14 -407 -1 -743 -4 -745 -6z"/>
<path d="M4712 9610 l-3 -40 7751 0 7750 0 0 40 0 40 -7748 0 -7748 0 -2 -40z"/>
<path d="M233 9622 l-233 -2 0 -49 0 -49 92 -1 c51 0 131 0 178 0 47 0 119 0
160 0 41 0 109 0 150 0 41 0 129 0 195 0 66 0 179 0 250 0 72 0 205 0 297 0
l166 -1 4 50 3 50 -515 2 c-283 2 -620 2 -747 0z"/>
<path d="M9003 9053 c-39 -15 16 -96 78 -114 68 -21 150 18 165 77 4 17 2 29
-7 35 -24 15 -36 10 -49 -21 -22 -54 -102 -55 -135 -3 -20 32 -28 36 -52 26z"/>
<path d="M5638 9034 c-2 -1 -21 -4 -43 -6 -97 -11 -196 -93 -236 -195 -33 -85
-32 -224 3 -310 31 -75 61 -114 113 -145 69 -40 102 -48 193 -44 108 4 168 23
164 51 -6 33 -19 40 -49 26 -42 -19 -156 -25 -207 -11 -58 16 -109 59 -136
114 -27 58 -33 86 -33 171 -1 125 50 222 137 264 56 26 160 27 219 2 l48 -21
9 26 c14 35 14 33 -25 50 -31 13 -151 34 -157 28z"/>
<path d="M11791 8968 c27 -72 161 -342 171 -346 4 -2 8 -8 8 -13 0 -6 11 -27
25 -47 14 -20 25 -43 25 -50 0 -28 -56 -92 -93 -107 -33 -13 -96 -13 -118 1
-4 2 -9 -9 -11 -25 -4 -25 0 -31 21 -37 68 -18 151 8 203 63 48 51 138 251
213 475 24 70 41 129 37 132 -11 11 -63 6 -66 -6 -39 -129 -104 -317 -125
-363 l-27 -60 -35 60 c-44 76 -119 231 -150 313 -23 61 -25 62 -61 62 l-38 0
21 -52z"/>
<path d="M10355 8851 c-45 -11 -69 -26 -104 -66 -46 -52 -62 -100 -63 -180 -1
-108 21 -165 83 -219 125 -106 314 -44 360 119 37 131 -14 280 -114 330 -36
19 -117 26 -162 16z m161 -92 c42 -41 57 -86 57 -171 -1 -115 -60 -191 -151
-194 -62 -2 -113 26 -143 80 -32 57 -33 183 -2 239 37 67 75 88 152 83 44 -4
59 -10 87 -37z"/>
<path d="M12415 8846 l-41 -11 1 -239 0 -240 30 -9 c17 -4 77 -9 135 -9 87 -1
112 2 145 19 57 30 75 53 81 110 8 60 -11 103 -56 130 l-31 18 32 27 c17 16
28 28 24 28 -4 0 -3 6 3 13 5 6 8 29 7 50 -6 84 -62 119 -199 122 -50 1 -109
-3 -131 -9z m198 -51 c85 -17 93 -118 11 -145 -37 -13 -159 -20 -174 -10 -4 3
-9 23 -10 45 -4 59 -1 119 6 113 3 -3 17 -3 32 1 31 8 82 7 135 -4z m15 -219
c43 -10 74 -47 74 -91 0 -47 -22 -70 -79 -84 -50 -13 -171 -13 -179 0 -7 12
-8 164 -1 176 7 10 135 10 185 -1z"/>
<path d="M13037 8846 c-97 -35 -149 -118 -149 -240 -1 -96 11 -143 48 -191 54
-72 189 -101 298 -65 32 10 37 16 32 34 -3 11 -6 25 -6 29 0 4 -9 3 -19 -3
-11 -5 -45 -12 -76 -15 -82 -8 -147 15 -177 63 -12 20 -23 41 -25 47 -1 5 -5
25 -8 43 -9 38 -30 34 196 34 l156 0 -2 52 c-7 169 -125 263 -268 212z m150
-72 c40 -38 67 -128 41 -135 -11 -4 -225 -3 -265 0 -8 1 -9 11 -1 38 23 86 75
126 154 120 33 -2 58 -10 71 -23z"/>
<path d="M13568 8855 c-2 -2 -19 -5 -38 -8 -48 -7 -64 -11 -70 -19 -4 -5 -5
-639 -1 -659 1 -7 48 -5 56 2 3 3 5 49 6 102 l1 97 30 -16 c38 -20 121 -26
175 -12 118 29 191 205 144 345 -38 111 -111 164 -232 168 -38 1 -70 1 -71 0z
m125 -66 c41 -11 86 -48 107 -89 30 -56 18 -197 -21 -252 -42 -58 -139 -73
-221 -34 l-37 18 0 176 c1 172 2 177 23 182 37 10 110 9 149 -1z"/>
<path d="M14151 8847 c-90 -29 -151 -139 -145 -262 4 -85 5 -90 28 -138 22
-45 65 -80 121 -99 64 -22 200 -13 224 16 12 14 3 58 -10 50 -38 -23 -173 -24
-216 -1 -39 21 -72 72 -79 126 -7 48 -29 43 194 42 155 0 155 0 155 39 -1 90
-22 147 -70 191 -50 46 -127 60 -202 36z m155 -71 c24 -25 43 -64 48 -101 l6
-40 -135 1 c-81 0 -140 5 -146 11 -8 8 -5 24 9 55 19 44 57 79 103 96 25 10
97 -5 115 -22z"/>
<path d="M15775 8846 c-25 -9 -29 -16 -27 -39 2 -15 7 -25 12 -22 5 3 28 8 52
11 24 3 45 7 48 7 3 1 24 -2 47 -6 54 -9 82 -47 86 -114 2 -39 -1 -47 -13 -44
-8 2 -49 4 -91 4 -131 -1 -193 -49 -196 -152 -3 -102 62 -156 186 -155 74 1
156 10 171 19 7 4 10 76 10 194 -1 173 -3 190 -23 227 -32 56 -82 81 -165 81
-37 0 -80 -5 -97 -11z m207 -267 c9 -6 13 -35 14 -94 0 -47 -2 -86 -5 -86 -31
-8 -157 -5 -180 4 -35 13 -60 60 -54 102 5 37 19 54 58 71 32 15 145 16 167 3z"/>
<path d="M16340 8851 c-38 -8 -77 -27 -98 -47 -39 -39 -49 -123 -21 -176 15
-29 48 -58 66 -58 18 0 16 -13 -5 -41 -29 -38 -89 -142 -97 -167 -6 -22 -4
-23 25 -18 18 2 33 6 34 8 2 2 20 35 41 73 68 125 62 121 152 121 l78 -1 0
-100 1 -99 29 -1 30 0 3 239 c1 132 -1 243 -6 248 -18 18 -174 31 -232 19z
m134 -55 l41 -1 0 -95 0 -95 -80 -1 c-128 -3 -177 33 -161 117 4 25 15 40 38
54 34 20 97 35 112 27 4 -2 27 -5 50 -6z"/>
<path d="M17020 8850 c-55 -10 -69 -21 -59 -47 8 -23 42 -32 53 -15 8 13 115
14 155 3 40 -12 60 -36 61 -74 0 -34 -42 -77 -79 -78 -83 -3 -97 -5 -108 -12
-6 -4 -9 -15 -6 -26 4 -15 17 -19 76 -23 40 -3 82 -11 94 -19 44 -27 54 -100
19 -134 -30 -30 -129 -38 -237 -19 -32 5 -37 3 -42 -17 -8 -28 1 -34 72 -48
70 -13 171 -6 214 15 39 20 77 61 78 86 5 73 -1 99 -29 127 -15 15 -34 30 -42
33 -12 4 -8 13 18 36 31 30 37 49 33 102 -5 71 -62 110 -165 114 -39 2 -87 0
-106 -4z"/>
<path d="M17522 8851 c-42 -11 -46 -15 -38 -45 5 -22 9 -24 30 -16 13 5 54 8
90 7 56 -2 69 -6 92 -29 22 -21 27 -36 28 -80 1 -43 -2 -52 -14 -49 -38 11
-151 3 -192 -12 -65 -25 -92 -67 -91 -140 1 -103 61 -150 187 -150 87 0 168
10 176 23 3 5 5 89 4 187 -1 209 -14 256 -82 292 -30 16 -146 23 -190 12z
m177 -267 l31 -6 0 -88 c0 -101 4 -97 -101 -98 -99 0 -139 29 -139 101 0 38
36 83 73 90 36 7 103 7 136 1z"/>
<path d="M19821 8848 c-27 -8 -31 -12 -28 -36 3 -15 9 -26 15 -25 83 18 119
19 162 4 45 -14 61 -41 67 -108 l5 -54 -28 8 c-33 9 -116 9 -156 0 -79 -16
-127 -80 -122 -159 6 -92 61 -137 173 -142 76 -3 182 11 192 25 3 5 5 91 4
192 -2 192 -6 213 -54 264 -37 39 -143 53 -230 31z m197 -264 c21 -6 22 -12
22 -94 0 -100 0 -100 -83 -100 -110 0 -157 33 -157 110 0 32 33 70 73 82 29 8
116 9 145 2z"/>
<path d="M5959 8837 c-5 -61 0 -479 5 -484 4 -4 17 -8 29 -8 19 -1 36 19 92
109 81 131 197 296 208 296 4 0 7 -91 7 -203 l0 -203 30 1 c35 0 32 -29 34
270 0 137 -3 223 -9 227 -31 23 -56 6 -125 -84 -38 -51 -74 -97 -78 -103 -4
-5 -34 -52 -66 -102 -32 -51 -60 -93 -62 -93 -2 0 -4 42 -3 93 0 50 0 137 0
193 l-1 101 -30 1 c-16 0 -30 -5 -31 -11z"/>
<path d="M6629 8841 c0 -3 -2 -59 -5 -124 -2 -65 -9 -137 -15 -160 -22 -84
-67 -147 -115 -161 -15 -5 -21 -15 -21 -32 0 -24 2 -26 33 -21 47 8 89 40 119
92 42 71 55 126 60 258 2 49 5 91 8 93 4 5 129 8 167 5 13 -1 15 -32 13 -220
-2 -232 -1 -237 44 -225 18 5 19 18 17 247 -1 133 -2 245 -3 248 -1 9 -301 8
-302 0z"/>
<path d="M7116 8842 c-2 -4 -5 -115 -5 -245 0 -265 -4 -250 74 -257 185 -18
280 16 305 108 23 86 -4 150 -81 190 -39 21 -54 23 -136 19 -63 -3 -93 -1 -94
7 -1 6 -2 49 -3 96 -1 84 -1 85 -28 88 -14 2 -29 -1 -32 -6z m264 -257 c35
-18 50 -43 50 -84 0 -75 -56 -114 -159 -110 -97 4 -97 3 -95 105 1 49 2 91 3
94 1 3 15 7 33 8 18 2 34 4 35 6 9 9 106 -5 133 -19z"/>
<path d="M7619 8740 c-1 -308 0 -382 6 -388 13 -14 55 -8 56 8 1 8 2 60 2 115
l2 100 133 2 c97 2 132 -1 133 -10 1 -7 2 -59 3 -117 l1 -105 32 -1 31 0 1
251 1 251 -30 2 c-17 1 -31 -2 -31 -8 -1 -5 -2 -49 -3 -97 -1 -49 -4 -93 -8
-99 -5 -7 -52 -11 -133 -11 -84 0 -126 3 -127 11 0 6 -2 49 -3 96 -2 47 -3 91
-4 98 -1 7 -13 11 -31 10 l-30 -2 -1 -106z"/>
<path d="M8199 8848 c-4 -10 -4 -490 1 -493 12 -7 89 -17 150 -20 124 -4 205
44 216 129 21 147 -76 217 -263 191 l-48 -6 3 98 3 99 -30 2 c-17 1 -32 1 -32
0z m227 -252 c44 -10 74 -45 78 -93 6 -73 -45 -110 -149 -110 -101 -1 -101 -1
-95 108 l5 94 40 5 c47 7 78 5 121 -4z"/>
<path d="M8679 8833 c-5 -95 -3 -462 3 -474 6 -14 29 -18 58 -10 3 0 4 61 3
133 -1 73 -3 186 -3 251 l0 117 -30 0 c-22 0 -30 -5 -31 -17z"/>
<path d="M8919 8843 c-5 -43 0 -485 5 -490 11 -11 40 -12 52 -2 7 6 31 40 53
77 23 37 47 76 54 87 17 27 142 206 161 230 15 18 16 6 15 -155 0 -271 -4
-245 31 -246 17 -1 30 3 31 10 3 44 4 464 1 478 -4 15 -20 17 -63 9 -3 0 -26
-26 -50 -57 -24 -31 -48 -61 -54 -68 -5 -7 -14 -19 -20 -28 -5 -9 -41 -64 -80
-123 l-70 -106 -3 195 -2 196 -30 0 c-17 0 -30 -3 -31 -7z"/>
<path d="M9690 8839 c0 -4 7 -14 15 -23 8 -8 15 -17 15 -20 0 -3 22 -37 49
-74 81 -114 80 -104 24 -186 -26 -39 -50 -73 -53 -76 -11 -9 -60 -99 -60 -108
0 -13 63 -7 68 6 4 14 97 158 123 190 l18 24 72 -109 c39 -59 76 -111 83 -115
10 -5 31 -5 54 1 7 2 -37 75 -101 169 -40 58 -67 106 -61 110 5 4 31 41 59 82
27 41 52 77 55 80 8 6 30 46 30 54 0 3 -14 5 -31 3 -27 -2 -40 -14 -89 -85
-32 -46 -62 -88 -67 -93 -6 -6 -32 23 -73 85 -59 90 -64 95 -96 94 -19 -1 -34
-5 -34 -9z"/>
<path d="M10869 8796 c-1 -94 -8 -161 -19 -206 -6 -25 -12 -52 -14 -60 -2 -9
-17 -42 -32 -73 -26 -52 -32 -58 -55 -55 -29 5 -27 10 -29 -106 -1 -83 5 -96
43 -89 20 4 22 10 20 69 -1 35 2 65 5 65 4 1 91 2 195 3 l187 1 0 -71 c0 -67
1 -71 23 -68 12 1 27 3 32 3 8 1 12 135 6 184 -1 4 -12 7 -26 7 -14 0 -25 3
-26 8 -1 4 -2 104 -3 222 l-1 215 -152 1 -153 1 -1 -51z m236 -5 c10 -1 12
-377 2 -387 -4 -5 -132 -7 -234 -5 l-33 1 19 33 c38 69 60 160 66 282 2 33 4
63 4 67 1 3 9 8 18 10 14 2 125 2 158 -1z"/>
<path d="M14579 8848 c-5 -10 -4 -498 1 -499 3 -1 16 -2 30 -3 l25 -1 1 101
c1 56 4 108 7 117 4 12 29 15 136 15 l131 1 0 -117 0 -117 29 -1 c20 -1 31 4
33 15 2 9 3 122 3 251 l-1 235 -29 0 -30 0 -3 -106 -3 -105 -130 -1 c-108 -1
-131 2 -136 14 -4 9 -7 57 -7 107 l-1 91 -27 3 c-16 2 -29 2 -29 0z"/>
<path d="M15150 8595 l0 -252 30 0 c20 0 30 5 31 16 1 9 2 61 3 116 l1 100
135 0 135 0 1 -105 c1 -58 2 -110 3 -115 0 -6 15 -11 31 -11 l30 -2 -2 252 -3
251 -27 3 c-16 2 -28 0 -29 -5 -1 -4 -2 -53 -3 -108 l-1 -100 -135 -1 -136 -1
1 96 c0 53 -1 101 -3 108 -2 6 -17 11 -33 11 l-29 -1 0 -252z"/>
<path d="M17964 8596 l1 -251 295 -1 c162 -1 300 -2 305 -3 6 -1 10 -25 10
-58 -2 -83 -3 -81 57 -74 4 1 6 42 5 93 -2 81 -5 92 -22 98 -11 4 -23 6 -27 3
-5 -2 -8 97 -8 220 l0 224 -32 -1 -33 -1 0 -217 c0 -119 -3 -220 -7 -224 -9
-8 -91 -9 -105 -1 -5 3 -15 2 -22 -2 -7 -5 -27 -5 -44 -2 l-32 7 -1 214 c-1
118 -2 218 -3 221 -2 10 -51 7 -57 -3 -3 -5 -6 -106 -6 -225 l0 -215 -24 5
c-13 2 -24 1 -24 -2 0 -6 -151 -4 -157 3 -2 2 -5 102 -6 222 l-2 219 -31 1
-30 1 0 -251z"/>
<path d="M18764 8839 c-8 -14 -8 -475 1 -488 13 -22 57 -4 78 32 90 151 246
381 254 373 2 -2 5 -95 6 -207 l2 -204 28 0 c17 -1 27 4 28 15 3 41 4 466 1
476 -5 17 -55 14 -73 -5 -8 -9 -41 -50 -72 -91 -31 -41 -60 -79 -65 -85 -4 -5
-34 -52 -66 -102 -32 -51 -60 -93 -61 -93 -2 0 -3 78 -3 173 0 236 2 217 -26
217 -14 0 -28 -5 -32 -11z"/>
<path d="M19275 8842 c-3 -3 -5 -15 -5 -27 0 -21 5 -22 68 -22 37 0 74 -1 82
-2 13 -1 15 -31 15 -221 0 -121 2 -221 5 -221 3 -1 16 -2 30 -3 l25 -1 5 225
5 225 80 0 c78 0 79 0 79 25 l0 25 -191 1 c-106 1 -195 -1 -198 -4z"/>
<path d="M11352 8420 c-24 -38 -11 -77 27 -85 32 -6 51 4 62 33 21 55 -58 101
-89 52z"/>
<path d="M20270 8420 c-16 -16 -18 -24 -9 -49 12 -33 27 -42 60 -36 42 8 57
56 28 91 -16 20 -56 17 -79 -6z"/>
</g>
</svg>
