<svg width="25" height="25" viewBox="0 0 25 25" fill="none" xmlns="http://www.w3.org/2000/svg">
<path d="M22.6583 1.4834H2.34159C1.85299 1.4834 1.45825 1.87814 1.45825 2.36673V22.6834C1.45825 23.172 1.85299 23.5667 2.34159 23.5667H22.6583C23.1468 23.5667 23.5416 23.172 23.5416 22.6834V2.36673C23.5416 1.87814 23.1468 1.4834 22.6583 1.4834ZM20.1076 7.92897H18.3437C16.9608 7.92897 16.693 8.58595 16.693 9.5521V11.6804H19.9944L19.5638 15.0122H16.693V23.5667H13.2508V15.015H10.3716V11.6804H13.2508V9.22361C13.2508 6.3721 14.9926 4.81798 17.5377 4.81798C18.7578 4.81798 19.804 4.90908 20.1104 4.95048V7.92897H20.1076Z" fill="black" fill-opacity="0.8"/>
</svg>
