<svg width="25" height="25" viewBox="0 0 25 25" fill="none" xmlns="http://www.w3.org/2000/svg">
<path d="M8.45939 12.6C8.45939 11.4498 8.86195 10.4722 9.66707 9.66707C10.4722 8.86195 11.4498 8.45939 12.6 8.45939C13.7502 8.45939 14.7278 8.86195 15.533 9.66707C16.3381 10.4722 16.7406 11.4498 16.7406 12.6C16.7406 13.7502 16.3381 14.7278 15.533 15.533C14.7278 16.3381 13.7502 16.7406 12.6 16.7406C11.4498 16.7406 10.4722 16.3381 9.66707 15.533C8.86195 14.7278 8.45939 13.7502 8.45939 12.6ZM23.6417 11.2198V20.8813C23.6417 21.6433 23.3721 22.2938 22.833 22.833C22.2938 23.3721 21.6433 23.6417 20.8813 23.6417H4.31877C3.55678 23.6417 2.90621 23.3721 2.36707 22.833C1.82792 22.2938 1.55835 21.6433 1.55835 20.8813V4.31877C1.55835 3.55678 1.82792 2.90621 2.36707 2.36707C2.90621 1.82792 3.55678 1.55835 4.31877 1.55835H20.8813C21.6433 1.55835 22.2938 1.82792 22.833 2.36707C23.3721 2.90621 23.6417 3.55678 23.6417 4.31877V8.45939H18.1208C17.4739 7.61114 16.6688 6.93901 15.7055 6.44299C14.7422 5.94698 13.7071 5.69897 12.6 5.69897C11.493 5.69897 10.4578 5.94698 9.49455 6.44299C8.53128 6.93901 7.72616 7.61114 7.07918 8.45939H1.55835V11.2198H5.82837C5.74211 11.6799 5.69897 12.1399 5.69897 12.6C5.69897 13.8508 6.00808 15.0046 6.6263 16.0613C7.24452 17.118 8.08199 17.9555 9.13871 18.5737C10.1954 19.1919 11.3492 19.5011 12.6 19.5011C13.8508 19.5011 15.0046 19.1919 16.0613 18.5737C17.118 17.9555 17.9555 17.118 18.5737 16.0613C19.1919 15.0046 19.5011 13.8508 19.5011 12.6C19.5011 12.1399 19.4579 11.6799 19.3717 11.2198H23.6417Z" fill="black" fill-opacity="0.8"/>
</svg>
