<svg width="25" height="25" viewBox="0 0 25 25" fill="none" xmlns="http://www.w3.org/2000/svg">
<path d="M21.9792 1.5625H3.22437C2.36499 1.5625 1.66675 2.27051 1.66675 3.13965V21.8604C1.66675 22.7295 2.36499 23.4375 3.22437 23.4375H21.9792C22.8386 23.4375 23.5417 22.7295 23.5417 21.8604V3.13965C23.5417 2.27051 22.8386 1.5625 21.9792 1.5625ZM8.27808 20.3125H5.03589V9.87305H8.28296V20.3125H8.27808ZM6.65698 8.44727C5.61694 8.44727 4.7771 7.60254 4.7771 6.56738C4.7771 5.53223 5.61694 4.6875 6.65698 4.6875C7.69214 4.6875 8.53687 5.53223 8.53687 6.56738C8.53687 7.60742 7.69702 8.44727 6.65698 8.44727ZM20.4314 20.3125H17.1892V15.2344C17.1892 14.0234 17.1648 12.4658 15.5046 12.4658C13.8152 12.4658 13.5564 13.7842 13.5564 15.1465V20.3125H10.3142V9.87305H13.4246V11.2988H13.4685C13.9031 10.4785 14.9626 9.61426 16.5398 9.61426C19.821 9.61426 20.4314 11.7773 20.4314 14.5898V20.3125Z" fill="black" fill-opacity="0.8"/>
</svg>
