<svg width="25" height="25" viewBox="0 0 25 25" fill="none" xmlns="http://www.w3.org/2000/svg">
<path d="M10.6609 8.64746C10.6609 7.56836 11.5349 6.69434 12.6042 6.69434C13.6736 6.69434 14.5476 7.56836 14.5476 8.64746C14.5476 9.72168 13.6736 10.5908 12.6042 10.5908C11.5349 10.5908 10.6609 9.7168 10.6609 8.64746ZM23.5417 3.90625V21.0938C23.5417 22.3877 22.4919 23.4375 21.198 23.4375H4.0105C2.71655 23.4375 1.66675 22.3877 1.66675 21.0938V3.90625C1.66675 2.6123 2.71655 1.5625 4.0105 1.5625H21.198C22.4919 1.5625 23.5417 2.6123 23.5417 3.90625ZM8.64429 8.64746C8.64429 10.8252 10.4216 12.5977 12.6042 12.5977C14.7869 12.5977 16.5642 10.8301 16.5642 8.64746C16.5642 6.45996 14.7869 4.6875 12.6042 4.6875C10.4216 4.6875 8.64429 6.45508 8.64429 8.64746ZM17.1648 13.0762C16.9402 12.6318 16.3201 12.2559 15.4998 12.9004C15.4998 12.9004 14.3914 13.7793 12.6042 13.7793C10.8171 13.7793 9.70874 12.9004 9.70874 12.9004C8.88843 12.2559 8.26831 12.6318 8.0437 13.0762C7.65796 13.8623 8.09741 14.2334 9.08862 14.8828C9.93335 15.4248 11.1003 15.625 11.8523 15.7031L11.2224 16.333C10.3337 17.2119 9.48901 18.0664 8.89331 18.6621C8.03394 19.5215 9.41577 20.8984 10.28 20.0586L12.6091 17.7197C13.4978 18.6084 14.3523 19.4629 14.9382 20.0586C15.7976 20.8984 17.1843 19.5361 16.3347 18.6621L14.0056 16.333L13.3708 15.7031C14.1277 15.625 15.28 15.415 16.115 14.8828C17.1111 14.2334 17.5457 13.8574 17.1648 13.0762Z" fill="black" fill-opacity="0.8"/>
</svg>
