<svg width="25" height="25" viewBox="0 0 25 25" fill="none" xmlns="http://www.w3.org/2000/svg">
<path d="M23.75 21.25V3.75C23.75 2.375 22.6213 1.25 21.2438 1.25H3.75625C2.31875 1.25 1.25 2.31625 1.25 3.75V21.25C1.25 22.685 2.31875 23.75 3.75625 23.75H21.2438C21.9071 23.749 22.543 23.4855 23.0126 23.0171C23.4823 22.5486 23.7474 21.9133 23.75 21.25ZM18.98 14.5088C18.98 14.5088 20.395 15.905 20.7437 16.5525C20.7537 16.5662 20.7575 16.5788 20.7612 16.5837C20.9025 16.8212 20.9388 17.0087 20.8675 17.1462C20.75 17.375 20.35 17.49 20.2137 17.5H17.715C17.54 17.5 17.1775 17.455 16.7375 17.1512C16.4 16.9162 16.0663 16.5275 15.7413 16.1487C15.2563 15.5862 14.8363 15.0988 14.4137 15.0988C14.3602 15.0986 14.3069 15.1075 14.2562 15.125C13.935 15.2275 13.5275 15.6838 13.5275 16.9025C13.5275 17.2838 13.2275 17.5013 13.015 17.5013H11.87C11.48 17.5013 9.44875 17.365 7.65 15.4663C5.4425 13.1413 3.46 8.4775 3.4425 8.43625C3.3175 8.135 3.57625 7.97125 3.8575 7.97125H6.3825C6.72125 7.97125 6.83 8.17625 6.9075 8.36C6.995 8.56875 7.325 9.41125 7.865 10.3587C8.74375 11.9 9.285 12.5275 9.71625 12.5275C9.79689 12.527 9.87607 12.506 9.94625 12.4662C10.51 12.155 10.405 10.145 10.38 9.73C10.38 9.65125 10.3787 8.83125 10.0912 8.4375C9.88375 8.1525 9.5325 8.04375 9.32 8.0025C9.40665 7.8831 9.52067 7.78623 9.6525 7.72C10.0387 7.5275 10.735 7.5 11.4275 7.5H11.8125C12.5637 7.51 12.7587 7.55875 13.03 7.6275C13.5787 7.75875 13.59 8.115 13.5413 9.3275C13.5275 9.6725 13.5125 10.0638 13.5125 10.5225C13.5125 10.6213 13.5087 10.73 13.5087 10.8425C13.4913 11.4625 13.4712 12.1638 13.9087 12.4513C13.9654 12.4867 14.0307 12.5057 14.0975 12.5063C14.25 12.5063 14.7062 12.5062 15.9425 10.385C16.4862 9.44875 16.905 8.34375 16.9338 8.26125C16.9774 8.17205 17.0407 8.09386 17.1187 8.0325C17.1828 7.99924 17.2541 7.98249 17.3263 7.98375H20.295C20.62 7.98375 20.84 8.0325 20.8813 8.15625C20.9525 8.355 20.8675 8.96125 19.5112 10.7938L18.9075 11.5938C17.6775 13.2037 17.6775 13.2863 18.98 14.5088Z" fill="black" fill-opacity="0.8"/>
</svg>
