<svg width="25" height="25" viewBox="0 0 25 25" fill="none" xmlns="http://www.w3.org/2000/svg">
<path d="M14.4656 18.3755V16.1187C14.4656 15.6395 14.3267 15.3999 14.0488 15.3999C13.8859 15.3999 13.7277 15.4766 13.5744 15.6299V18.8499C13.7277 19.0032 13.8859 19.0799 14.0488 19.0799C14.3267 19.0799 14.4656 18.8451 14.4656 18.3755ZM17.1106 16.6218H18.0594V16.1331C18.0594 15.6443 17.9012 15.3999 17.585 15.3999C17.2687 15.3999 17.1106 15.6443 17.1106 16.1331V16.6218ZM8.90256 12.7981V13.8043H7.75257V19.8849H6.68883V13.8043H5.56759V12.7981H8.90256ZM11.7919 14.6093V19.8849H10.8288V19.3099C10.455 19.7412 10.0909 19.9568 9.7363 19.9568C9.42006 19.9568 9.21881 19.8226 9.13256 19.5543C9.07506 19.3914 9.04631 19.1326 9.04631 18.778V14.6093H9.99505V18.4905C9.99505 18.7205 9.99984 18.8451 10.0094 18.8643C10.019 19.008 10.0909 19.0799 10.2251 19.0799C10.4167 19.0799 10.618 18.9314 10.8288 18.6343V14.6093H11.7919ZM15.4144 16.2049V18.3037C15.4144 18.802 15.3808 19.1518 15.3138 19.353C15.1988 19.7555 14.9448 19.9568 14.5519 19.9568C14.2165 19.9568 13.8906 19.7603 13.5744 19.3674V19.8849H12.6113V12.7981H13.5744V15.1124C13.8811 14.7291 14.2069 14.5374 14.5519 14.5374C14.9448 14.5374 15.1988 14.7387 15.3138 15.1412C15.3808 15.3424 15.4144 15.697 15.4144 16.2049ZM19.0225 18.0593V18.1887C19.0225 18.4666 19.0129 18.6726 18.9937 18.8068C18.965 19.0176 18.8931 19.2093 18.7781 19.3818C18.5194 19.7651 18.136 19.9568 17.6281 19.9568C17.1298 19.9568 16.7417 19.7747 16.4638 19.4105C16.2625 19.1518 16.1619 18.7397 16.1619 18.1743V16.3199C16.1619 15.7545 16.2577 15.3424 16.4494 15.0837C16.7273 14.7195 17.1106 14.5374 17.5994 14.5374C18.0881 14.5374 18.4619 14.7195 18.7206 15.0837C18.9219 15.3616 19.0225 15.7737 19.0225 16.3199V17.4124H17.1106V18.3468C17.1106 18.8355 17.2735 19.0799 17.5994 19.0799C17.8294 19.0799 17.9731 18.9553 18.0306 18.7062C18.0306 18.6966 18.033 18.663 18.0378 18.6055C18.0426 18.548 18.045 18.469 18.045 18.3684V18.0593H19.0225ZM12.5394 6.21439V8.45687C12.5394 8.94562 12.3861 9.18999 12.0794 9.18999C11.7727 9.18999 11.6194 8.94562 11.6194 8.45687V6.21439C11.6194 5.71606 11.7727 5.4669 12.0794 5.4669C12.3861 5.4669 12.5394 5.71606 12.5394 6.21439ZM20.2012 16.4637C20.2012 14.7674 20.1102 13.5216 19.9281 12.7262C19.8323 12.3046 19.6262 11.9524 19.31 11.6697C18.9937 11.387 18.6296 11.2216 18.2175 11.1737C16.9142 11.03 14.94 10.9581 12.295 10.9581C9.65964 10.9581 7.69028 11.03 6.38696 11.1737C5.96529 11.2216 5.59873 11.387 5.28728 11.6697C4.97582 11.9524 4.77218 12.3046 4.67634 12.7262C4.48468 13.56 4.38885 14.8058 4.38885 16.4637C4.38885 18.1503 4.48468 19.3962 4.67634 20.2012C4.77218 20.6132 4.97582 20.963 5.28728 21.2505C5.59873 21.538 5.9605 21.7057 6.37258 21.7536C7.68549 21.8974 9.65964 21.9693 12.295 21.9693C14.9304 21.9693 16.9046 21.8974 18.2175 21.7536C18.6296 21.7057 18.9913 21.538 19.3028 21.2505C19.6142 20.963 19.8179 20.6132 19.9137 20.2012C20.1054 19.3962 20.2012 18.1503 20.2012 16.4637ZM9.34818 7.10563L10.6419 2.85067H9.56381L8.83069 5.65377L8.06882 2.85067H6.94758C7.01466 3.07108 7.12487 3.4017 7.2782 3.84253L7.6232 4.8344C7.95861 5.82148 8.17903 6.57855 8.28444 7.10563V9.99499H9.34818V7.10563ZM13.5025 8.27V6.40126C13.5025 5.84543 13.4019 5.42856 13.2007 5.15065C12.9227 4.78648 12.549 4.6044 12.0794 4.6044C11.5907 4.6044 11.2169 4.78648 10.9582 5.15065C10.7569 5.42856 10.6563 5.84543 10.6563 6.40126V8.27C10.6563 8.82583 10.7569 9.2427 10.9582 9.52061C11.2169 9.88478 11.5907 10.0669 12.0794 10.0669C12.549 10.0669 12.9227 9.88478 13.2007 9.52061C13.4019 9.26187 13.5025 8.84499 13.5025 8.27ZM16.1044 9.99499H17.0675V4.67628H16.1044V8.74437C15.8935 9.04145 15.6923 9.18999 15.5006 9.18999C15.3569 9.18999 15.2802 9.11333 15.2706 8.95999C15.2611 8.94083 15.2563 8.81624 15.2563 8.58625V4.67628H14.2931V8.88812C14.2931 9.2427 14.3219 9.50624 14.3794 9.67874C14.4848 9.93749 14.6909 10.0669 14.9975 10.0669C15.3425 10.0669 15.7115 9.85124 16.1044 9.41999V9.99499ZM23.3349 5.62502V19.4249C23.3349 20.5653 23.3312 22.0188 22.5214 22.8285C21.7116 23.6383 20.3354 23.5649 19.195 23.5649H5.39509C4.25468 23.5649 2.76384 23.6383 1.95405 22.8285C1.14427 22.0188 1.25512 20.5653 1.25512 19.4249V5.62502C1.25512 4.48461 1.14427 3.03049 1.95405 2.22071C2.76384 1.41092 4.25468 1.48505 5.39509 1.48505H19.195C20.3354 1.48505 21.7116 1.41092 22.5214 2.22071C23.3312 3.03049 23.3349 4.48461 23.3349 5.62502Z" fill="black" fill-opacity="0.8"/>
</svg>
