<svg width="25" height="25" viewBox="0 0 25 25" fill="none" xmlns="http://www.w3.org/2000/svg">
<path d="M12.4998 4.6875C7.2915 4.6875 2.84359 7.92708 1.0415 12.5C2.84359 17.0729 7.2915 20.3125 12.4998 20.3125C17.7082 20.3125 22.1561 17.0729 23.9582 12.5C22.1561 7.92708 17.7082 4.6875 12.4998 4.6875ZM12.4998 17.7083C9.62484 17.7083 7.2915 15.375 7.2915 12.5C7.2915 9.625 9.62484 7.29167 12.4998 7.29167C15.3748 7.29167 17.7082 9.625 17.7082 12.5C17.7082 15.375 15.3748 17.7083 12.4998 17.7083ZM12.4998 9.375C10.7707 9.375 9.37484 10.7708 9.37484 12.5C9.37484 14.2292 10.7707 15.625 12.4998 15.625C14.229 15.625 15.6248 14.2292 15.6248 12.5C15.6248 10.7708 14.229 9.375 12.4998 9.375Z" fill="black" fill-opacity="0.8"/>
</svg>
