<svg width="25" height="25" viewBox="0 0 25 25" fill="none" xmlns="http://www.w3.org/2000/svg">
<path d="M23.4375 22.3359L17.539 16.4062C18.9491 14.7048 19.6496 12.5256 19.4951 10.3212C19.3405 8.11684 18.3427 6.05673 16.7089 4.56877C15.0752 3.08082 12.931 2.27939 10.7218 2.33096C8.51265 2.38252 6.40822 3.28311 4.84567 4.84567C3.28311 6.40822 2.38252 8.51265 2.33096 10.7218C2.27939 12.931 3.08082 15.0752 4.56877 16.7089C6.05673 18.3427 8.11684 19.3405 10.3212 19.4951C12.5256 19.6496 14.7048 18.9491 16.4062 17.539L22.3359 23.4375L23.4375 22.3359ZM3.9062 10.9375C3.9062 9.5468 4.31858 8.18738 5.09118 7.0311C5.86379 5.87482 6.96192 4.9736 8.24671 4.44143C9.5315 3.90925 10.9453 3.77 12.3092 4.04131C13.6731 4.31261 14.926 4.98227 15.9093 5.96561C16.8926 6.94895 17.5623 8.2018 17.8336 9.56572C18.1049 10.9297 17.9657 12.3434 17.4335 13.6282C16.9013 14.913 16.0001 16.0111 14.8438 16.7837C13.6875 17.5563 12.3281 17.9687 10.9375 17.9687C9.07265 17.9687 7.28422 17.2279 5.96561 15.9093C4.64699 14.5907 3.9062 12.8023 3.9062 10.9375Z" fill="black" fill-opacity="0.8"/>
</svg>
