<svg width="80" height="80" viewBox="0 0 80 80" fill="none" xmlns="http://www.w3.org/2000/svg">
<path d="M71.9999 0.984619H23.9999C19.4461 0.984619 15.6307 4.67693 15.6307 9.35385V17.9692C15.6307 18.4615 15.9999 18.9538 16.6153 18.9538C17.2307 18.9538 17.5999 18.5846 17.5999 17.9692V9.35385C17.5999 5.78462 20.5538 2.83077 24.123 2.83077H25.3538C28.923 2.83077 31.8769 5.78462 31.8769 9.35385V16.7385C31.8769 17.2308 32.2461 17.7231 32.8615 17.7231H36.5538C37.0461 17.7231 37.5384 17.3539 37.5384 16.7385C37.5384 16.1231 37.1692 15.7539 36.5538 15.7539H33.723V9.23077C33.723 6.64616 32.4922 4.3077 30.6461 2.7077H72.2461C76.0615 2.7077 77.5384 6.03077 77.5384 9.23077V15.7539H36.5538C36.0615 15.7539 35.5692 16.1231 35.5692 16.7385C35.5692 17.3539 35.9384 17.7231 36.5538 17.7231H68.6769V71.0154C68.6769 74.5846 65.723 77.5385 62.1538 77.5385C58.5846 77.5385 55.6307 74.5846 55.6307 71.0154V63.6308C55.6307 63.1385 55.2615 62.6462 54.6461 62.6462H17.5999V57.3539C17.5999 56.8615 17.2307 56.3692 16.6153 56.3692C15.9999 56.3692 15.6307 56.7385 15.6307 57.3539V62.6462H9.23071C8.7384 62.6462 8.24609 63.0154 8.24609 63.6308V71.0154C8.24609 75.5692 11.9384 79.3846 16.6153 79.3846H62.1538C66.7076 79.3846 70.523 75.6923 70.523 71.0154V17.6H78.2769C78.7692 17.6 79.2615 17.2308 79.2615 16.6154V9.23077C79.1384 4.18462 76.3076 0.984619 71.9999 0.984619ZM16.6153 77.2923C13.0461 77.2923 10.0922 74.3385 10.0922 70.7692V64.2462H53.7846V70.7692C53.7846 73.3539 55.0153 75.6923 56.8615 77.2923H16.6153Z" fill="black" fill-opacity="0.8"/>
<path d="M37.5386 43.4462H64.6155C65.1078 43.4462 65.6001 43.077 65.6001 42.4616C65.6001 41.8462 65.2309 41.477 64.6155 41.477H37.5386C37.0463 41.477 36.554 41.8462 36.554 42.4616C36.554 43.077 37.0463 43.4462 37.5386 43.4462Z" fill="black" fill-opacity="0.8"/>
<path d="M36.677 36.3077C36.677 36.8 37.0462 37.2924 37.6616 37.2924H64.7385C65.2309 37.2924 65.7232 36.9231 65.7232 36.3077C65.7232 35.6924 65.3539 35.3231 64.7385 35.3231H37.6616C37.0462 35.4462 36.677 35.8154 36.677 36.3077Z" fill="black" fill-opacity="0.8"/>
<path d="M49.8462 31.0154H64.6154C65.1077 31.0154 65.6 30.6461 65.6 30.0308C65.6 29.4154 65.2308 29.0461 64.6154 29.0461H49.8462C49.3539 29.0461 48.8616 29.4154 48.8616 30.0308C48.8616 30.6461 49.3539 31.0154 49.8462 31.0154Z" fill="black" fill-opacity="0.8"/>
<path d="M49.8462 24.8616H64.6154C65.1077 24.8616 65.6 24.4923 65.6 23.8769C65.6 23.2616 65.2308 22.8923 64.6154 22.8923H49.8462C49.3539 22.8923 48.8616 23.2616 48.8616 23.8769C48.8616 24.4923 49.3539 24.8616 49.8462 24.8616Z" fill="black" fill-opacity="0.8"/>
<path d="M37.5386 49.6H64.6155C65.1078 49.6 65.6001 49.2308 65.6001 48.6154C65.6001 48 65.2309 47.6308 64.6155 47.6308H37.5386C37.0463 47.6308 36.554 48 36.554 48.6154C36.554 49.2308 37.0463 49.6 37.5386 49.6Z" fill="black" fill-opacity="0.8"/>
<path d="M37.5386 55.7539H64.6155C65.1078 55.7539 65.6001 55.3847 65.6001 54.7693C65.6001 54.1539 65.2309 53.7847 64.6155 53.7847H37.5386C37.0463 53.7847 36.554 54.1539 36.554 54.7693C36.554 55.3847 37.0463 55.7539 37.5386 55.7539Z" fill="black" fill-opacity="0.8"/>
<path d="M16.6154 53.2923C20.9231 53.2923 24.8615 51.5693 27.6923 48.7385C30.5231 45.9077 32.2462 41.9693 32.2462 37.6616C32.2462 29.0462 25.2308 21.9077 16.4923 21.9077C7.75385 21.9077 0.984619 28.9231 0.984619 37.5385C0.984619 46.1539 8 53.2923 16.6154 53.2923ZM27.0769 46.6462L18.9538 38.5231H30.5231C30.1538 41.6 28.9231 44.4308 27.0769 46.6462ZM30.4 36.6769H17.6V23.7539C24.4923 24.2462 29.9077 29.6616 30.4 36.6769ZM15.7538 23.7539V37.5385C15.7538 37.6616 15.7538 37.7846 15.8769 37.9077C15.8769 38.0308 16 38.1539 16.1231 38.1539L25.8462 47.877C23.3846 49.9693 20.1846 51.3231 16.7385 51.3231C9.1077 51.3231 2.83077 45.1693 2.83077 37.4154C2.83077 30.2769 8.49231 24.2462 15.7538 23.7539Z" fill="black" fill-opacity="0.8"/>
</svg>
