<svg width="80" height="80" viewBox="0 0 80 80" fill="none" xmlns="http://www.w3.org/2000/svg">
<path d="M50.1692 61.4615C56.0769 61.4615 61.7385 59.7385 66.6615 56.4154L78.1077 61.4615C78.2308 61.4615 78.3539 61.5846 78.4769 61.5846C78.7231 61.5846 78.9692 61.4615 79.0923 61.3385C79.3385 61.0923 79.4615 60.7231 79.3385 60.3539L75.2769 47.1846C77.9846 42.6308 79.3385 37.5846 79.3385 32.2923C79.3385 16.1692 66.1692 3 50.0462 3C33.9231 3 21 16.0462 21 32.1692C21 48.2923 34.0462 61.4615 50.1692 61.4615ZM50.1692 4.84615C65.3077 4.84615 77.6154 17.1538 77.6154 32.2923C77.6154 37.3385 76.2615 42.2615 73.5539 46.5692C73.4308 46.8154 73.4308 47.0615 73.4308 47.3077L77 58.8769L66.9077 54.4462C66.6615 54.3231 66.2923 54.3231 66.0462 54.5692C61.3692 57.8923 55.9538 59.6154 50.1692 59.6154C35.0308 59.6154 22.7231 47.3077 22.7231 32.1692C22.7231 17.0308 35.0308 4.84615 50.1692 4.84615Z" fill="black" fill-opacity="0.8"/>
<path d="M36.3082 26.3689C33.1082 26.3689 30.5236 28.9535 30.5236 32.2766C30.5236 35.5997 33.1082 38.1843 36.3082 38.1843C39.5082 38.1843 42.2159 35.5997 42.2159 32.2766C42.2159 28.9535 39.5082 26.3689 36.3082 26.3689ZM36.3082 36.215C34.0928 36.215 32.3697 34.3689 32.3697 32.1535C32.3697 29.9381 34.2159 28.092 36.3082 28.092C38.4005 28.092 40.3697 29.9381 40.3697 32.1535C40.3697 34.3689 38.5236 36.215 36.3082 36.215Z" fill="black" fill-opacity="0.8"/>
<path d="M45.2926 32.1538C45.2926 35.3538 47.8772 38.0615 51.2003 38.0615C54.4003 38.0615 56.9849 35.4769 56.9849 32.1538C56.9849 28.8307 54.4003 26.2461 51.2003 26.2461C47.8772 26.3692 45.2926 28.9538 45.2926 32.1538ZM51.0772 28.2153C53.2926 28.2153 55.0157 30.0615 55.0157 32.2769C55.0157 34.4922 53.1695 36.3384 51.0772 36.3384C48.9849 36.3384 47.0157 34.4922 47.0157 32.2769C47.0157 30.0615 48.8618 28.2153 51.0772 28.2153Z" fill="black" fill-opacity="0.8"/>
<path d="M65.8464 38.0615C69.0464 38.0615 71.7541 35.4769 71.7541 32.1538C71.7541 28.8307 69.1695 26.2461 65.8464 26.2461C62.5233 26.2461 59.9387 28.8307 59.9387 32.1538C59.9387 35.4769 62.6464 38.0615 65.8464 38.0615ZM65.8464 28.2153C68.0618 28.2153 69.908 30.0615 69.908 32.2769C69.908 34.4922 68.0618 36.3384 65.8464 36.3384C63.631 36.3384 61.7849 34.4922 61.7849 32.2769C61.7849 30.0615 63.631 28.2153 65.8464 28.2153Z" fill="black" fill-opacity="0.8"/>
<path d="M48.6156 64.6462C43.5694 69.3231 37.0463 71.7846 30.154 71.7846C24.4925 71.7846 18.954 70.0615 14.2771 66.7385C14.031 66.4923 13.6617 66.4923 13.4156 66.6154L3.32326 71.0462L6.89249 59.4769C7.01557 59.2308 6.89249 58.9846 6.76942 58.7385C4.1848 54.4308 2.70788 49.5077 2.70788 44.4615C2.70788 33.1385 9.47711 23.1692 19.9386 18.9846C20.431 18.7385 20.6771 18.2462 20.431 17.7539C20.1848 17.2615 19.6925 17.0154 19.2002 17.2615C8.00019 21.6923 0.738647 32.4 0.738647 44.4615C0.738647 49.7539 2.09249 54.9231 4.80019 59.3539L0.984801 72.5231C0.861724 72.8923 0.984801 73.2615 1.23096 73.5077C1.35403 73.6308 1.60019 73.7539 1.84634 73.7539C1.96942 73.7539 2.09249 73.7539 2.21557 73.6308L13.6617 68.5846C18.5848 71.9077 24.2463 73.6308 30.154 73.6308C37.4156 73.6308 44.431 70.9231 49.8463 66C50.2156 65.6308 50.2156 65.0154 49.8463 64.6462C49.6002 64.4 48.9848 64.4 48.6156 64.6462Z" fill="black" fill-opacity="0.8"/>
</svg>
