<svg width="40" height="40" viewBox="0 0 40 40" fill="none" xmlns="http://www.w3.org/2000/svg">
<g clip-path="url(#clip0)">
<path fill-rule="evenodd" clip-rule="evenodd" d="M26.3333 4.45833V8.10417L26.3333 19.9999H30.1111V9.99992C30.1111 9.72378 30.335 9.49992 30.6111 9.49992H35.487L35.4864 9.50263C35.7143 8.45292 36.6487 7.66667 37.7666 7.66667C39.0553 7.66667 40.1 8.71134 40.1 10C40.1 11.2887 39.0553 12.3333 37.7666 12.3333C36.6496 12.3333 35.7158 11.5484 35.487 10.4999H31.1111V19.9999H35.487C35.4866 20.0018 35.4862 20.0037 35.4858 20.0056C35.4818 20.0239 35.4781 20.0422 35.4746 20.0606C35.4766 20.0501 35.4786 20.0397 35.4808 20.0292C35.4824 20.0214 35.4841 20.0135 35.4858 20.0056C35.7125 18.9544 36.6476 18.1666 37.7666 18.1666C39.0553 18.1666 40.1 19.2113 40.1 20.4999C40.1 21.7886 39.0553 22.8333 37.7666 22.8333C36.6496 22.8333 35.7159 22.0483 35.487 20.9999H31.1111V30.4999H35.487C35.7159 29.4515 36.6496 28.6666 37.7666 28.6666C39.0553 28.6666 40.1 29.7113 40.1 30.9999C40.1 32.2886 39.0553 33.3333 37.7666 33.3333C36.6496 33.3333 35.7159 32.5483 35.487 31.4999H30.6111C30.335 31.4999 30.1111 31.2761 30.1111 30.9999V20.9999H26.3333L26.3333 36.5417C26.3333 37.3467 25.68 38 24.875 38H4.45833C3.65333 38 3 37.3467 3 36.5417V8.10417V4.45833C3 3.65333 3.65333 3 4.45833 3H6.64583H22.6875H24.875C25.68 3 26.3333 3.65333 26.3333 4.45833ZM4.45833 4.45833V36.5417H11.75V30.7083H17.5833V36.5417H24.875V4.45833H4.45833ZM16.125 36.5417H13.2083V32.1667H16.125V36.5417ZM9.5625 7.375H6.64583V10.2917H9.5625V7.375ZM13.9375 7.375H11.0208V10.2917H13.9375V7.375ZM15.3958 7.375H18.3125V10.2917H15.3958V7.375ZM22.6875 7.375H19.7708V10.2917H22.6875V7.375ZM15.3958 13.2083H18.3125V16.125H15.3958V13.2083ZM22.6875 13.2083H19.7708V16.125H22.6875V13.2083ZM11.0208 13.2083H13.9375V16.125H11.0208V13.2083ZM9.5625 13.2083H6.64583V16.125H9.5625V13.2083ZM6.64583 19.0417H9.5625V21.9583H6.64583V19.0417ZM13.9375 19.0417H11.0208V21.9583H13.9375V19.0417ZM15.3958 19.0417H18.3125V21.9583H15.3958V19.0417ZM22.6875 19.0417H19.7708V21.9583H22.6875V19.0417ZM19.7708 24.875H22.6875V27.7917H19.7708V24.875ZM18.3125 24.875H15.3958V27.7917H18.3125V24.875ZM6.64583 24.875H9.5625V27.7917H6.64583V24.875ZM13.9375 24.875H11.0208V27.7917H13.9375V24.875ZM39.1 10C39.1 10.7364 38.503 11.3333 37.7666 11.3333C37.0303 11.3333 36.4333 10.7364 36.4333 10C36.4333 9.26362 37.0303 8.66667 37.7666 8.66667C38.503 8.66667 39.1 9.26362 39.1 10ZM37.7666 21.8333C38.503 21.8333 39.1 21.2363 39.1 20.4999C39.1 19.7635 38.503 19.1666 37.7666 19.1666C37.0303 19.1666 36.4333 19.7635 36.4333 20.4999C36.4333 21.2363 37.0303 21.8333 37.7666 21.8333ZM37.7666 32.3333C38.503 32.3333 39.1 31.7363 39.1 30.9999C39.1 30.2635 38.503 29.6666 37.7666 29.6666C37.0303 29.6666 36.4333 30.2635 36.4333 30.9999C36.4333 31.7363 37.0303 32.3333 37.7666 32.3333Z" fill="black" fill-opacity="0.8"/>
</g>
<defs>
<clipPath id="clip0">
<rect width="40" height="40" fill="white"/>
</clipPath>
</defs>
</svg>
