<svg width="40" height="40" viewBox="0 0 40 40" fill="none" xmlns="http://www.w3.org/2000/svg">
<path d="M23.1034 24.4385C24.6411 24.8908 25.9735 25.8371 26.9128 27.0929C27.8312 28.3175 28.3774 29.8378 28.3774 31.4763V38.0584V38.8099H27.626H10.0749H9.32349V38.0584V31.4763C9.32349 29.8413 9.86967 28.321 10.7881 27.0929C11.7274 25.8405 13.0598 24.8908 14.5975 24.4385L15.0184 24.3168L15.335 24.6229C15.7977 25.0717 16.3474 25.4335 16.9562 25.6805C17.5406 25.9171 18.1808 26.0493 18.8522 26.0493C19.5271 26.0493 20.1672 25.9171 20.7482 25.6805C21.357 25.4335 21.9066 25.0717 22.3693 24.6229L22.6824 24.3168L23.1034 24.4385ZM18.8522 14.7394C20.2681 14.7394 21.5553 15.3169 22.4841 16.2457L22.4876 16.2492C23.4165 17.1781 23.994 18.4653 23.994 19.8812C23.994 21.3006 23.4165 22.5878 22.4876 23.5166C21.5588 24.4455 20.2716 25.023 18.8522 25.023C17.4363 25.023 16.1526 24.449 15.2202 23.5166L15.2167 23.5132C14.2879 22.5808 13.7104 21.2971 13.7104 19.8812C13.7104 18.4618 14.2879 17.1746 15.2167 16.2457C16.1456 15.3169 17.4328 14.7394 18.8522 14.7394ZM21.4266 17.3068C20.7691 16.6528 19.8576 16.2457 18.8522 16.2457C17.8468 16.2457 16.9388 16.6528 16.2813 17.3103C15.6238 17.9678 15.2167 18.8758 15.2167 19.8812C15.2167 20.8866 15.6238 21.7981 16.2778 22.4521L16.2813 22.4556C16.9353 23.1096 17.8468 23.5166 18.8522 23.5166C19.8576 23.5166 20.7656 23.1096 21.4231 22.4521C22.0806 21.7946 22.4876 20.8866 22.4876 19.8812C22.4876 18.8758 22.0806 17.9643 21.4266 17.3068ZM23.1243 37.307L23.1069 34.3012C23.1069 33.8872 23.4408 33.5498 23.8548 33.5498C24.2688 33.5498 24.6063 33.8837 24.6063 34.2977L24.6237 37.307H26.878V31.4763C26.878 30.1718 26.4466 28.9646 25.716 27.994C25.0481 27.1034 24.1297 26.4076 23.0721 26.011C22.5502 26.4528 21.9554 26.8146 21.3152 27.0721C20.5534 27.3817 19.7219 27.5521 18.8557 27.5521C17.9859 27.5521 17.1545 27.3817 16.3961 27.0721C15.756 26.8111 15.1611 26.4493 14.6392 26.011C13.5817 26.4076 12.6632 27.1034 11.9953 27.994C11.2682 28.9646 10.8333 30.1718 10.8333 31.4763V37.307H13.0981L13.0807 34.3012C13.0807 33.8872 13.4147 33.5498 13.8287 33.5498C14.2426 33.5498 14.5801 33.8837 14.5801 34.2977L14.5975 37.307H23.1277H23.1243Z" fill="black" fill-opacity="0.8"/>
<path fill-rule="evenodd" clip-rule="evenodd" d="M7.91064 18.6468C8.82907 18.6468 9.66053 19.019 10.2624 19.6209L10.2659 19.6244C10.8677 20.2262 11.2399 21.0577 11.2399 21.9761C11.2399 22.8945 10.8677 23.7295 10.2659 24.3313C10.3424 24.3278 10.4189 24.3383 10.4955 24.3626C11.2273 24.5785 11.8875 24.9737 12.4216 25.4939C12.0099 25.7867 11.6294 26.1207 11.2864 26.4894C10.9423 26.1792 10.5294 25.9426 10.078 25.8098C9.6814 25.695 9.45179 25.2776 9.57007 24.8775L9.56659 24.8705C9.07955 25.1488 8.51249 25.3124 7.91064 25.3124C7.30879 25.3124 6.74173 25.1523 6.25121 24.8671V24.8705C6.36601 25.2671 6.13988 25.6846 5.74329 25.8029C5.08926 25.9942 4.5222 26.4012 4.12212 26.9335C3.73597 27.4519 3.50288 28.0955 3.50288 28.7947V31.9118H4.21605L4.2091 30.4576C4.2091 30.0436 4.54307 29.7062 4.95706 29.7062C5.37105 29.7062 5.7085 30.0402 5.7085 30.4542L5.71546 31.9153H9.31794V33.4147H2.75144H2V32.6633V28.7947C2 27.765 2.34441 26.8048 2.92538 26.0325C3.5168 25.2428 4.35869 24.6444 5.32582 24.3626C5.40236 24.3383 5.48237 24.3313 5.55891 24.3313L5.55543 24.3278C4.95358 23.7225 4.57786 22.891 4.57786 21.9761C4.57786 21.0542 4.95358 20.2227 5.55543 19.6209C6.15728 19.019 6.99221 18.6468 7.91064 18.6468ZM9.20479 20.6854C8.8743 20.3584 8.41508 20.1532 7.91064 20.1532C7.4062 20.1532 6.94699 20.3584 6.61997 20.6889C6.28948 21.0194 6.08422 21.4786 6.08422 21.9796C6.08422 22.4875 6.28948 22.9432 6.61649 23.2702L6.61997 23.2737C6.94699 23.6007 7.4062 23.806 7.91064 23.806C8.41508 23.806 8.87082 23.6007 9.20131 23.2702C9.53181 22.9397 9.73706 22.484 9.73706 21.9796C9.73706 21.4751 9.53181 21.0159 9.20479 20.6854Z" fill="black" fill-opacity="0.8"/>
<path fill-rule="evenodd" clip-rule="evenodd" d="M18.7422 4.20361H36.7963V35.4975H28.3711V36.7011H36.7963C37.4611 36.7011 38 36.1622 38 35.4975V4.20361C38 3.53887 37.4611 3 36.7963 3H18.7422C18.0774 3 17.5386 3.53887 17.5386 4.20361V15.0361H18.7422V4.20361Z" fill="black" fill-opacity="0.8"/>
<path d="M29.5747 8.71728C29.5747 8.21873 29.9789 7.81458 30.4774 7.81458H32.2828C32.7814 7.81458 33.1855 8.21873 33.1855 8.71728C33.1855 9.21583 32.7814 9.61999 32.2828 9.61999H30.4774C29.9789 9.61999 29.5747 9.21583 29.5747 8.71728Z" fill="black" fill-opacity="0.8"/>
<path d="M29.5747 14.1334C29.5747 13.6349 29.9789 13.2307 30.4774 13.2307H32.2828C32.7814 13.2307 33.1855 13.6349 33.1855 14.1334C33.1855 14.632 32.7814 15.0361 32.2828 15.0361H30.4774C29.9789 15.0361 29.5747 14.632 29.5747 14.1334Z" fill="black" fill-opacity="0.8"/>
<path d="M29.5747 24.9659C29.5747 24.4674 29.9789 24.0632 30.4774 24.0632H32.2828C32.7814 24.0632 33.1855 24.4674 33.1855 24.9659C33.1855 25.4645 32.7814 25.8686 32.2828 25.8686H30.4774C29.9789 25.8686 29.5747 25.4645 29.5747 24.9659Z" fill="black" fill-opacity="0.8"/>
<path d="M29.5747 19.5496C29.5747 19.051 29.9789 18.6469 30.4774 18.6469H32.2828C32.7814 18.6469 33.1855 19.051 33.1855 19.5496C33.1855 20.0481 32.7814 20.4523 32.2828 20.4523H30.4774C29.9789 20.4523 29.5747 20.0481 29.5747 19.5496Z" fill="black" fill-opacity="0.8"/>
<path fill-rule="evenodd" clip-rule="evenodd" d="M22.6155 24.3295L22.9894 24.4377C23.9158 24.7102 24.7677 25.1619 25.504 25.7527C25.7785 25.5979 25.9638 25.3035 25.9638 24.9659C25.9638 24.4674 25.5597 24.0632 25.0611 24.0632H23.2557C23.0054 24.0632 22.779 24.1651 22.6155 24.3295Z" fill="black" fill-opacity="0.8"/>
<path fill-rule="evenodd" clip-rule="evenodd" d="M23.9628 20.4523C23.9839 20.2634 23.9947 20.0714 23.9947 19.8769C23.9947 19.4533 23.943 19.0413 23.8457 18.6469H25.0611C25.5597 18.6469 25.9638 19.051 25.9638 19.5496C25.9638 20.0481 25.5597 20.4523 25.0611 20.4523H23.9628Z" fill="black" fill-opacity="0.8"/>
<path d="M29.5747 30.3821C29.5747 29.8835 29.9789 29.4794 30.4774 29.4794H32.2828C32.7814 29.4794 33.1855 29.8835 33.1855 30.3821C33.1855 30.8806 32.7814 31.2848 32.2828 31.2848H30.4774C29.9789 31.2848 29.5747 30.8806 29.5747 30.3821Z" fill="black" fill-opacity="0.8"/>
<path d="M22.353 8.71728C22.353 8.21873 22.7572 7.81458 23.2557 7.81458H25.0612C25.5597 7.81458 25.9639 8.21873 25.9639 8.71728C25.9639 9.21583 25.5597 9.61999 25.0612 9.61999H23.2557C22.7572 9.61999 22.353 9.21583 22.353 8.71728Z" fill="black" fill-opacity="0.8"/>
<path d="M22.353 14.1334C22.353 13.6349 22.7572 13.2307 23.2557 13.2307H25.0612C25.5597 13.2307 25.9639 13.6349 25.9639 14.1334C25.9639 14.632 25.5597 15.0361 25.0612 15.0361H23.2557C22.7572 15.0361 22.353 14.632 22.353 14.1334Z" fill="black" fill-opacity="0.8"/>
</svg>
