<svg width="80" height="80" viewBox="0 0 80 80" fill="none" xmlns="http://www.w3.org/2000/svg">
<path d="M27.3609 52.2785V52.1898L27.2831 52.147C18.8174 47.4944 13.5958 38.7036 13.5958 28.9988C13.5958 14.4366 25.443 2.58921 40.005 2.58921C54.567 2.58921 66.4142 14.4366 66.4142 28.9988C66.4142 38.7036 61.1927 47.4944 52.7269 52.147L52.6491 52.1898V52.2785V59.0712V59.2212H52.65V67.1539H52.6421V67.3039V72.5816H45.1223H44.9809L44.9726 72.7227C44.8184 75.3337 42.6459 77.4107 39.9974 77.4107C37.3489 77.4107 35.1765 75.3337 35.0221 72.7227L35.0137 72.5816H34.8723H27.3476V64.6488H27.3552V64.4988V59.2212H27.3609V59.0712V52.2785ZM30.0104 61.7264H29.8604V61.8764V64.4988V64.6488H30.0104H49.9948H50.1448V64.4988V61.8764V61.7264H49.9948H30.0104ZM37.6918 72.5816H37.5192L37.5433 72.7526C37.6963 73.8373 38.6017 74.9057 39.9974 74.9057C41.2545 74.9057 42.2929 73.9649 42.4533 72.7513L42.4757 72.5816H42.3046H37.6918ZM49.987 70.0764H50.137V69.9264V67.304V67.154H49.987H30.0028H29.8528V67.304V69.9264V70.0764H30.0028H49.987ZM49.994 59.1441H50.144V58.9941V50.6658L50.8287 50.3173C58.8967 46.2128 63.909 38.0434 63.909 28.9988C63.909 15.8177 53.1859 5.0945 40.005 5.0945C26.8242 5.0945 16.101 15.8177 16.101 28.9988C16.101 38.0434 21.1134 46.2128 29.1814 50.3173L29.8661 50.6658V58.9941V59.1441H30.0161H38.5973H38.7473V58.9941V38.2667V38.2045L38.7034 38.1606L30.3834 29.8402C29.8943 29.3511 29.8942 28.5581 30.3836 28.0688L30.2775 27.9627L30.3836 28.0688C30.8727 27.5797 31.6659 27.5798 32.155 28.069L39.8939 35.8083L40 35.9143L40.106 35.8083L47.845 28.0689C48.3342 27.5796 49.1274 27.5798 49.6163 28.0687C50.1057 28.5581 50.1056 29.3511 49.6165 29.8402L41.2965 38.1606L41.2526 38.2045V38.2667V58.9941V59.1441H41.4026H49.994Z" fill="black" fill-opacity="0.8" stroke="white" stroke-width="0.3"/>
<path d="M46.1546 12.346C46.1546 11.6541 46.7154 11.0934 47.4072 11.0934C49.1424 11.0934 51.6547 11.9862 53.7342 13.7469C55.8089 15.5036 57.4397 18.113 57.4398 21.5387C57.4398 22.2306 56.879 22.7913 56.1871 22.7913C55.4953 22.7913 54.9346 22.2306 54.9346 21.5387C54.9346 18.9133 53.6126 16.9266 52.0192 15.6009C50.4315 14.2799 48.5544 13.5986 47.4072 13.5986C46.7154 13.5986 46.1546 13.0378 46.1546 12.346Z" fill="black" fill-opacity="0.8" stroke="white" stroke-width="0.3"/>
<path d="M7.90092 30.431C8.59274 30.431 9.15349 30.9918 9.15349 31.6836C9.15349 32.3754 8.59274 32.9362 7.90092 32.9362H1.54149C0.84967 32.9362 0.288916 32.3754 0.288916 31.6836C0.288916 30.9918 0.84967 30.431 1.54149 30.431H7.90092Z" fill="black" fill-opacity="0.8" stroke="white" stroke-width="0.3"/>
<path d="M11.6622 11.4604L11.6622 11.4604L7.16585 6.96375L7.27192 6.85768L7.16585 6.96374C6.67697 6.47483 5.88373 6.47463 5.39443 6.96357L11.6622 11.4604ZM11.6622 11.4604C12.1514 11.9494 12.1514 12.7424 11.662 13.2317L11.6622 11.4604ZM5.39425 8.73499L5.39425 8.73499L9.89061 13.2316C9.89061 13.2316 9.89061 13.2316 9.89062 13.2316C10.1353 13.4762 10.4556 13.5985 10.7764 13.5985C11.0971 13.5985 11.4175 13.4762 11.662 13.2317L5.39425 8.73499ZM5.39425 8.73499C4.90517 8.24591 4.90513 7.45291 5.3944 6.9636L5.39425 8.73499Z" fill="black" fill-opacity="0.8" stroke="white" stroke-width="0.3"/>
<path d="M7.16558 56.4038L7.16563 56.4037L11.6625 51.9071C11.6625 51.9071 11.6625 51.9071 11.6625 51.9071C12.1518 51.4178 12.1517 50.6248 11.6627 50.1359L11.6626 50.1359C11.1736 49.6466 10.3803 49.6466 9.89122 50.1354C9.89121 50.1355 9.89121 50.1355 9.8912 50.1355L5.39443 54.6321C4.90514 55.1214 4.90514 55.9144 5.39425 56.4037L7.16558 56.4038ZM7.16558 56.4038C6.92113 56.6484 6.60074 56.7707 6.28005 56.7707C5.95917 56.7707 5.63898 56.6484 5.39427 56.4037L7.16558 56.4038Z" fill="black" fill-opacity="0.8" stroke="white" stroke-width="0.3"/>
<path d="M72.0992 30.431H78.4584C79.1502 30.431 79.711 30.9918 79.711 31.6836C79.711 32.3754 79.1502 32.9362 78.4584 32.9362H72.0992C71.4073 32.9362 70.8465 32.3754 70.8465 31.6836C70.8465 30.9918 71.4073 30.431 72.0992 30.431Z" fill="black" fill-opacity="0.8" stroke="white" stroke-width="0.3"/>
<path d="M70.1088 13.2317L70.1088 13.2317C69.8641 13.4762 69.5437 13.5985 69.223 13.5985C68.9023 13.5985 68.5819 13.4762 68.3372 13.2317C67.848 12.7425 67.848 11.9495 68.3371 11.4601C68.3372 11.4601 68.3372 11.4601 68.3372 11.4601L72.8337 6.96358C73.3231 6.47459 74.1161 6.47459 74.6055 6.96358C75.0945 7.45287 75.0945 8.24586 74.6054 8.73514C74.6054 8.73515 74.6054 8.73515 74.6054 8.73516L70.1088 13.2317Z" fill="black" fill-opacity="0.8" stroke="white" stroke-width="0.3"/>
<path d="M70.1085 50.1354L70.1085 50.1354C69.6197 49.6466 68.8265 49.6465 68.3371 50.1359L68.3371 50.1359C67.848 50.6248 67.848 51.4178 68.3373 51.9071L68.3373 51.9071L72.8341 56.4037L72.8342 56.4038C73.0786 56.6484 73.399 56.7707 73.7197 56.7707C74.0404 56.7707 74.3608 56.6484 74.6055 56.4037L70.1085 50.1354ZM70.1085 50.1354L74.6053 54.6321C75.0946 55.1214 75.0946 55.9144 74.6055 56.4037L70.1085 50.1354Z" fill="black" fill-opacity="0.8" stroke="white" stroke-width="0.3"/>
</svg>
