<svg width="40" height="40" viewBox="0 0 40 40" fill="none" xmlns="http://www.w3.org/2000/svg">
<g clip-path="url(#clip0)">
<path d="M39.6393 23.9908C38.4706 22.3628 37.2859 22.3368 34.3198 23.8975L28.5709 27.4123C27.7189 27.8656 25.9702 28.0016 24.2741 28.0303C24.5755 27.4029 24.4408 26.6542 23.8715 25.8035C23.3441 25.0169 22.6261 24.3915 21.7927 23.9641C23.1741 22.8414 24.0008 21.1701 24.0008 19.3333C24.0008 16.0252 21.3094 13.3331 18.0006 13.3331C14.6918 13.3331 12.0004 16.0252 12.0004 19.3333C12.0004 20.3207 12.2457 21.2634 12.6851 22.1041C12.6764 22.0981 12.6671 22.0928 12.6591 22.0861C10.2657 20.2814 6.26687 20.0267 4.66749 19.9994V17.9813H0V39.334H4.66682V37.3339H13.3338C14.6938 37.3339 16.0659 37.2299 17.4112 37.0259L26.0535 35.7119C26.3682 35.7079 26.6869 35.6705 26.9709 35.6065C27.7669 35.4945 28.5276 35.1145 29.1723 34.5065L39.2773 26.6369L39.2926 26.6242C40.08 25.9729 40.232 24.8155 39.6393 23.9908ZM15.4472 23.2328C14.1211 22.3648 13.3338 20.9167 13.3338 19.3333C13.3338 16.7599 15.4278 14.6665 18.0006 14.6665C20.5733 14.6665 22.6674 16.7599 22.6674 19.3333C22.6674 21.0574 21.7401 22.6061 20.2327 23.4261C20.15 23.4101 20.066 23.4021 19.9827 23.3895C19.8993 23.3768 19.8173 23.3621 19.7327 23.3528C19.516 23.3288 19.298 23.3141 19.0793 23.3141H16.4792C16.1439 23.3148 15.7972 23.2875 15.4472 23.2328ZM3.33344 38.0006H1.33338V19.3147H3.33344V20.022V37.3346V38.0006ZM38.4493 25.5922L28.3269 33.4745L28.2756 33.5191C27.8289 33.9465 27.3136 34.2118 26.7196 34.2978C26.4769 34.3518 26.2349 34.3792 26.0009 34.3792L17.2106 35.7079C15.9312 35.9025 14.6265 36.0012 13.3338 36.0012H4.66682V21.3347C6.14487 21.3654 9.80433 21.6041 11.8564 23.1508C12.7471 23.8228 13.8145 24.2788 14.9532 24.4975L14.9632 24.5035L15.0898 24.5255C15.0965 24.5268 15.1025 24.5268 15.1092 24.5282C15.3278 24.5655 15.5492 24.5955 15.7725 24.6148C15.7799 24.6155 15.7872 24.6168 15.7939 24.6175C16.0205 24.6368 16.2485 24.6482 16.4785 24.6482H19.0786C19.4453 24.6482 19.812 24.6915 20.168 24.7768L20.2107 24.7875C21.2594 25.0475 22.1707 25.6642 22.7621 26.5462C23.0428 26.9643 23.1534 27.3116 23.0594 27.4749C22.8814 27.7829 22.0554 27.9723 21.2174 28.009C20.9447 28.0043 20.696 28.001 20.478 28.001H14.0005C11.9131 28.001 10.667 28.9977 10.667 30.6677C10.667 31.0357 10.965 31.3344 11.3337 31.3344C11.7024 31.3344 12.0004 31.0357 12.0004 30.6677C12.0004 30.3377 12.0004 29.3343 14.0005 29.3343H20.4633C20.6147 29.3437 20.9054 29.3563 21.2714 29.343C21.386 29.345 21.5047 29.347 21.6261 29.349C24.7548 29.407 27.6889 29.391 29.2316 28.5696L34.9772 25.0562C37.7266 23.6115 38.0033 23.9988 38.5553 24.7682C38.74 25.0242 38.6926 25.3849 38.4493 25.5922Z" fill="#DEC377"/>
<path d="M21.3341 19.3333C21.3341 17.4953 19.8387 15.9999 18.0007 15.9999C16.1626 15.9999 14.6672 17.4953 14.6672 19.3333C14.6672 21.1714 16.1626 22.6668 18.0007 22.6668C19.8387 22.6668 21.3341 21.1714 21.3341 19.3333ZM18.0007 21.3334C16.898 21.3334 16.0006 20.436 16.0006 19.3333C16.0006 18.2306 16.898 17.3333 18.0007 17.3333C19.1034 17.3333 20.0007 18.2306 20.0007 19.3333C20.0007 20.436 19.1034 21.3334 18.0007 21.3334Z" fill="#DEC377"/>
<path d="M28.0009 12.6664C31.3097 12.6664 34.0011 9.97432 34.0011 6.66621C34.0011 3.35811 31.3097 0.666016 28.0009 0.666016C24.6922 0.666016 22.0007 3.35811 22.0007 6.66621C22.0007 9.97432 24.6922 12.6664 28.0009 12.6664ZM28.0009 1.99939C30.5737 1.99939 32.6678 4.0928 32.6678 6.66621C32.6678 9.23963 30.5737 11.333 28.0009 11.333C25.4282 11.333 23.3341 9.23963 23.3341 6.66621C23.3341 4.0928 25.4282 1.99939 28.0009 1.99939Z" fill="#DEC377"/>
<path d="M28.0009 9.99965C29.839 9.99965 31.3344 8.50427 31.3344 6.66621C31.3344 4.82815 29.839 3.33276 28.0009 3.33276C26.1629 3.33276 24.6675 4.82815 24.6675 6.66621C24.6675 8.50427 26.1629 9.99965 28.0009 9.99965ZM28.0009 4.66614C29.1036 4.66614 30.001 5.5635 30.001 6.66621C30.001 7.76891 29.1036 8.66627 28.0009 8.66627C26.8982 8.66627 26.0009 7.76891 26.0009 6.66621C26.0009 5.5635 26.8982 4.66614 28.0009 4.66614Z" fill="#DEC377"/>
</g>
<defs>
<clipPath id="clip0">
<rect width="40" height="40" fill="white"/>
</clipPath>
</defs>
</svg>
