<svg width="40" height="40" viewBox="0 0 40 40" fill="none" xmlns="http://www.w3.org/2000/svg">
<path d="M40 11.162H34.0459V8.59829H17.8262L15.9034 3.47095H2V34.8759H34.0459V34.3164L40 11.162ZM38.3464 12.4438L34.0459 29.1692V12.4438H38.3464ZM3.28184 4.75278H15.0151L16.9379 9.88012H32.764V11.162V33.5941H3.28184V4.75278Z" fill="#DEC377"/>
<path d="M5.84546 31.0303H21.2275V21.4166H5.84546V31.0303ZM7.12729 22.6984H19.9456V29.7485H7.12729V22.6984Z" fill="#DEC377"/>
<path d="M14.8184 27.185H9.0501C8.69567 27.185 8.40918 27.4715 8.40918 27.8259C8.40918 28.1803 8.69567 28.4668 9.0501 28.4668H14.8184C15.1728 28.4668 15.4593 28.1803 15.4593 27.8259C15.4593 27.4715 15.1728 27.185 14.8184 27.185Z" fill="#DEC377"/>
<path d="M9.0501 25.2622H11.6138C11.9682 25.2622 12.2547 24.9757 12.2547 24.6213C12.2547 24.2668 11.9682 23.9803 11.6138 23.9803H9.0501C8.69567 23.9803 8.40918 24.2668 8.40918 24.6213C8.40918 24.9757 8.69567 25.2622 9.0501 25.2622Z" fill="#DEC377"/>
<path d="M18.0229 23.9803H16.741C16.3866 23.9803 16.1001 24.2668 16.1001 24.6213C16.1001 24.9757 16.3866 25.2622 16.741 25.2622H18.0229C18.3773 25.2622 18.6638 24.9757 18.6638 24.6213C18.6638 24.2668 18.3773 23.9803 18.0229 23.9803Z" fill="#DEC377"/>
<path d="M16.9271 27.3707C16.8111 27.4919 16.7412 27.6521 16.7412 27.8258C16.7412 27.9988 16.8111 28.1591 16.9271 28.2744C17.0482 28.3956 17.2084 28.4667 17.3821 28.4667C17.5488 28.4667 17.7154 28.3962 17.8372 28.2808C17.9525 28.1591 18.023 27.9924 18.023 27.8258C18.023 27.6591 17.9525 27.4919 17.8372 27.3707C17.6 27.1336 17.1642 27.1336 16.9271 27.3707Z" fill="#DEC377"/>
<path d="M14.1775 25.2621C14.3442 25.2621 14.5108 25.1916 14.6326 25.0762C14.748 24.9545 14.8185 24.7878 14.8185 24.6212C14.8185 24.4475 14.748 24.2873 14.6326 24.1661C14.3955 23.929 13.9526 23.929 13.7225 24.1661C13.6065 24.2873 13.5366 24.4545 13.5366 24.6212C13.5366 24.7878 13.6065 24.9545 13.7225 25.0762C13.8436 25.1916 14.0109 25.2621 14.1775 25.2621Z" fill="#DEC377"/>
</svg>
