<svg width="80" height="80" viewBox="0 0 80 80" fill="none" xmlns="http://www.w3.org/2000/svg">
<path d="M68.5539 23.4615L73.7231 18.2922C75.077 16.9384 75.077 14.8461 73.7231 13.4922L68.5539 8.32299C68.1847 7.95376 67.8154 7.70761 67.4462 7.58453C67.077 7.46146 66.5847 7.33838 66.2154 7.33838C65.3539 7.33838 64.4923 7.70761 63.877 8.32299L58.7077 13.4922L13.2923 58.6614C13.1693 58.7845 13.1693 58.9076 13.0462 59.0307L8.61542 72.0768C8.49235 72.4461 8.61542 72.8153 8.86158 73.0615C9.10773 73.1845 9.35388 73.3076 9.60004 73.3076C9.72311 73.3076 9.84619 73.3076 9.84619 73.3076L22.8923 68.9999C23.0154 68.9999 23.1385 68.8768 23.2616 68.7538L68.5539 23.4615ZM22.6462 66.7845L19.5693 63.7076L63.5077 19.7691L66.5847 22.8461L22.6462 66.7845ZM14.277 60.9999L17.6 64.323L20.9231 67.6461L17.6 68.7538L13.1693 64.323L14.277 60.9999ZM64.9847 9.55376C65.6 8.93838 66.5847 8.93838 67.2 9.55376L72.3693 14.723C72.9847 15.3384 72.9847 16.323 72.3693 16.9384L67.8154 21.4922L64.1231 17.7999L60.4308 14.1076L64.9847 9.55376ZM59.2 15.3384L62.277 18.4153L18.2154 62.3538L15.1385 59.2768L59.2 15.3384ZM12.5539 66.2922L15.6308 69.3691L10.9539 70.9691L12.5539 66.2922Z" fill="black" fill-opacity="0.8"/>
<path d="M78.154 32.3228H64.2463C63.754 32.3228 63.2617 32.692 63.2617 33.3074C63.2617 33.9228 63.6309 34.292 64.2463 34.292H78.154C78.6463 34.292 79.1386 33.9228 79.1386 33.3074C79.1386 32.692 78.6463 32.3228 78.154 32.3228Z" fill="black" fill-opacity="0.8"/>
<path d="M1.84619 46.4766H20.677C21.1693 46.4766 21.6616 46.1074 21.6616 45.492C21.6616 44.8766 21.2923 44.5074 20.677 44.5074H1.84619C1.35388 44.5074 0.861572 44.8766 0.861572 45.492C0.861572 46.1074 1.35388 46.4766 1.84619 46.4766Z" fill="black" fill-opacity="0.8"/>
<path d="M78.1541 44.6302H51.9387C51.4464 44.6302 50.9541 44.9995 50.9541 45.6149C50.9541 46.2302 51.3233 46.5995 51.9387 46.5995H78.1541C78.6464 46.5995 79.1387 46.2302 79.1387 45.6149C79.1387 44.9995 78.6464 44.6302 78.1541 44.6302Z" fill="black" fill-opacity="0.8"/>
<path d="M78.1542 56.938H39.6311C39.1388 56.938 38.6465 57.3072 38.6465 57.9226C38.6465 58.538 39.0157 58.9072 39.6311 58.9072H78.1542C78.6465 58.9072 79.1388 58.538 79.1388 57.9226C79.1388 57.3072 78.6465 56.938 78.1542 56.938Z" fill="black" fill-opacity="0.8"/>
<path d="M24 9.55334H57.6C58.0923 9.55334 58.5846 9.18411 58.5846 8.56872C58.5846 7.95334 58.2154 7.58411 57.6 7.58411H24C23.5077 7.58411 23.0154 7.95334 23.0154 8.56872C23.0154 9.18411 23.5077 9.55334 24 9.55334Z" fill="black" fill-opacity="0.8"/>
<path d="M15.1794 21.8617H41.0256C41.5179 21.8617 42.0102 21.4925 42.0102 20.8771C42.0102 20.2617 41.641 19.8925 41.0256 19.8925H15.1794C14.6871 19.8925 14.1948 20.2617 14.1948 20.8771C14.1948 21.4925 14.6871 21.8617 15.1794 21.8617Z" fill="black" fill-opacity="0.8"/>
<path d="M1.84619 34.1691H32.9847C33.477 34.1691 33.9693 33.7998 33.9693 33.1844C33.9693 32.5691 33.6 32.1998 32.9847 32.1998H1.84619C1.35388 32.1998 0.861572 32.5691 0.861572 33.1844C0.861572 33.7998 1.35388 34.1691 1.84619 34.1691Z" fill="black" fill-opacity="0.8"/>
<path d="M57.2307 69.246H27.323C26.8307 69.246 26.3384 69.6153 26.3384 70.2306C26.3384 70.846 26.7076 71.2153 27.323 71.2153H57.2307C57.723 71.2153 58.2153 70.846 58.2153 70.2306C58.2153 69.6153 57.723 69.246 57.2307 69.246Z" fill="black" fill-opacity="0.8"/>
</svg>
