<svg width="40" height="40" viewBox="0 0 40 40" fill="none" xmlns="http://www.w3.org/2000/svg">
<path d="M26.1588 16.7957C28.6058 17.4933 30.7282 18.9553 32.2257 20.8909C33.6913 22.7851 34.5621 25.1346 34.5621 27.6679V38.4058V39H33.968H4.41325H3.81909V38.4058V27.6679C3.81909 25.134 4.68993 22.7851 6.15552 20.8909C7.65303 18.9553 9.77544 17.4933 12.2224 16.7957L12.5458 16.7029L12.7906 16.934C13.6307 17.7257 14.6298 18.3641 15.7359 18.7987C16.7989 19.2167 17.9665 19.4478 19.1903 19.4478C20.4141 19.4478 21.5817 19.2167 22.6447 18.7987C23.7508 18.3641 24.75 17.7257 25.59 16.934L25.8348 16.7029L26.1582 16.7957H26.1588ZM28.1009 37.8123L28.0997 32.4678C28.0997 32.1415 28.3646 31.8766 28.6909 31.8766C29.0172 31.8766 29.2821 32.1415 29.2821 32.4678L29.2833 37.8123H33.3744V27.6685C33.3744 25.4042 32.597 23.306 31.2886 21.6152C30.0081 19.9604 28.2162 18.6899 26.147 18.0301C25.2531 18.8176 24.2155 19.4567 23.0774 19.903C21.8755 20.3754 20.5625 20.6367 19.1909 20.6367C17.8193 20.6367 16.5063 20.376 15.3043 19.903C14.1663 19.4561 13.1287 18.8176 12.2348 18.0301C10.1656 18.6899 8.3737 19.9598 7.09316 21.6152C5.78542 23.306 5.0074 25.4042 5.0074 27.6685V37.8123H9.10029L9.0991 32.4678C9.0991 32.1415 9.36396 31.8766 9.6903 31.8766C10.0166 31.8766 10.2815 32.1415 10.2815 32.4678L10.2827 37.8123H28.1009ZM22.7535 25.9368H27.4476V27.1246H22.7535V25.9368ZM19.1022 22.3749L17.4409 32.8976L19.1909 35.0857L20.942 32.8976L19.2802 22.3749H19.1028H19.1022ZM16.2319 32.9715L18.0132 21.6902L18.093 21.1865H18.5973H19.7845H20.2888L20.3686 21.6902L22.1504 32.9715L22.1906 33.2269L22.0281 33.4309L19.652 36.3993L19.1903 36.9757L18.7286 36.3993L16.3543 33.4309L16.1917 33.2269L16.2319 32.9715ZM19.1915 1C21.3908 1 23.3843 1.86611 24.8292 3.26607C26.277 4.6684 27.1745 6.6099 27.1745 8.75241C27.1745 10.8949 26.2776 12.8358 24.8292 14.2388C23.3843 15.6387 21.3908 16.5048 19.1915 16.5048C16.9922 16.5048 14.9987 15.6387 13.5538 14.2388C12.1059 12.8364 11.2085 10.8949 11.2085 8.75241C11.2085 6.6099 12.1054 4.66899 13.5538 3.26607C14.9987 1.86611 16.9922 1 19.1915 1ZM24.0027 4.11444C22.7748 2.92436 21.0733 2.18831 19.1915 2.18831C17.3091 2.18831 15.6082 2.92436 14.3803 4.11444C13.1553 5.30098 12.3968 6.94216 12.3968 8.75182C12.3968 10.5621 13.1547 12.2027 14.3803 13.3892C15.6082 14.5793 17.3097 15.3153 19.1915 15.3153C21.0739 15.3153 22.7748 14.5793 24.0027 13.3892C25.2276 12.2027 25.9862 10.5615 25.9862 8.75182C25.9862 6.94156 25.2282 5.30098 24.0027 4.11444Z" fill="black" fill-opacity="0.8"/>
<path d="M26.1797 16.6457L26.1999 16.6514C28.6779 17.3579 30.8274 18.8385 32.3443 20.7992C33.8291 22.7182 34.7121 25.0995 34.7121 27.6679V38.4058V39V39.15H34.5621H33.968H4.41325H3.81909H3.66909V39V38.4058V27.6679C3.66909 25.0989 4.5521 22.7182 6.03688 20.7991C7.55376 18.8385 9.70315 17.358 12.181 16.6515C12.1811 16.6515 12.1812 16.6515 12.1813 16.6514L12.5044 16.5587L12.5866 16.5351L12.6488 16.5938L12.8934 16.8249L26.1797 16.6457ZM26.1797 16.6457H26.1793M26.1797 16.6457H26.1793M26.1793 16.6457L25.8762 16.5587L25.794 16.5351L25.7318 16.5938L25.4872 16.8249C24.6609 17.6034 23.6781 18.2316 22.5898 18.6591L22.5898 18.6591C21.5441 19.0703 20.3951 19.2978 19.1903 19.2978C17.9855 19.2978 16.8365 19.0703 15.7908 18.6591L15.7908 18.6591C14.7026 18.2316 13.7198 17.6035 12.8936 16.825L26.1793 16.6457ZM27.9497 32.4679L27.9508 37.6623H10.4327L10.4315 32.4678C10.4315 32.4678 10.4315 32.4678 10.4315 32.4678C10.4315 32.0586 10.0995 31.7266 9.6903 31.7266C9.28112 31.7266 8.9491 32.0586 8.9491 32.4678V32.4679L8.95025 37.6623H5.1574V27.6685C5.1574 25.4392 5.92326 23.373 7.2118 21.7069C8.4572 20.097 10.1939 18.8565 12.2001 18.199C13.0923 18.9721 14.1223 19.6 15.2495 20.0427C16.4686 20.5224 17.8002 20.7867 19.1909 20.7867C20.5816 20.7867 21.9133 20.5217 23.1323 20.0426C24.2595 19.6005 25.2896 18.972 26.1817 18.199C28.1879 18.8565 29.9246 20.0976 31.17 21.707C32.4591 23.3729 33.2244 25.4392 33.2244 27.6685V37.6623H29.4332L29.4321 32.4678C29.4321 32.4678 29.4321 32.4678 29.4321 32.4678C29.4321 32.0586 29.1001 31.7266 28.6909 31.7266C28.2817 31.7266 27.9497 32.0586 27.9497 32.4678V32.4679ZM22.7535 25.7868H22.6035V25.9368V27.1246V27.2746H22.7535H27.4476H27.5976V27.1246V25.9368V25.7868H27.4476H22.7535ZM16.0838 32.9481L16.0838 32.9482L16.0436 33.2036L16.0333 33.2688L16.0744 33.3204L16.237 33.5244L16.2372 33.5246L18.6114 36.493L18.6115 36.4931L19.0732 37.0695L19.1903 37.2157L19.3074 37.0695L19.7691 36.4931L19.7691 36.493L22.1452 33.5246L22.1454 33.5244L22.3079 33.3204L22.3491 33.2688L22.3388 33.2036L22.2986 32.9482L22.2986 32.9481L20.5167 21.6668L20.5167 21.6668L20.4369 21.1631L20.4169 21.0365H20.2888H19.7845H18.5973H18.093H17.9649L17.9449 21.1631L17.8651 21.6668L17.8651 21.6668L16.0838 32.9481ZM23.8983 4.22216L23.8983 4.22221C25.0964 5.38217 25.8362 6.98453 25.8362 8.75182C25.8362 10.5185 25.0959 12.1215 23.8983 13.2815L23.8983 13.2815C22.6978 14.4449 21.0342 15.1653 19.1915 15.1653C17.3493 15.1653 15.6851 14.4449 14.4847 13.2815L14.4846 13.2814C13.2865 12.1215 12.5468 10.5191 12.5468 8.75182C12.5468 6.98514 13.2871 5.38217 14.4847 4.22219L14.4847 4.22216C15.6851 3.05871 17.3488 2.33831 19.1915 2.33831C21.0336 2.33831 22.6979 3.05871 23.8983 4.22216ZM17.5994 32.8556L19.1912 22.7731L20.7835 32.8556L19.1909 34.8456L17.5994 32.8556ZM27.3245 8.75241C27.3245 6.56694 26.4088 4.58723 24.9335 3.15832C23.4614 1.73197 21.4307 0.85 19.1915 0.85C16.9523 0.85 14.9216 1.73197 13.4494 3.15833C11.9735 4.58783 11.0585 6.56695 11.0585 8.75241C11.0585 10.9379 11.9741 12.9176 13.4494 14.3465C14.9216 15.7728 16.9523 16.6548 19.1915 16.6548C21.4307 16.6548 23.4614 15.7728 24.9336 14.3465C26.4094 12.917 27.3245 10.9379 27.3245 8.75241Z" stroke="black" stroke-opacity="0.8" stroke-width="0.3"/>
</svg>
