<svg width="40" height="40" viewBox="0 0 40 40" fill="none" xmlns="http://www.w3.org/2000/svg">
<path d="M36.8439 30.4219C36.6251 29.1719 35.8282 28.0937 34.7032 27.5312C31.672 26.0156 25.2501 23.8594 24.9688 23.7656C24.8907 23.7344 24.8126 23.7188 24.7188 23.7188H24.1563C23.922 23.7188 23.6876 23.8281 23.547 24.0312L21.7345 26.4531C21.6095 26.6094 21.5626 26.8281 21.5938 27.0156L23.297 38.75C23.3438 39.125 23.672 39.4062 24.0626 39.4062H36.7032C36.9063 39.4062 37.1095 39.3281 37.2501 39.1719C37.3907 39.0312 37.4689 38.8281 37.4689 38.625C37.4532 38.4375 37.3595 33.4687 36.8439 30.4219ZM24.7032 37.8906L23.1407 27.125L24.5313 25.2656H24.5782C25.4845 25.5781 31.2813 27.5625 33.9845 28.9062C34.672 29.25 35.172 29.9219 35.297 30.6875C35.672 32.9219 35.8282 36.3594 35.8751 37.8906H24.7032Z" fill="black" fill-opacity="0.8"/>
<path d="M16.4531 24.0468C16.3125 23.8593 16.0781 23.7343 15.8437 23.7343H15.2812C15.2031 23.7343 15.1094 23.7499 15.0312 23.7811C14.7656 23.8749 8.32812 26.0311 5.29687 27.5468C4.17188 28.1093 3.35937 29.1874 3.15625 30.4374C2.64062 33.4686 2.54687 38.4374 2.53125 38.6561C2.53125 38.8593 2.60937 39.0624 2.75 39.203C2.89062 39.3436 3.09375 39.4374 3.29687 39.4374H15.9375C16.3125 39.4374 16.6406 39.1561 16.7031 38.7811L18.4062 27.0468C18.4375 26.8436 18.3906 26.6405 18.2656 26.4843L16.4531 24.0468ZM15.2969 37.8905H4.09375C4.14062 36.3593 4.28125 32.9218 4.67187 30.6874C4.8125 29.9218 5.29687 29.2499 6 28.9061C8.71875 27.5468 14.5156 25.5624 15.4219 25.2655H15.4687L16.8594 27.1249L15.2969 37.8905Z" fill="black" fill-opacity="0.8"/>
<path d="M28.9998 11.9999C28.9998 13.7042 28.5262 15.297 27.7037 16.6561C27.4118 17.1394 27.0751 17.5924 26.6996 18.0103C25.4265 19.4287 23.7101 20.4402 21.7672 20.8266C21.216 20.9368 20.6467 20.9962 20.0641 20.9998C17.3847 21.018 14.9682 19.8588 13.3051 18.0079C11.8758 16.4175 11.0036 14.3159 11 12.0144C10.9964 9.69844 11.8673 7.58716 13.3015 5.98947C13.6624 5.58732 14.0585 5.21787 14.4861 4.88719C14.6642 4.7491 14.8471 4.61707 15.0348 4.49231C16.4569 3.54872 18.1648 3 19.9999 3C20.8115 3 21.5976 3.1078 22.345 3.30888C22.8392 3.44212 23.3164 3.61534 23.7731 3.82731C24.2091 4.02839 24.6258 4.26459 25.0207 4.52986C25.3696 4.76485 25.7015 5.02407 26.0128 5.30388C26.2538 5.5207 26.4827 5.74963 26.6983 5.98947C28.1301 7.58232 28.9998 9.68996 28.9998 11.9999Z" stroke="black" stroke-opacity="0.8" stroke-miterlimit="10" stroke-linecap="round" stroke-linejoin="round"/>
<path d="M11.0037 12H28.9962" stroke="black" stroke-opacity="0.8" stroke-miterlimit="10" stroke-linecap="round" stroke-linejoin="round"/>
<path d="M19.9999 20.9961C22.8009 20.9961 25.0716 16.9683 25.0716 11.9998C25.0716 7.0313 22.8009 3.00354 19.9999 3.00354C17.1989 3.00354 14.9282 7.0313 14.9282 11.9998C14.9282 16.9683 17.1989 20.9961 19.9999 20.9961Z" stroke="black" stroke-opacity="0.8" stroke-miterlimit="10" stroke-linecap="round" stroke-linejoin="round"/>
<path d="M20 20.9961V3.00354" stroke="black" stroke-opacity="0.8" stroke-miterlimit="10" stroke-linecap="round" stroke-linejoin="round"/>
<path d="M26.6996 5.98947C26.0213 6.43886 25.1927 6.8192 24.2564 7.10749C22.9991 7.49389 21.5468 7.71556 19.9999 7.71556C18.4531 7.71556 17.0008 7.49389 15.7435 7.10749C14.8071 6.8192 13.9786 6.43886 13.3003 5.98947C13.6613 5.58732 14.0574 5.21787 14.4849 4.88719C14.663 4.7491 14.8459 4.61707 15.0337 4.49231C16.4569 3.54872 18.1648 3 19.9999 3C20.8115 3 21.5976 3.1078 22.345 3.30888C22.8392 3.44212 23.3165 3.61534 23.7731 3.82731C24.2092 4.02839 24.6259 4.26459 25.0207 4.52986C25.3696 4.76485 25.7015 5.02407 26.0128 5.30388C26.2538 5.51949 26.4828 5.74842 26.6996 5.98947V5.98947Z" stroke="black" stroke-opacity="0.8" stroke-miterlimit="10" stroke-linecap="round" stroke-linejoin="round"/>
<path d="M26.6996 18.0103C25.4266 19.4288 23.7102 20.4402 21.7673 20.8266C21.2161 20.9368 20.6468 20.9962 20.0642 20.9998C17.3848 21.018 14.9683 19.8588 13.3052 18.0079C13.9823 17.5597 14.8096 17.1806 15.7435 16.8923C17.0008 16.5059 18.4532 16.2842 20 16.2842C21.5468 16.2842 22.9991 16.5047 24.2565 16.8923C25.1928 17.1806 26.0213 17.5609 26.6996 18.0103Z" stroke="black" stroke-opacity="0.8" stroke-miterlimit="10" stroke-linecap="round" stroke-linejoin="round"/>
</svg>
