<svg width="80" height="80" viewBox="0 0 80 80" fill="none" xmlns="http://www.w3.org/2000/svg">
<path d="M39.9998 33.477C40.4921 33.477 40.9845 33.1078 40.9845 32.4924C40.9845 31.877 40.6152 31.5078 39.9998 31.5078C35.446 31.5078 31.6306 35.2001 31.6306 39.877C31.6306 44.5539 35.3229 48.2462 39.9998 48.2462C44.6768 48.2462 48.3691 44.5539 48.3691 39.877C48.3691 39.3847 47.9998 38.8924 47.3845 38.8924C46.7691 38.8924 46.3998 39.2616 46.3998 39.877C46.3998 43.4462 43.446 46.4001 39.8768 46.4001C36.3075 46.4001 33.3537 43.4462 33.3537 39.877C33.3537 36.3078 36.4306 33.477 39.9998 33.477Z" fill="black" fill-opacity="0.8"/>
<path d="M66.2152 19.4462C65.846 19.6924 65.7229 20.3077 65.969 20.677C70.1536 26.2154 72.246 32.8616 72.246 39.877C72.246 57.8462 57.846 72.2462 39.9998 72.2462C22.1537 72.2462 7.63058 57.8462 7.63058 40.0001C7.63058 22.1539 22.1537 7.63082 39.9998 7.63082C47.0152 7.63082 53.6613 9.84621 59.1998 13.9077C59.569 14.1539 60.1844 14.1539 60.4306 13.6616C60.6767 13.2924 60.6767 12.677 60.1844 12.4308C54.2767 8.00005 47.2613 5.78467 39.8767 5.78467C21.169 5.78467 5.78442 21.1693 5.78442 40.0001C5.78442 58.8308 21.046 74.2154 39.9998 74.2154C58.9537 74.2154 74.2152 58.9539 74.2152 40.0001C74.2152 32.6154 71.8767 25.6001 67.569 19.6924C67.1998 19.3231 66.5844 19.2001 66.2152 19.4462Z" fill="black" fill-opacity="0.8"/>
<path d="M54.3999 19.9385C54.646 19.5693 54.5229 18.9539 54.1537 18.7077C49.9691 15.877 45.1691 14.5231 40.1229 14.5231C26.0922 14.5231 14.5229 25.9693 14.5229 40.1231C14.5229 54.277 25.9691 65.7231 40.1229 65.7231C54.2768 65.7231 65.7229 54.277 65.7229 40.1231C65.7229 35.077 64.246 30.277 61.5383 26.0924C61.2922 25.7231 60.6768 25.6001 60.3076 25.8462C59.9383 26.0924 59.8153 26.7077 60.0614 27.077C62.646 30.8924 63.9999 35.4462 63.9999 40.1231C63.9999 53.1693 53.4153 63.877 40.246 63.877C27.0768 63.877 16.4922 53.2924 16.4922 40.1231C16.4922 26.9539 27.0768 16.3693 40.246 16.3693C44.9229 16.3693 49.4768 17.7231 53.2922 20.3077C53.5383 20.5539 54.0306 20.4308 54.3999 19.9385Z" fill="black" fill-opacity="0.8"/>
<path d="M48.1231 26.2154C48.3692 25.7231 48.1231 25.2308 47.7538 24.9846C45.4154 23.7539 42.7077 23.1385 40 23.1385C30.6461 23.1385 23.0154 30.7693 23.0154 40.1231C23.0154 49.4769 30.6461 57.1077 40 57.1077C49.3538 57.1077 56.9846 49.4769 56.9846 40.1231C56.9846 37.4154 56.3692 34.8308 55.1384 32.3693C54.8923 31.8769 54.4 31.7539 53.9077 32C53.4154 32.2462 53.2923 32.7385 53.5384 33.2308C54.6461 35.3231 55.1384 37.6616 55.1384 40.1231C55.1384 48.4923 48.3692 55.2616 40 55.2616C31.6308 55.2616 24.8615 48.4923 24.8615 40.1231C24.8615 31.7539 31.6308 24.9846 40 24.9846C42.4615 24.9846 44.6769 25.6 46.8923 26.5846C47.2615 26.8308 47.8769 26.5846 48.1231 26.2154Z" fill="black" fill-opacity="0.8"/>
<path d="M75.6925 10.8308H70.5233L75.0771 6.15389C75.4464 5.78466 75.4464 5.16927 75.0771 4.80004C74.7079 4.43081 74.2156 4.55389 73.8464 4.92312L69.2925 9.47697V4.30774C69.2925 3.81543 68.9233 3.32312 68.3079 3.32312C67.6925 3.32312 67.3233 3.69235 67.3233 4.30774V11.3231L39.3848 39.3847C39.0156 39.7539 39.0156 40.3693 39.3848 40.7385C39.5079 40.8616 39.7541 40.9847 40.0002 40.9847C40.2464 40.9847 40.4925 40.8616 40.6156 40.7385L68.6771 12.677H75.6925C76.1848 12.677 76.6771 12.3077 76.6771 11.6924C76.6771 11.077 76.1848 10.8308 75.6925 10.8308Z" fill="black" fill-opacity="0.8"/>
</svg>
