<svg width="80" height="80" viewBox="0 0 80 80" fill="none" xmlns="http://www.w3.org/2000/svg">
<g clip-path="url(#clip0)">
<path d="M45.127 67.9164H7.95748V24.9075L27.1575 5.83056H62.7267V26.9998C62.7267 27.4921 63.0959 27.9844 63.7113 27.9844C64.3267 27.9844 64.6959 27.6152 64.6959 26.9998V4.84594C64.6959 4.35364 64.3267 3.86133 63.7113 3.86133H26.7883C26.5421 3.86133 26.2959 3.98441 26.1729 4.10748L6.35748 23.9229C6.23441 24.0459 6.11133 24.2921 6.11133 24.5382V68.778C6.11133 69.2703 6.48056 69.7626 7.09594 69.7626H45.127C45.6193 69.7626 46.1116 69.3934 46.1116 68.778C46.1116 68.1626 45.6193 67.9164 45.127 67.9164Z" fill="black" fill-opacity="0.8"/>
<path d="M27.6496 24.5384V9.76916C27.6496 9.27685 27.2803 8.78455 26.6649 8.78455C26.0496 8.78455 25.6803 9.15378 25.6803 9.76916V23.6769H12.0188C11.5265 23.6769 11.0342 24.0461 11.0342 24.6615C11.0342 25.2769 11.4034 25.6461 12.0188 25.6461H26.788C27.2803 25.523 27.6496 25.0307 27.6496 24.5384Z" fill="black" fill-opacity="0.8"/>
<path d="M55.0961 33.2922H14.4807C13.9884 33.2922 13.4961 33.6615 13.4961 34.2769C13.4961 34.8922 13.8653 35.2615 14.4807 35.2615H55.0961C55.5884 35.2615 56.0807 34.8922 56.0807 34.2769C56.0807 33.6615 55.5884 33.2922 55.0961 33.2922Z" fill="black" fill-opacity="0.8"/>
<path d="M55.9574 42.2461C55.9574 41.7538 55.5882 41.2615 54.9728 41.2615H14.3574C13.8651 41.2615 13.3728 41.6307 13.3728 42.2461C13.3728 42.8615 13.742 43.2307 14.3574 43.2307H54.9728C55.5882 43.2307 55.9574 42.7384 55.9574 42.2461Z" fill="black" fill-opacity="0.8"/>
<path d="M14.4807 49.2307C13.9884 49.2307 13.4961 49.5999 13.4961 50.2153C13.4961 50.8307 13.8653 51.1999 14.4807 51.1999H47.7115C48.2038 51.1999 48.6961 50.8307 48.6961 50.2153C48.6961 49.5999 48.3269 49.2307 47.7115 49.2307H14.4807Z" fill="black" fill-opacity="0.8"/>
<path d="M14.4846 57.2C13.9923 57.2 13.5 57.5692 13.5 58.1846C13.5 58.8 13.8692 59.1692 14.4846 59.1692H44.5866C45.0789 59.1692 45.5712 58.8 45.5712 58.1846C45.5712 57.5692 45.2019 57.2 44.5866 57.2H14.4846Z" fill="black" fill-opacity="0.8"/>
<path d="M55.9572 9.76916C55.9572 9.27685 55.588 8.78455 54.9726 8.78455H40.2034C39.7111 8.78455 39.2188 9.15378 39.2188 9.76916V26.9999C39.2188 27.4922 39.588 27.9846 40.2034 27.9846H54.9726C55.4649 27.9846 55.9572 27.6153 55.9572 26.9999V9.76916ZM54.1111 26.1384H41.188V10.7538H54.1111V26.1384Z" fill="black" fill-opacity="0.8"/>
<path fill-rule="evenodd" clip-rule="evenodd" d="M65.9683 69.5917L65.9919 69.5697C67.1348 68.5029 68.5553 67.9375 70.064 67.9375C71.6025 67.9375 72.8795 66.6883 72.8795 65.0682C72.8795 63.5504 73.5068 62.0532 74.5564 61.0036C75.6572 59.9028 75.6572 58.0709 74.5564 56.97C73.4393 55.8529 72.8795 54.4034 72.8795 52.9054C72.8795 51.3393 71.6026 50.0361 70.0102 50.0361C68.4924 50.0361 66.9952 49.4088 65.9456 48.3592C64.8448 47.2584 63.0129 47.2584 61.9121 48.3592C60.7949 49.4763 59.3454 50.0361 57.8474 50.0361C56.2813 50.0361 54.9781 51.3131 54.9781 52.9054C54.9781 54.4232 54.3508 55.9205 53.3012 56.97C52.7242 57.5471 52.4487 58.2073 52.4487 58.9868C52.4487 59.7239 52.7324 60.4348 53.3012 61.0036C54.4183 62.1207 54.9781 63.5702 54.9781 65.0682C54.9781 66.6344 56.2551 67.9375 57.8474 67.9375C59.3652 67.9375 60.8625 68.5648 61.9121 69.6144C62.4809 70.1832 63.1917 70.4669 63.9288 70.4669C64.6234 70.4669 65.3847 70.1753 65.9456 69.6144L65.9683 69.5917ZM74.7462 65.0682C74.7462 67.7053 72.6473 69.8042 70.064 69.8042C69.0415 69.8042 68.0728 70.1809 67.2655 70.9343C66.3506 71.8492 65.1128 72.3336 63.9288 72.3336C62.691 72.3336 61.507 71.8492 60.5921 70.9343C59.8925 70.2347 58.87 69.8042 57.8474 69.8042C55.2104 69.8042 53.1115 67.6515 53.1115 65.0682C53.1115 64.0457 52.7347 63.077 51.9813 62.3235C51.0664 61.4086 50.582 60.2246 50.582 58.9868C50.582 57.6952 51.0664 56.565 51.9813 55.6501C52.6809 54.9505 53.1115 53.9279 53.1115 52.9054C53.1115 50.2683 55.2642 48.1695 57.8474 48.1695C58.87 48.1695 59.8387 47.7927 60.5921 47.0393C62.4219 45.2095 65.4357 45.2095 67.2655 47.0393C67.9651 47.7389 68.9877 48.1695 70.0102 48.1695C72.6473 48.1695 74.7462 50.3222 74.7462 52.9054C74.7462 53.9279 75.1229 54.8967 75.8763 55.6501C77.7062 57.4799 77.7062 60.4937 75.8763 62.3235C75.1767 63.0231 74.7462 64.0457 74.7462 65.0682Z" fill="black" fill-opacity="0.8"/>
<path fill-rule="evenodd" clip-rule="evenodd" d="M74.4604 70.1603L77.0463 75.6552L78.3284 78.4262L71.537 75.9516L70.1224 79.8419L68.9079 82.5573L67.6577 79.9404L64.9668 74.1819L66.6579 73.3917L68.8083 77.9935L70.4207 73.5594L74.7353 75.1284L72.7714 70.9552L74.4604 70.1603Z" fill="black" fill-opacity="0.8"/>
<path fill-rule="evenodd" clip-rule="evenodd" d="M62.0183 74.4388L59.2332 79.8354L57.8154 82.5395L55.6441 75.6452L51.6966 76.8913L48.803 77.5808L50.118 74.9959L53.0483 69.3554L54.7047 70.216L52.3631 74.7234L56.8624 73.3032L58.2443 77.6814L60.3595 73.5828L62.0183 74.4388Z" fill="black" fill-opacity="0.8"/>
<path fill-rule="evenodd" clip-rule="evenodd" d="M71.653 55.1742C71.3997 54.5946 71.084 54.0496 70.714 53.5473C69.8906 52.4296 68.7981 51.5239 67.5255 50.922C65.6813 50.0498 63.5836 49.8747 61.6202 50.4292C59.6568 50.9836 57.9606 52.2301 56.845 53.9382C55.7294 55.6464 55.27 57.7006 55.5515 59.7212C55.8331 61.7418 56.8367 63.5922 58.3767 64.9303C59.9168 66.2683 61.8892 67.0036 63.9293 67.0002C65.9695 66.9968 67.9394 66.2549 69.475 64.9117C70.5345 63.9849 71.3378 62.815 71.8243 61.5147C72.0424 60.9316 72.1969 60.3223 72.2822 59.6969C72.2823 59.6957 72.2825 59.6944 72.2827 59.6932L70.3767 59.4341C70.1645 60.9952 69.3944 62.4267 68.2086 63.4639C67.0228 64.5012 65.5016 65.0741 63.9261 65.0768C62.3507 65.0794 60.8275 64.5116 59.6383 63.4783C58.449 62.445 57.674 61.0161 57.4566 59.4558C57.2391 57.8954 57.594 56.3091 58.4554 54.99C59.3169 53.671 60.6268 52.7084 62.1429 52.2802C63.6591 51.8521 65.279 51.9873 66.7032 52.6608C68.1274 53.3344 69.2596 54.5008 69.8905 55.9444L71.653 55.1742Z" fill="black" fill-opacity="0.8"/>
</g>
<defs>
<clipPath id="clip0">
<rect width="80" height="80" fill="white"/>
</clipPath>
</defs>
</svg>
