<svg width="40" height="40" viewBox="0 0 40 40" fill="none" xmlns="http://www.w3.org/2000/svg">
<path d="M33.036 0H6.964L0 11.142V40H40V11.142L33.036 0ZM38.1307 10.6667H20.6667V1.33333H32.2973L38.1307 10.6667ZM7.70267 1.33333H19.3333V10.6667H1.86933L7.70267 1.33333ZM1.33333 38.6667V12H38.6667V38.6667H1.33333Z" fill="#DEC377"/>
<path d="M24 15.3333H16C14.8973 15.3333 14 16.2306 14 17.3333C14 18.436 14.8973 19.3333 16 19.3333H24C25.1027 19.3333 26 18.436 26 17.3333C26 16.2306 25.1027 15.3333 24 15.3333ZM24 18H16C15.6327 18 15.3333 17.7013 15.3333 17.3333C15.3333 16.9653 15.6327 16.6666 16 16.6666H24C24.3673 16.6666 24.6667 16.9653 24.6667 17.3333C24.6667 17.7013 24.3673 18 24 18Z" fill="#DEC377"/>
<path d="M25.3333 34.6667H14.6667C14.2987 34.6667 14 34.9647 14 35.3334C14 35.702 14.2987 36 14.6667 36H25.3333C25.7013 36 26 35.702 26 35.3334C26 34.9647 25.7013 34.6667 25.3333 34.6667Z" fill="#DEC377"/>
<path d="M16.6666 26.0009C17.0346 26.0009 17.3333 26.2989 17.3333 26.6675V31.0582L18.1953 30.1962C18.3253 30.0662 18.4959 30.0009 18.6666 30.0009C18.8373 30.0009 19.0079 30.0662 19.1379 30.1962C19.3986 30.4569 19.3986 30.8782 19.1379 31.1389L17.1386 33.1382C17.0773 33.2002 17.0033 33.2489 16.9213 33.2829C16.7586 33.3502 16.5746 33.3502 16.4119 33.2829C16.3299 33.2489 16.2566 33.2002 16.1946 33.1382L14.1953 31.1389C13.9346 30.8782 13.9346 30.4569 14.1953 30.1962C14.3253 30.0662 14.4959 30.0009 14.6666 30.0009C14.8373 30.0009 15.0079 30.0662 15.1379 30.1962L15.9999 31.0582V26.6675C15.9999 26.2989 16.2986 26.0009 16.6666 26.0009Z" fill="#DEC377"/>
<path d="M23.8053 33.1382C23.744 33.2002 23.67 33.2489 23.588 33.2829C23.4253 33.3502 23.2413 33.3502 23.0787 33.2829C22.9967 33.2489 22.9233 33.2002 22.8613 33.1382L20.862 31.1389C20.6013 30.8782 20.6013 30.4569 20.862 30.1962C20.992 30.0662 21.1627 30.0009 21.3333 30.0009C21.504 30.0009 21.6747 30.0662 21.8047 30.1962L22.6667 31.0582V26.6675C22.6667 26.2989 22.9653 26.0009 23.3333 26.0009C23.7013 26.0009 24 26.2989 24 26.6675V31.0582L24.862 30.1962C24.992 30.0662 25.1627 30.0009 25.3333 30.0009C25.504 30.0009 25.6747 30.0662 25.8047 30.1962C26.0653 30.4569 26.0653 30.8782 25.8047 31.1389L23.8053 33.1382Z" fill="#DEC377"/>
</svg>
