<svg width="231" height="60" viewBox="0 0 231 60" fill="none" xmlns="http://www.w3.org/2000/svg">
<g clip-path="url(#clip0)">
<path fill-rule="evenodd" clip-rule="evenodd" d="M10.9383 32.6448C10.9383 32.6448 10.9846 31.8337 10.2894 31.0458C9.571 30.2347 7.18405 30.2347 6.16438 29.9335C5.14471 29.6322 5.0752 28.8674 5.0752 28.8674V25.7621C5.0752 25.7621 5.12154 26.5037 6.16438 26.8281C7.18405 27.1294 9.571 27.1294 10.2894 27.9405C10.9846 28.7284 10.9383 29.5395 10.9383 29.5395V32.6448Z" fill="#D3AF4A"/>
<path fill-rule="evenodd" clip-rule="evenodd" d="M10.9383 40.1069C10.9383 40.1069 10.9846 39.2958 10.2894 38.5079C9.571 37.6968 7.18405 37.6968 6.16438 37.3955C5.14471 37.0942 5.0752 36.3295 5.0752 36.3295V33.2241C5.0752 33.2241 5.12154 33.9657 6.16438 34.2901C7.18405 34.5914 9.571 34.5914 10.2894 35.4025C10.9846 36.1904 10.9383 37.0015 10.9383 37.0015V40.1069Z" fill="#D3AF4A"/>
<path fill-rule="evenodd" clip-rule="evenodd" d="M7.97182 4.51118C7.83278 4.60388 7.67056 4.88197 7.53151 5.06736C7.39247 5.25275 7.20707 5.3918 7.32294 5.62354C7.46198 5.90163 7.8096 6.68956 7.97182 6.89813C8.13404 6.71273 8.48165 5.92481 8.6207 5.62354C8.73657 5.36863 8.528 5.20641 8.38896 5.02101C8.27308 4.88197 8.11087 4.60388 7.97182 4.51118ZM10.5673 7.8251L11.5175 5.87846L10.5442 6.1102L10.5673 7.8251ZM5.469 7.80192V6.08703L4.49568 5.87846L5.469 7.80192ZM8.01817 2.07788C8.36578 2.93533 8.89879 4.07087 9.64036 4.90514C10.1965 5.53085 9.94163 5.36863 9.52449 6.2956C9.31593 6.75908 9.01466 7.40796 9.06101 7.96414C9.75624 7.89462 9.91846 6.52734 10.0112 5.92481C10.0807 5.55402 10.127 5.46132 10.4746 5.34545C11.726 4.95149 11.6797 5.2991 12.8848 4.09404C13.047 3.93182 13.0933 3.88547 13.2092 3.97817C13.3483 4.20991 12.8152 4.99784 12.6762 5.2991C12.0041 6.68956 11.2162 8.01049 10.9845 9.56317H5.16774C4.93599 8.05684 4.1249 6.66639 3.47602 5.32228C3.38332 5.16006 2.52587 3.81595 3.05888 3.955L4.0322 4.81244C4.88965 5.46132 5.93249 4.95149 6.09471 5.85529C6.21058 6.48099 6.32645 7.87145 7.04485 7.94097C7.0912 7.38479 6.78994 6.75908 6.58137 6.2956C6.4655 6.04068 6.34962 5.83211 6.23375 5.62354C6.00201 5.25275 6.23375 5.11371 6.41914 4.90514C7.11437 4.11722 7.64738 2.84263 8.01817 2.07788Z" fill="#D3AF4A"/>
<path d="M51.2844 2.72684C51.2844 2.84271 51.1686 3.09762 50.9368 3.49159C50.7051 3.88555 50.3807 4.48808 50.0099 5.276C49.8245 5.66997 49.6391 6.08711 49.4305 6.48107C49.2219 6.87503 49.0134 7.31534 48.828 7.7093C48.6194 8.12644 48.434 8.5204 48.2718 8.89119C48.1096 9.26198 47.9474 9.63277 47.8083 9.95721C47.6461 10.3512 47.4839 10.7915 47.2753 11.3013C47.0667 11.8111 46.8813 12.321 46.7191 12.8308C46.5337 13.3406 46.3947 13.8041 46.2788 14.2213C46.1629 14.6384 46.0934 14.9397 46.0934 15.1482C46.0934 15.3336 46.1398 15.4495 46.2325 15.4959C46.3252 15.519 46.441 15.5422 46.5337 15.5422C46.6496 15.5422 46.7886 15.519 46.9277 15.4495C47.0667 15.38 47.2058 15.3336 47.3217 15.2641C47.4607 15.1714 47.5997 15.0787 47.7388 14.986L47.9242 15.4263C47.762 15.5654 47.5302 15.7508 47.2753 15.9593C46.9972 16.1679 46.7191 16.3997 46.3947 16.6082C46.0702 16.8168 45.7458 17.0022 45.3982 17.1412C45.0506 17.2803 44.7261 17.373 44.448 17.373C44.2858 17.373 44.1468 17.3498 44.0309 17.2803C43.915 17.2107 43.8687 17.0949 43.8687 16.8863C43.8687 16.7473 43.915 16.4923 44.0309 16.0752C44.1468 15.6812 44.3322 15.1251 44.5871 14.4298C44.7957 13.8273 45.0506 13.1784 45.3287 12.4832C45.6068 11.788 45.8848 11.1159 46.1861 10.4439C46.4642 9.77181 46.7423 9.14611 46.974 8.56675C47.229 7.98739 47.4143 7.50073 47.5997 7.10677L47.4607 7.06042C47.1363 7.38486 46.835 7.73248 46.5337 8.05692C46.2325 8.40453 45.8617 8.79849 45.4445 9.26198C45.0274 9.72546 44.4944 10.2816 43.8687 10.9305C43.243 11.5794 42.4551 12.3673 41.5049 13.3175C41.0878 13.7346 40.717 14.1054 40.3925 14.4298C40.0681 14.7543 39.7437 15.0787 39.4192 15.38C39.0948 15.6812 38.7935 15.9593 38.4691 16.2374C38.1446 16.5155 37.797 16.7936 37.4031 17.0717C37.264 17.1876 37.0555 17.3034 36.7774 17.4193C36.4993 17.5352 36.2444 17.6047 35.9663 17.6047C35.7577 17.6047 35.5955 17.5352 35.526 17.4193C35.4333 17.3034 35.4101 17.1181 35.4101 16.8631C35.4101 16.6546 35.4796 16.3301 35.6187 15.8898C35.7577 15.4495 35.9199 14.9397 36.1285 14.4067C36.337 13.8505 36.5456 13.2943 36.8005 12.7149C37.0323 12.1356 37.264 11.6026 37.4494 11.1623C38.0983 9.65594 38.7008 8.24231 39.257 6.96773C39.8132 5.66997 40.4389 4.37221 41.0878 3.07445H40.9951C40.7865 3.28302 40.4389 3.67698 39.9522 4.23316C39.4656 4.81252 38.863 5.4614 38.2142 6.24932C37.5421 7.01408 36.8237 7.84835 36.0358 8.72897C35.2479 9.60959 34.4831 10.467 33.7184 11.2781C33.3012 11.7185 32.8609 12.2051 32.3743 12.7149C31.8876 13.2248 31.4009 13.7346 30.8679 14.2676C30.3581 14.7775 29.8251 15.2873 29.2921 15.7739C28.7591 16.2606 28.2261 16.7009 27.7394 17.0717C27.2296 17.4425 26.7429 17.7438 26.2794 17.9755C25.8159 18.2072 25.3988 18.3231 25.028 18.3231C24.5645 18.3231 24.3096 18.0914 24.3096 17.6279C24.3096 17.2107 24.4487 16.7936 24.7499 16.3997C25.0512 15.9825 25.3988 15.6349 25.8159 15.38H26.0709C26.0477 15.4495 26.0477 15.519 26.0477 15.5654C26.0477 15.6117 26.0477 15.6812 26.0477 15.7276C26.0477 15.7971 26.0477 15.8666 26.0709 15.9593C26.094 16.052 26.1172 16.1216 26.1635 16.2143C26.2099 16.307 26.3026 16.3765 26.3953 16.4228C26.488 16.4692 26.627 16.5155 26.7893 16.5155C26.9051 16.5155 27.021 16.4923 27.1832 16.446C27.3454 16.3997 27.5308 16.307 27.7394 16.1679C27.9712 16.0289 28.2261 15.8435 28.5273 15.6117C28.8286 15.38 29.1762 15.0555 29.5702 14.6848C30.5898 13.6883 31.54 12.7381 32.4669 11.8111C33.3939 10.8842 34.2745 9.93403 35.132 9.00706C35.9894 8.05692 36.8237 7.10677 37.658 6.13345C38.4923 5.16013 39.3034 4.14047 40.1376 3.07445C39.79 3.00493 39.4656 2.95858 39.1411 2.9354C38.8167 2.91223 38.3996 2.88906 37.8665 2.88906C37.4031 2.88906 36.7542 2.91223 35.9894 2.9354C35.2015 2.95858 34.3209 3.09762 33.3476 3.30619C32.3742 3.51476 31.2851 3.8392 30.1264 4.27951C28.9676 4.71982 27.7857 5.34553 26.5575 6.15663C26.094 6.48107 25.6769 6.80551 25.2829 7.12995C24.889 7.47756 24.5645 7.802 24.2864 8.12644C24.0083 8.45088 23.7998 8.77532 23.6376 9.07658C23.4753 9.37785 23.4058 9.65594 23.4058 9.91086C23.4058 10.0963 23.4522 10.2121 23.568 10.3048C23.6839 10.3975 23.823 10.4207 23.9852 10.4207C24.1706 10.4207 24.3328 10.3975 24.495 10.3512C24.6572 10.3048 24.8194 10.2353 25.028 10.1426V10.4207C24.7499 10.7683 24.4023 11.0232 23.9388 11.1854C23.4985 11.3477 23.0814 11.4404 22.6874 11.4404C22.0385 11.4404 21.6909 11.1623 21.6909 10.6061C21.6909 10.1426 21.8763 9.67912 22.2239 9.16928C22.5947 8.65945 23.035 8.17279 23.568 7.7093C24.101 7.24582 24.6804 6.78233 25.2829 6.38837C25.8855 5.97123 26.4416 5.62362 26.9283 5.34553C28.2029 4.62713 29.4543 4.04777 30.7289 3.63063C31.9803 3.2135 33.1622 2.88906 34.2514 2.68049C35.3406 2.47192 36.2907 2.33287 37.125 2.26335C37.9593 2.217 38.585 2.17065 39.0021 2.17065C39.6741 2.17065 40.2535 2.19383 40.7402 2.217C41.2268 2.24018 41.644 2.28653 41.9916 2.3097C42.3855 2.35605 42.7332 2.4024 43.0344 2.42557C42.9185 2.58779 42.7795 2.86588 42.5709 3.25984C42.3624 3.65381 42.1538 4.07094 41.922 4.5576C41.6903 5.04426 41.4354 5.57727 41.1805 6.13345C40.9256 6.68964 40.6938 7.22264 40.4621 7.75565C40.0449 8.7058 39.6742 9.58642 39.3265 10.4207C38.9789 11.255 38.6777 11.9965 38.4227 12.6454C38.1678 13.2943 37.9824 13.8737 37.8202 14.3371C37.6812 14.8006 37.6116 15.1482 37.6116 15.3568C37.6116 15.4263 37.6116 15.4727 37.6348 15.5422C37.658 15.5886 37.7043 15.6117 37.8202 15.6117C37.9593 15.6117 38.2837 15.4032 38.8167 14.986C39.3497 14.5689 40.0449 13.92 40.9487 13.0394C41.111 12.8772 41.3659 12.5991 41.7598 12.2051C42.1306 11.8111 42.5941 11.3477 43.1039 10.8147C43.6138 10.2816 44.1931 9.67911 44.7957 9.00706C45.3982 8.35818 46.0007 7.66295 46.6264 6.96773C47.2058 6.31885 47.6693 5.71632 47.9705 5.20648C48.295 4.69665 48.5731 4.25634 48.8512 3.90872C49.1061 3.56111 49.3146 3.32937 49.5 3.19032C49.6622 3.05128 49.8708 2.95858 50.1257 2.86588C50.288 2.81953 50.4502 2.77318 50.6587 2.77318C50.8673 2.75001 50.9832 2.75001 51.0527 2.75001C51.2149 2.54144 51.2844 2.61096 51.2844 2.72684Z" fill="#D3AF4A"/>
<path d="M76.6605 2.26333C76.6605 2.4719 76.4751 2.79634 76.1043 3.1903C75.7335 3.58426 75.0847 4.09409 74.1345 4.74297C73.3002 5.29916 72.605 5.76264 72.0257 6.13343C71.4463 6.50422 70.9133 6.82866 70.473 7.10675C70.0095 7.38484 69.5924 7.66293 69.1984 7.89467C68.8044 8.12642 68.3873 8.42768 67.9702 8.72895C68.1324 9.05339 68.341 9.4937 68.5495 10.1194C68.7581 10.7219 68.9667 11.3708 69.1984 12.066C69.3606 12.5527 69.4997 13.0625 69.6619 13.5492C69.8241 14.0359 69.9863 14.4762 70.1717 14.8701C70.3571 15.2641 70.5425 15.5654 70.7742 15.7971C70.9828 16.0288 71.2377 16.1679 71.5158 16.1679C71.7707 16.1679 72.0257 16.1215 72.2806 16.0057C72.5587 15.913 72.7904 15.7507 72.999 15.5885L73.1844 15.8203C73.138 15.8898 73.0222 16.0057 72.8136 16.1911C72.605 16.3765 72.3733 16.5618 72.1184 16.7472C71.8403 16.9326 71.5622 17.118 71.2609 17.2571C70.9597 17.4193 70.6816 17.4888 70.4035 17.4888C70.0559 17.4888 69.7778 17.3961 69.5692 17.1876C69.3375 16.979 69.1521 16.7009 68.9667 16.3533C68.7813 16.0057 68.619 15.5885 68.4568 15.1019C68.2946 14.6384 68.1324 14.1054 67.9238 13.5724C67.8311 13.3175 67.7153 12.993 67.5994 12.5759C67.4835 12.1587 67.3445 11.7416 67.2054 11.3013C67.0664 10.861 66.9273 10.467 66.7651 10.1194C66.6029 9.77179 66.4638 9.51687 66.3248 9.37783C66.0004 10.1194 65.6991 10.8378 65.3747 11.533C65.1197 12.1356 64.8416 12.7613 64.5172 13.4333C64.2159 14.1054 63.9378 14.6847 63.7061 15.1714C63.5902 15.4495 63.4744 15.6812 63.3817 15.8666C63.289 16.052 63.1963 16.2142 63.1036 16.3301C63.0109 16.4692 62.9182 16.5618 62.8487 16.6545C62.756 16.7472 62.6633 16.8168 62.5706 16.8863C62.362 17.0253 62.1303 17.1412 61.8522 17.2107C61.5741 17.3034 61.3655 17.3266 61.2033 17.3266C61.0874 17.3266 60.9947 17.3034 60.9715 17.2571C60.9484 17.2107 60.9252 17.1644 60.9252 17.0949C60.9252 17.0253 60.9715 16.8863 61.0874 16.6777C61.2033 16.4692 61.3655 16.1447 61.5972 15.7044C62.0144 14.9396 62.362 14.2444 62.6633 13.6651C62.9645 13.0625 63.2194 12.5064 63.4744 11.9502C63.7293 11.394 63.9842 10.8378 64.2159 10.2816C64.4709 9.72544 64.7489 9.07656 65.0734 8.33499C65.3283 7.7788 65.56 7.19945 65.8381 6.57374C66.0931 5.97121 66.3248 5.41503 66.5565 4.90519C66.7651 4.39536 66.9505 3.95505 67.0896 3.56109C67.2286 3.1903 67.3213 2.93538 67.3676 2.81951C67.1823 2.79634 66.9968 2.79634 66.8346 2.77316C66.6724 2.74999 66.5102 2.74999 66.348 2.72681C66.1858 2.70364 66.0235 2.70364 65.8845 2.70364C65.3051 2.70364 64.6331 2.72681 63.8452 2.77316C63.0572 2.81951 62.1998 2.93538 61.2496 3.14395C60.2995 3.35252 59.2566 3.67696 58.1443 4.11727C57.0319 4.55758 55.8732 5.16011 54.6681 5.94804C54.2047 6.27248 53.7644 6.59691 53.3704 6.92135C52.9764 7.26897 52.652 7.59341 52.3739 7.91785C52.0958 8.24229 51.8872 8.56673 51.7482 8.86799C51.6091 9.16926 51.5396 9.44735 51.5396 9.70227C51.5396 9.81814 51.586 9.93401 51.6555 10.0499C51.725 10.1658 51.8872 10.2353 52.1422 10.2353C52.3507 10.2353 52.5129 10.2121 52.652 10.1658C52.791 10.1194 52.9764 10.0499 53.185 9.95718V10.2353C52.8374 10.5829 52.4202 10.8378 51.9799 11C51.5396 11.1622 51.1457 11.2549 50.8444 11.2549C50.1955 11.2549 49.8479 10.9769 49.8479 10.4207C49.8479 10.0035 50.0333 9.56322 50.3809 9.05339C50.7517 8.54355 51.192 8.05689 51.725 7.57023C52.258 7.08357 52.8374 6.64326 53.4399 6.20295C54.0424 5.76264 54.5986 5.41503 55.0853 5.13694C56.3599 4.41853 57.6113 3.86235 58.7932 3.42204C59.9751 3.0049 61.1106 2.68046 62.1998 2.4719C63.289 2.26333 64.3086 2.12428 65.282 2.05476C66.2553 1.98524 67.1591 1.96206 67.9702 1.96206C68.2483 1.96206 68.5495 1.98524 68.874 2.03159C69.1984 2.07793 69.4301 2.10111 69.6155 2.12428L66.4638 9.05339C67.02 8.65942 67.5299 8.33498 67.9702 8.03372C68.4105 7.73245 68.8508 7.45436 69.2679 7.17627C69.6851 6.89818 70.1254 6.62009 70.5425 6.31882C70.9596 6.01756 71.4695 5.69312 72.0257 5.29916C72.2806 5.13694 72.5123 4.95154 72.7904 4.74297C73.0453 4.53441 73.2771 4.34901 73.5088 4.14044C73.7174 3.93188 73.9028 3.74648 74.0418 3.53791C74.1809 3.35252 74.2504 3.16712 74.2504 3.0049C74.2504 2.84268 74.1809 2.74999 74.0418 2.70364C73.9028 2.65729 73.7869 2.61094 73.6942 2.61094V2.4719C74.1809 2.24015 74.6675 2.07793 75.1078 1.98524C75.5713 1.89254 75.8958 1.84619 76.1043 1.84619C76.2202 1.84619 76.3593 1.86937 76.4751 1.91571C76.591 1.96206 76.6605 2.07793 76.6605 2.26333Z" fill="#D3AF4A"/>
<path d="M49.3844 21.9383C49.3844 22.17 49.2917 22.3786 49.1295 22.564C48.9441 22.7494 48.7587 22.8884 48.5501 23.0043C48.2952 23.1434 48.0403 23.2592 47.7158 23.3288L47.5999 23.2361C47.6231 23.1897 47.6231 23.097 47.6231 23.0043C47.6231 22.7262 47.4841 22.4481 47.1828 22.17C46.8815 21.9151 46.4644 21.6834 45.9082 21.4748C45.352 21.2662 44.6568 21.104 43.8225 20.9882C42.9883 20.8723 42.015 20.8028 40.9258 20.8028C40.8331 20.9186 40.7404 21.0577 40.6709 21.1967C40.6013 21.3358 40.5086 21.498 40.4391 21.6834C40.3464 21.8688 40.2537 22.0773 40.161 22.3323C40.0451 22.564 39.9293 22.8421 39.7902 23.1665C39.6512 23.491 39.4426 23.9776 39.1645 24.6497C38.8864 25.3217 38.562 26.1097 38.168 26.9903C37.7973 27.8941 37.3801 28.8442 36.9398 29.8871C36.4995 30.9299 36.036 31.9496 35.5957 32.9924C35.3871 33.4559 35.1554 33.873 34.8773 34.267C34.6224 34.661 34.3443 34.9391 34.0662 35.1476C33.9735 35.2171 33.8576 35.2867 33.6954 35.3562C33.5332 35.4257 33.3941 35.4952 33.2319 35.5416C33.0697 35.6111 32.9307 35.6575 32.7916 35.6806C32.6526 35.7038 32.5367 35.727 32.4672 35.727L32.3281 35.5648C32.3513 35.5184 32.4208 35.4025 32.4903 35.2635C32.583 35.1013 32.6757 34.9391 32.7916 34.7305C32.9075 34.5219 33.0233 34.3134 33.1624 34.0816C33.3014 33.8499 33.4173 33.6181 33.5332 33.4327C33.8113 32.9461 34.1125 32.3667 34.4138 31.6947C34.7382 31.0458 35.0627 30.3274 35.3871 29.5858C35.7347 28.8442 36.0824 28.0563 36.43 27.2452C36.8008 26.4341 37.1484 25.623 37.496 24.8351C37.7972 24.163 38.0753 23.6068 38.2839 23.1665C38.5157 22.7262 38.701 22.3554 38.8864 22.0542C39.0718 21.7529 39.2109 21.5212 39.3499 21.3358C39.489 21.1504 39.628 20.965 39.7671 20.8028H39.1877C38.4461 20.8028 37.5887 20.8259 36.6385 20.8955C35.6884 20.965 34.6455 21.104 33.5564 21.3126C32.4672 21.5212 31.3085 21.8456 30.1266 22.2859C28.9215 22.703 27.7396 23.2824 26.5114 24.024C25.5381 24.6033 24.7733 25.2522 24.194 25.9243C23.6378 26.5963 23.3597 27.222 23.3597 27.7782C23.3597 28.1258 23.5451 28.288 23.939 28.288C24.1013 28.288 24.2635 28.2649 24.4257 28.2185C24.5879 28.1722 24.7733 28.1027 24.9819 27.9868V28.2649C24.6574 28.6125 24.2635 28.8674 23.8 29.0296C23.3365 29.1918 22.9425 29.2845 22.6413 29.2845C22.2705 29.2845 22.0156 29.1918 21.8765 29.0296C21.7375 28.8674 21.668 28.6357 21.668 28.3344C21.668 27.9173 21.8534 27.4769 22.201 26.9903C22.5718 26.5036 23.0121 26.017 23.5219 25.5535C24.0549 25.09 24.6111 24.6265 25.2368 24.2325C25.8393 23.8154 26.4187 23.4678 26.9053 23.2129C28.1336 22.564 29.3618 22.031 30.6364 21.637C31.8878 21.2199 33.116 20.8955 34.2748 20.6637C35.4335 20.432 36.5227 20.2698 37.5191 20.1771C38.5156 20.0844 39.3731 20.038 40.0451 20.038H40.3464L41.482 19.2037H41.9454C41.8296 19.366 41.7369 19.4818 41.6442 19.6209L41.3197 20.038C42.2931 20.0612 43.2432 20.1075 44.1933 20.2002C45.1435 20.2929 46.0009 20.4088 46.7657 20.571C47.5304 20.7332 48.1561 20.9418 48.6196 21.1735C49.1526 21.3589 49.3844 21.637 49.3844 21.9383ZM45.2362 22.8653C45.074 23.1665 44.8886 23.5142 44.68 23.9313C44.4714 24.3484 44.2397 24.7656 44.0079 25.229C43.7762 25.6694 43.5676 26.1328 43.3591 26.5732C43.1505 27.0135 42.9883 27.4306 42.8492 27.7782C42.6407 28.3112 42.4321 28.8442 42.2235 29.4004C42.015 29.9566 41.7369 30.6286 41.4124 31.4166C41.2966 31.7178 41.1575 32.0654 40.9953 32.4594C40.8331 32.8534 40.7635 33.1778 40.7635 33.4559C40.7635 33.6413 40.8794 33.734 41.088 33.734C41.227 33.734 41.3661 33.7108 41.5283 33.6413C41.6905 33.5718 41.8296 33.5254 41.9454 33.4559C42.1077 33.3632 42.2467 33.2705 42.3626 33.1778L42.548 33.6181C42.3857 33.7572 42.154 33.9194 41.8991 34.128C41.621 34.3365 41.3429 34.5219 41.0416 34.7073C40.7404 34.8927 40.4159 35.0549 40.0915 35.194C39.7671 35.333 39.4658 35.4025 39.1645 35.4025C38.8633 35.4025 38.7242 35.2172 38.7242 34.8232C38.7242 34.7073 38.7474 34.5219 38.7937 34.2902C38.8401 34.0584 38.9096 33.8035 39.0023 33.5486C39.095 33.2705 39.2109 32.9924 39.3268 32.6912C39.4426 32.3899 39.5817 32.0886 39.6975 31.7874C39.7671 31.602 39.9061 31.2775 40.0683 30.8604C40.2537 30.4433 40.4391 29.9566 40.6709 29.4004C40.9026 28.8442 41.1343 28.2649 41.4124 27.6623C41.6674 27.0598 41.9454 26.4805 42.2235 25.9474C42.5016 25.4144 42.7565 24.9278 43.0114 24.4875C43.2664 24.0472 43.4981 23.7459 43.6835 23.5605C43.9848 23.2592 44.2629 23.0738 44.4946 23.0043C44.7263 22.9348 44.8886 22.9116 45.0276 22.9116H45.0971H45.1435H45.2362V22.8653Z" fill="#D3AF4A"/>
<path d="M55.9891 27.4074C55.9891 28.0795 55.8733 28.7515 55.6647 29.4468C55.433 30.1188 55.0853 30.814 54.5987 31.4861C54.3438 31.8337 54.0193 32.2508 53.6022 32.7143C53.2082 33.1778 52.7447 33.6181 52.2349 34.0121C51.7251 34.406 51.1457 34.7537 50.52 35.0318C49.8943 35.3098 49.2454 35.4489 48.527 35.4489C48.2953 35.4489 48.0635 35.4489 47.8086 35.4257C47.5537 35.4025 47.3683 35.4025 47.2061 35.3562C47.0439 35.7038 46.8817 36.1441 46.6963 36.6308C46.5109 37.1174 46.2791 37.6968 46.0474 38.3457C45.4912 39.7825 45.1204 40.8253 44.935 41.4279C44.9118 41.5901 44.8887 41.7523 44.8655 41.8913C44.8423 42.0536 44.8423 42.1231 44.8423 42.1694C44.7264 42.4939 44.4484 42.772 44.0312 43.0269C43.5909 43.305 43.1969 43.4672 42.8493 43.4672C42.6176 43.4672 42.5017 43.3513 42.5017 43.0964C42.5017 42.9805 42.5481 42.7488 42.6408 42.4475C42.7335 42.1463 42.8957 41.7291 43.1042 41.2193L45.9315 34.7537C45.7693 34.3829 45.6766 34.0353 45.6766 33.6876C45.6766 33.5718 45.6766 33.5023 45.6766 33.4327C45.6766 33.3632 45.6998 33.3169 45.6998 33.2473L46.3255 33.5022L48.2721 29.1223C48.6661 28.2185 48.8746 27.6392 48.8746 27.3611C48.8746 27.2452 48.8051 27.1757 48.6892 27.1757C48.5734 27.1757 48.388 27.222 48.0867 27.3379C47.7854 27.4538 47.3915 27.6392 46.8585 27.9404L46.7194 27.5465C46.9743 27.4074 47.2988 27.2452 47.6696 27.0598C48.0404 26.8744 48.4343 26.689 48.8283 26.5036C49.2223 26.3414 49.6162 26.1792 49.9638 26.0633C50.3346 25.9474 50.6127 25.8779 50.8213 25.8779C51.0067 25.8779 51.0994 25.9706 51.0994 26.156C51.0994 26.2487 50.9835 26.5731 50.7286 27.1293C50.4737 27.7087 50.1492 28.3807 49.7321 29.1687L49.848 29.1918C50.1029 28.9369 50.3578 28.6588 50.6359 28.3576C50.914 28.0563 51.2152 27.755 51.5397 27.4538C51.8641 27.1525 52.1886 26.8744 52.5593 26.6195C52.907 26.3414 53.2777 26.1328 53.6949 25.9474C54.0193 25.7852 54.3669 25.7157 54.7841 25.7157C55.1549 25.7157 55.433 25.8316 55.6647 26.0865C55.8964 26.4109 55.9891 26.8281 55.9891 27.4074ZM54.0193 28.2417C54.0193 27.8941 53.973 27.616 53.9034 27.4538C53.8107 27.2915 53.6717 27.1988 53.44 27.1988C53.1155 27.1988 52.7447 27.3379 52.3508 27.6392C51.9336 27.9404 51.5397 28.3112 51.1225 28.7515C50.7054 29.215 50.2883 29.7017 49.8943 30.2579C49.4772 30.814 49.1295 31.347 48.8051 31.8801C48.527 32.3204 48.3185 32.7375 48.1331 33.1083C47.9708 33.4791 47.8318 33.8267 47.7159 34.1511C48.2026 34.4524 48.8051 34.6146 49.4772 34.6146C50.0565 34.6146 50.6127 34.4292 51.1225 34.0353C51.5628 33.7108 51.9568 33.34 52.3276 32.8765C52.6752 32.4131 52.9765 31.9496 53.2314 31.4166C53.4863 30.9067 53.6717 30.3737 53.8108 29.8175C53.9498 29.3077 54.0193 28.7747 54.0193 28.2417Z" fill="#D3AF4A"/>
<path d="M67.0431 26.6426C66.8345 26.828 66.6491 27.0366 66.4637 27.3147C66.2783 27.5928 66.0929 27.894 65.9075 28.2416C65.7917 28.4966 65.6526 28.7746 65.4904 29.1223C65.3282 29.4699 65.1428 29.8638 64.9574 30.3042C64.7488 30.7445 64.5866 31.1152 64.4707 31.4165C64.3549 31.7178 64.239 31.9727 64.1695 32.1581C63.9146 32.7838 63.7987 33.1778 63.7987 33.3632C63.7987 33.5717 63.9146 33.6644 64.1463 33.6644C64.4476 33.6644 64.7488 33.5717 65.0964 33.3632C65.4441 33.1546 65.7917 32.946 66.1393 32.7143L66.3247 33.1546C65.9771 33.4095 65.6295 33.6644 65.2818 33.9193C64.9111 34.1742 64.5634 34.4292 64.1927 34.6377C63.8219 34.8463 63.4742 35.0317 63.1266 35.1707C62.779 35.3098 62.4778 35.3793 62.1997 35.3793C61.852 35.3793 61.6667 35.2171 61.6667 34.8927C61.6667 34.545 61.852 33.9425 62.1997 33.1314L62.8022 31.7178H62.64C62.0374 32.3667 61.4813 32.9228 60.9946 33.3863C60.508 33.8498 60.0676 34.2438 59.6505 34.5219C59.2334 34.8231 58.8626 35.0317 58.515 35.1707C58.1673 35.3098 57.8197 35.3793 57.4489 35.3793C56.6378 35.3793 56.2207 34.8927 56.2207 33.9425C56.2207 33.479 56.2902 33.0155 56.4524 32.5289C56.6147 32.0654 56.8232 31.6019 57.0782 31.1616C57.3331 30.7213 57.6343 30.3041 58.0051 29.887C58.3527 29.4699 58.7467 29.0991 59.1638 28.7283C59.581 28.3575 60.0676 28.0099 60.5543 27.6623C61.0641 27.3147 61.5971 27.0366 62.1533 26.7817C62.7095 26.5267 63.312 26.3182 63.8914 26.1791C64.4939 26.0169 65.0965 25.9474 65.699 25.9474C65.9771 25.9474 66.2552 25.9937 66.5564 26.1096C66.8577 26.2023 66.9967 26.3645 66.9967 26.5963V26.6426H67.0431ZM65.4441 26.9902C65.3282 26.8975 65.1428 26.828 64.9111 26.8048C64.6793 26.7817 64.4476 26.7585 64.2622 26.7585C63.7755 26.7585 63.2889 26.8744 62.779 27.1293C62.2924 27.3842 61.8057 27.6855 61.3654 28.0562C60.9251 28.427 60.5079 28.821 60.1372 29.2613C59.7664 29.7016 59.4651 30.1188 59.2334 30.4895C58.9321 31.0457 58.6772 31.5324 58.4918 31.9959C58.3064 32.4594 58.2137 32.8533 58.2137 33.1778C58.2137 33.4558 58.26 33.6644 58.3759 33.7803C58.4918 33.8962 58.654 33.9425 58.8857 33.9425C59.2102 33.9425 59.581 33.7803 60.0213 33.479C60.4384 33.1778 60.8787 32.8301 61.2959 32.413C61.713 31.9959 62.107 31.5787 62.4778 31.1384C62.8485 30.6981 63.1035 30.3505 63.2657 30.0724C63.4279 29.8175 63.6133 29.4931 63.8219 29.0759C63.9377 28.821 64.0536 28.5661 64.1695 28.3343C64.2853 28.1026 64.4476 27.8477 64.6561 27.6159C64.9111 27.361 65.1891 27.1293 65.4441 26.9902Z" fill="#D3AF4A"/>
<path d="M79.789 20.6868C79.789 21.3125 79.395 22.1236 78.5839 23.0969C78.329 23.3982 78.0046 23.7458 77.5874 24.1166C77.1935 24.4874 76.7532 24.8582 76.2665 25.2522C75.7798 25.6461 75.27 26.0401 74.737 26.4109C74.204 26.8048 73.6478 27.1524 73.1148 27.4537V27.5464C73.4856 27.4537 73.8332 27.4074 74.1576 27.361C74.4821 27.3378 74.7602 27.3147 75.0151 27.3147C75.4322 27.3147 75.803 27.4074 76.1043 27.5928C76.4055 27.7781 76.5446 28.1258 76.5446 28.6356C76.5446 28.9832 76.4751 29.354 76.3128 29.748C76.1506 30.1419 75.9421 30.5591 75.6871 30.953C75.4091 31.3702 75.1078 31.7641 74.7602 32.1813C74.4126 32.5752 74.0418 32.9692 73.6246 33.34C72.8367 34.0584 72.072 34.5682 71.3304 34.8695C70.5888 35.1707 69.9168 35.333 69.3374 35.333C68.9898 35.333 68.7117 35.2634 68.5031 35.1476C68.2946 35.0317 68.1555 34.8695 68.0628 34.7073C67.9701 34.545 67.9006 34.3596 67.8774 34.1511C67.8542 33.9425 67.8542 33.7803 67.8542 33.6181C67.8542 33.0155 67.9701 32.3667 68.2019 31.6714C68.4336 30.9762 68.7117 30.2578 69.0361 29.5162C69.3142 28.8905 69.6618 28.2185 70.1022 27.5001C70.5193 26.7817 71.006 26.0401 71.539 25.3217C72.072 24.6033 72.6513 23.8849 73.2307 23.2128C73.8332 22.5408 74.4357 21.9382 75.0383 21.4284C75.6408 20.8954 76.2665 20.4783 76.8459 20.177C77.4484 19.8525 78.0046 19.7135 78.5376 19.7135C78.9315 19.7135 79.2328 19.783 79.4414 19.9221C79.6963 20.0843 79.789 20.3392 79.789 20.6868ZM77.8655 21.6833C77.8655 21.2662 77.6338 21.0344 77.1935 21.0344C76.7995 21.0344 76.4055 21.1735 76.0116 21.4284C75.5944 21.6833 75.2005 22.0309 74.8065 22.4481C74.4126 22.8652 74.0186 23.3287 73.6478 23.8617C73.277 24.3947 72.9294 24.9045 72.6281 25.4375C72.3037 25.9706 72.0256 26.4804 71.7707 26.9439C71.5158 27.4305 71.3304 27.8245 71.1913 28.1489C71.006 28.5429 70.8205 28.96 70.6583 29.4003C70.4961 29.8407 70.3339 30.281 70.218 30.6981C70.079 31.1384 69.9863 31.5324 69.8936 31.9263C69.8009 32.3203 69.7777 32.6679 69.7777 32.9692C69.7777 33.3168 69.8472 33.6181 69.9863 33.873C70.1253 34.1279 70.3802 34.2438 70.7974 34.2438C71.145 34.2438 71.4694 34.1511 71.8402 33.9657C72.1878 33.7803 72.5818 33.5022 73.0221 33.0851C73.5319 32.5984 73.9723 31.9959 74.3199 31.3238C74.6675 30.6286 74.8297 29.9797 74.8297 29.354C74.8297 29.215 74.8297 29.0527 74.8065 28.8905C74.7833 28.7283 74.737 28.5661 74.6675 28.4038C74.5748 28.2416 74.4589 28.1258 74.2735 28.0331C74.0881 27.9404 73.8332 27.894 73.4856 27.894C73.0916 27.894 72.7672 27.9404 72.4659 28.0331C72.1647 28.1258 71.9793 28.1953 71.9097 28.2185V27.6623C72.3037 27.4305 72.8367 27.0829 73.5088 26.6426C74.1808 26.2023 74.8529 25.6925 75.5017 25.1363C76.1506 24.5801 76.7068 24.0007 77.1935 23.3982C77.6338 22.8189 77.8655 22.2395 77.8655 21.6833Z" fill="#D3AF4A"/>
<path d="M86.5557 27.8014C86.5557 28.6357 86.3703 29.4468 85.9764 30.2347C85.5824 31.0458 85.0958 31.7874 84.5164 32.4826C83.6358 33.5023 82.7783 34.2439 81.944 34.7073C81.0866 35.1708 80.206 35.4026 79.3022 35.4026C77.8654 35.4026 77.147 34.6842 77.147 33.2705C77.147 32.7375 77.2397 32.2045 77.4482 31.6252C77.6568 31.0458 77.9117 30.4896 78.2593 29.9566C78.607 29.4236 79.0241 28.8906 79.4876 28.4039C79.9511 27.9173 80.4841 27.477 81.0171 27.1062C81.5733 26.7354 82.1526 26.4341 82.7551 26.2256C83.3577 26.017 83.9834 25.9011 84.6091 25.9011C85.2348 25.9011 85.7214 26.0633 86.0691 26.411C86.3703 26.7586 86.5557 27.2221 86.5557 27.8014ZM84.6554 28.5662C84.6554 27.9405 84.5627 27.5233 84.3542 27.2684C84.1456 27.0367 83.8212 26.8976 83.3113 26.8976C82.199 26.8976 81.2256 27.5465 80.3218 28.8674C79.4181 30.1652 78.9777 31.5325 78.9777 32.9693C78.9777 33.4328 79.0936 33.7804 79.3022 34.0816C79.5108 34.3597 79.8584 34.4988 80.3682 34.4988C80.7853 34.4988 81.1793 34.3829 81.5501 34.1743C81.9209 33.9658 82.2685 33.6877 82.5929 33.3401C82.9174 32.9924 83.1955 32.5985 83.4504 32.1813C83.7053 31.741 83.9139 31.3239 84.0992 30.8836C84.2846 30.4433 84.4237 30.0261 84.5164 29.609C84.6091 29.215 84.6554 28.8674 84.6554 28.5662Z" fill="#D3AF4A"/>
<path d="M99.2089 20.6868C99.2089 21.3125 98.8149 22.1236 98.0039 23.0969C97.7489 23.3982 97.4245 23.7458 97.0074 24.1166C96.6134 24.4874 96.1731 24.8582 95.6864 25.2522C95.1998 25.6461 94.6899 26.0401 94.1569 26.4109C93.6239 26.8048 93.0677 27.1524 92.5347 27.4537V27.5464C92.9055 27.4537 93.2531 27.4074 93.5776 27.361C93.902 27.3378 94.1801 27.3147 94.435 27.3147C94.8522 27.3147 95.223 27.4074 95.5242 27.5928C95.8255 27.7781 95.9645 28.1258 95.9645 28.6356C95.9645 28.9832 95.895 29.354 95.7328 29.748C95.5706 30.1419 95.362 30.5591 95.1071 30.953C94.829 31.3702 94.5277 31.7641 94.1801 32.1813C93.8325 32.5752 93.4617 32.9692 93.0446 33.34C92.2566 34.0584 91.4919 34.5682 90.7503 34.8695C90.0087 35.1707 89.3367 35.333 88.7573 35.333C88.4097 35.333 88.1316 35.2634 87.923 35.1476C87.7145 35.0317 87.5754 34.8695 87.4827 34.7073C87.39 34.545 87.3205 34.3596 87.2974 34.1511C87.2742 33.9425 87.2742 33.7803 87.2742 33.6181C87.2742 33.0155 87.39 32.3667 87.6218 31.6714C87.8535 30.9762 88.1316 30.2578 88.4561 29.5162C88.7342 28.8905 89.0818 28.2185 89.5221 27.5001C89.9392 26.7817 90.4259 26.0401 90.9589 25.3217C91.4919 24.6033 92.0712 23.8849 92.6506 23.2128C93.2531 22.5408 93.8557 21.9382 94.4582 21.4284C95.0607 20.8954 95.6864 20.4783 96.2658 20.177C96.8683 19.8525 97.4245 19.7135 97.9575 19.7135C98.3515 19.7135 98.6527 19.783 98.8613 19.9221C99.093 20.0843 99.2089 20.3392 99.2089 20.6868ZM97.2623 21.6833C97.2623 21.2662 97.0305 21.0344 96.5902 21.0344C96.1963 21.0344 95.8023 21.1735 95.4083 21.4284C94.9912 21.6833 94.5972 22.0309 94.2033 22.4481C93.8093 22.8652 93.4154 23.3287 93.0446 23.8617C92.6738 24.3947 92.3262 24.9045 92.0249 25.4375C91.7005 25.9706 91.4224 26.4804 91.1674 26.9439C90.9125 27.4305 90.7271 27.8245 90.5881 28.1489C90.4027 28.5429 90.2173 28.96 90.0551 29.4003C89.8929 29.8407 89.7307 30.281 89.6148 30.6981C89.4757 31.1384 89.383 31.5324 89.2903 31.9263C89.1976 32.3203 89.1745 32.6679 89.1745 32.9692C89.1745 33.3168 89.244 33.6181 89.383 33.873C89.5221 34.1279 89.777 34.2438 90.1941 34.2438C90.5417 34.2438 90.8662 34.1511 91.237 33.9657C91.5846 33.7803 91.9785 33.5022 92.4189 33.0851C92.9287 32.5984 93.369 31.9959 93.7166 31.3238C94.0642 30.6286 94.2264 29.9797 94.2264 29.354C94.2264 29.215 94.2265 29.0527 94.2033 28.8905C94.1801 28.7283 94.1337 28.5661 94.0642 28.4038C93.9715 28.2416 93.8557 28.1258 93.6703 28.0331C93.4849 27.9404 93.23 27.894 92.8823 27.894C92.4884 27.894 92.1639 27.9404 91.8627 28.0331C91.5614 28.1258 91.376 28.1953 91.3065 28.2185V27.6623C91.7005 27.4305 92.2335 27.0829 92.9055 26.6426C93.5776 26.2023 94.2496 25.6925 94.8985 25.1363C95.5474 24.5801 96.1036 24.0007 96.5902 23.3982C97.0305 22.8189 97.2623 22.2395 97.2623 21.6833Z" fill="#D3AF4A"/>
<path d="M104.794 30.1652C104.794 30.5128 104.678 30.9299 104.469 31.4398C104.261 31.9496 103.913 32.4363 103.45 32.9229C103.287 33.1083 103.079 33.2937 102.824 33.5023C102.569 33.7108 102.291 33.9194 102.013 34.1048C101.712 34.3134 101.41 34.4756 101.086 34.661C100.761 34.8464 100.46 34.9391 100.136 35.0318C99.6491 35.194 99.232 35.2867 98.9075 35.3099C98.5831 35.333 98.2818 35.3562 97.9574 35.3562C97.5634 35.3562 97.3085 35.2635 97.1463 35.1013C96.9841 34.9391 96.9146 34.7305 96.9146 34.5451C96.9146 34.3134 96.9609 34.0353 97.0768 33.7108C97.1926 33.3864 97.3549 32.9693 97.5866 32.4594C97.7025 32.2045 97.8415 31.8801 98.0037 31.4861C98.1891 31.0922 98.3514 30.675 98.5367 30.2347C98.7221 29.7944 98.9075 29.3773 99.0698 28.9833C99.232 28.5893 99.371 28.2649 99.4637 27.9868C99.5101 27.8709 99.5564 27.7551 99.5796 27.6392C99.6259 27.5465 99.6259 27.4538 99.6259 27.3611C99.6259 27.2452 99.5564 27.1757 99.4405 27.1757C99.3247 27.1757 99.1624 27.2221 98.9539 27.2916C98.7453 27.3843 98.5367 27.4538 98.3513 27.5697C98.0964 27.6855 97.8647 27.8014 97.6098 27.9405L97.4707 27.5465C97.6561 27.4306 97.8879 27.3148 98.1891 27.1525C98.4904 26.9903 98.7917 26.8513 99.1161 26.7122C99.4405 26.5732 99.7418 26.4341 100.02 26.3183C100.298 26.2024 100.53 26.1097 100.692 26.0633C101.016 25.9475 101.294 25.9011 101.526 25.9011C101.596 25.9011 101.665 25.9243 101.712 25.9475C101.758 25.9706 101.781 26.0633 101.781 26.2024C101.781 26.2256 101.758 26.2951 101.712 26.4341C101.665 26.5732 101.596 26.7122 101.526 26.8744C101.457 27.0367 101.364 27.2221 101.294 27.4306C101.202 27.616 101.132 27.8014 101.086 27.9636C100.97 28.1954 100.877 28.4503 100.761 28.7052C100.646 28.9601 100.507 29.2614 100.368 29.5858C100.831 29.3541 101.318 29.1687 101.804 29.0065C102.291 28.8443 102.754 28.7747 103.195 28.7747C103.774 28.7747 104.168 28.8906 104.4 29.0992C104.678 29.3077 104.794 29.6785 104.794 30.1652ZM102.986 30.675C102.986 30.4664 102.963 30.2811 102.893 30.142C102.824 30.003 102.754 29.9103 102.662 29.8639C102.569 29.7944 102.453 29.7712 102.337 29.748C102.221 29.7249 102.082 29.7249 101.943 29.7249C101.688 29.7249 101.387 29.7712 101.063 29.8871C100.738 30.003 100.46 30.1188 100.182 30.2579C100.043 30.5823 99.904 30.9068 99.7418 31.2544C99.5796 31.602 99.4405 31.9264 99.3015 32.274C99.1624 32.6217 99.0466 32.9229 98.977 33.201C98.8844 33.4791 98.8612 33.734 98.8612 33.9194C98.8612 34.1048 98.9075 34.2439 99.0002 34.3365C99.0929 34.4292 99.2783 34.4756 99.5564 34.4756C99.9272 34.4756 100.344 34.3829 100.738 34.1743C101.132 33.9658 101.526 33.7108 101.851 33.3632C102.198 33.0156 102.453 32.6217 102.685 32.1582C102.87 31.7179 102.986 31.208 102.986 30.675ZM109.66 26.1097C109.66 26.2024 109.452 26.6659 109.035 27.5001C108.618 28.3576 108.061 29.6322 107.343 31.3702C107.25 31.5788 107.158 31.7874 107.065 31.9959C106.972 32.2045 106.879 32.4131 106.81 32.5985C106.74 32.7839 106.671 32.9461 106.625 33.1083C106.578 33.2705 106.555 33.3864 106.555 33.4791C106.555 33.6181 106.578 33.6877 106.625 33.734C106.671 33.7572 106.74 33.7804 106.856 33.7804C106.972 33.7804 107.158 33.734 107.366 33.6181C107.575 33.5023 107.783 33.3864 108.015 33.2474C108.27 33.0851 108.502 32.9229 108.78 32.7144L108.965 33.1547C108.803 33.2937 108.548 33.4791 108.224 33.734C107.899 33.9889 107.552 34.2439 107.158 34.4756C106.787 34.7305 106.393 34.9391 105.999 35.1245C105.605 35.3099 105.257 35.4026 104.979 35.4026C104.771 35.4026 104.655 35.3562 104.585 35.2635C104.516 35.1708 104.493 35.0781 104.493 34.9391C104.493 34.8 104.539 34.6146 104.632 34.3134C104.724 34.0121 104.84 33.6877 105.002 33.2937C105.165 32.8997 105.327 32.5058 105.512 32.0655C105.698 31.6252 105.883 31.208 106.068 30.7677C106.254 30.3506 106.416 29.9566 106.578 29.5858C106.74 29.215 106.856 28.9138 106.972 28.682C107.181 28.1954 107.412 27.7087 107.644 27.2684C107.876 26.8049 108.108 26.5037 108.339 26.3646C108.594 26.2024 108.78 26.1097 108.965 26.0402C109.127 25.9706 109.313 25.9475 109.475 25.9475C109.521 25.9475 109.568 25.9475 109.614 25.9706C109.637 25.9475 109.66 26.017 109.66 26.1097Z" fill="#D3AF4A"/>
<path d="M118.699 26.6195C118.699 26.8976 118.606 27.1757 118.397 27.477C118.189 27.7782 117.957 28.0563 117.656 28.3344C117.354 28.6125 117.053 28.8674 116.729 29.0991C116.404 29.3309 116.126 29.5395 115.871 29.7017C115.338 30.0493 114.782 30.3737 114.18 30.6518C113.6 30.9299 112.951 31.1617 112.256 31.3239C112.187 31.5093 112.14 31.7178 112.117 31.9032C112.094 32.1118 112.071 32.2277 112.071 32.2972C112.071 33.0156 112.233 33.5254 112.557 33.8499C112.882 34.1743 113.368 34.3134 113.994 34.3134C114.55 34.3134 115.107 34.1743 115.663 33.9194C116.219 33.6413 116.729 33.3864 117.169 33.1083L117.354 33.4096C117.099 33.6181 116.775 33.8499 116.427 34.0816C116.057 34.3134 115.686 34.5219 115.269 34.7305C114.852 34.9391 114.434 35.1013 114.017 35.2172C113.6 35.333 113.16 35.4025 112.743 35.4025C111.955 35.4025 111.329 35.2172 110.866 34.8464C110.402 34.4756 110.17 33.8962 110.17 33.1083C110.17 31.4397 110.912 29.9102 112.418 28.4734C112.743 28.1722 113.114 27.8709 113.531 27.5465C113.948 27.222 114.365 26.9671 114.828 26.7122C115.269 26.4573 115.755 26.2719 116.219 26.1097C116.706 25.9475 117.169 25.8779 117.656 25.8779C118.351 25.9243 118.699 26.156 118.699 26.6195ZM116.752 27.4306C116.752 27.1062 116.543 26.9671 116.149 26.9671C115.848 26.9671 115.524 27.083 115.153 27.2916C114.805 27.5001 114.458 27.8014 114.133 28.1258C113.809 28.4734 113.507 28.8442 113.229 29.2845C112.951 29.7017 112.743 30.142 112.604 30.5591C112.998 30.4896 113.438 30.3506 113.925 30.1652C114.411 29.9566 114.852 29.7249 115.269 29.4236C115.686 29.1455 116.033 28.8211 116.312 28.4734C116.613 28.1258 116.752 27.7782 116.752 27.4306Z" fill="#D3AF4A"/>
<path d="M140.9 26.4341C140.9 26.5963 140.853 26.8049 140.784 27.0829C140.714 27.3379 140.622 27.616 140.506 27.9172C140.39 28.2185 140.274 28.5197 140.158 28.821C140.042 29.1223 139.926 29.3772 139.81 29.6089L139.046 31.3238C138.976 31.4629 138.907 31.6251 138.814 31.8337C138.721 32.0422 138.629 32.2508 138.559 32.4594C138.466 32.6679 138.397 32.8765 138.35 33.0619C138.281 33.2473 138.258 33.3863 138.258 33.479C138.258 33.6644 138.35 33.7571 138.559 33.7571C138.675 33.7571 138.814 33.7108 138.976 33.6413C139.162 33.5717 139.393 33.4327 139.695 33.2241L140.459 32.6911L140.645 33.1314C139.671 33.9194 138.883 34.4987 138.235 34.8463C137.586 35.2171 137.076 35.4025 136.682 35.4025C136.357 35.4025 136.195 35.2403 136.195 34.939C136.195 34.8231 136.218 34.6609 136.288 34.4524C136.357 34.2438 136.427 34.012 136.497 33.7803C136.589 33.5486 136.682 33.2936 136.775 33.0387C136.867 32.7838 136.96 32.5752 137.053 32.3667L137.864 30.42C138.119 29.7943 138.327 29.2613 138.466 28.8674C138.605 28.4734 138.675 28.1953 138.675 28.1026C138.675 27.9172 138.582 27.8245 138.42 27.8245C138.142 27.8245 137.841 27.9172 137.493 28.1258C137.145 28.3344 136.821 28.5893 136.473 28.8905C136.126 29.1918 135.778 29.5394 135.431 29.9334C135.083 30.3273 134.758 30.6981 134.48 31.0689C134.179 31.4397 133.947 31.7873 133.716 32.1118C133.507 32.4362 133.345 32.6911 133.252 32.8765L132.812 33.7571C132.742 33.873 132.719 33.9657 132.696 34.0352C132.673 34.1047 132.626 34.1743 132.58 34.2206L132.163 34.6378C131.908 34.8927 131.676 35.0549 131.491 35.1708C131.305 35.2635 131.12 35.333 130.981 35.333C130.796 35.333 130.703 35.2403 130.703 35.0549C130.703 34.8927 130.796 34.6378 130.958 34.267C131.12 33.8962 131.329 33.479 131.56 32.9924L132.14 31.7873C132.65 30.6518 133.044 29.748 133.275 29.0759C133.507 28.4039 133.623 27.9867 133.623 27.8477C133.623 27.7318 133.577 27.6623 133.461 27.6623C133.206 27.6623 132.905 27.755 132.557 27.9636C132.209 28.1721 131.839 28.427 131.468 28.7747C131.074 29.0991 130.703 29.4699 130.332 29.887C129.961 30.281 129.614 30.6981 129.289 31.0921C128.965 31.4861 128.687 31.8337 128.455 32.1813C128.223 32.5057 128.061 32.7606 127.968 32.9692L127.574 33.8035C127.505 33.9193 127.482 34.012 127.459 34.0816C127.435 34.1511 127.389 34.2206 127.343 34.267L126.926 34.6841C126.671 34.939 126.439 35.1012 126.254 35.2171C126.068 35.3098 125.883 35.3793 125.744 35.3793C125.558 35.3793 125.466 35.2866 125.466 35.1012C125.466 35.0085 125.535 34.8231 125.651 34.5451C125.767 34.267 125.906 33.9657 126.068 33.6644L127.25 31.1384C127.621 30.3042 127.945 29.5626 128.177 28.8905C128.409 28.2185 128.525 27.7318 128.525 27.4537C128.525 27.2915 128.478 27.222 128.362 27.222C128.246 27.222 128.061 27.2683 127.806 27.361C127.528 27.4537 127.111 27.6623 126.532 27.9867L126.393 27.5928C126.601 27.4769 126.902 27.3147 127.25 27.1293C127.621 26.9439 127.992 26.7585 128.386 26.5731C128.78 26.3877 129.173 26.2487 129.544 26.1096C129.938 25.9938 130.239 25.9242 130.518 25.9242C130.703 25.9242 130.796 26.0169 130.796 26.2023C130.796 26.2718 130.749 26.4572 130.657 26.7585C130.564 27.0598 130.402 27.4537 130.193 27.9636L129.15 30.3042L129.313 30.3505C129.869 29.748 130.425 29.1686 131.004 28.6356C131.584 28.1026 132.14 27.6391 132.673 27.222C133.206 26.828 133.716 26.5036 134.179 26.2718C134.643 26.0401 135.06 25.9242 135.407 25.9242C135.593 25.9242 135.709 25.9706 135.778 26.0633C135.848 26.156 135.871 26.2718 135.871 26.4341C135.871 26.828 135.639 27.5696 135.152 28.7283L134.55 30.1883C135.245 29.5394 135.894 28.8905 136.543 28.3112C137.192 27.7086 137.887 27.1525 138.629 26.6426C139.277 26.1791 139.903 25.9474 140.506 25.9474C140.761 25.9242 140.9 26.0864 140.9 26.4341ZM142.29 20.5015C142.012 21.0808 141.618 21.6138 141.108 22.1237C140.598 22.6335 139.973 23.0043 139.231 23.2824C138.397 23.6068 137.586 23.7922 136.798 23.8385C136.033 23.9081 135.222 23.9312 134.388 23.9312C133.438 23.9312 132.65 23.9312 132.047 23.9544C131.445 23.9776 130.912 24.0239 130.448 24.0935C130.008 24.163 129.591 24.2789 129.243 24.4411C128.895 24.6033 128.501 24.8119 128.084 25.09L127.992 24.8119C128.339 24.5338 128.64 24.2789 128.942 24.0935C129.243 23.9081 129.521 23.7458 129.776 23.63C130.054 23.5141 130.309 23.3982 130.587 23.3287C130.865 23.2592 131.166 23.1665 131.491 23.0738C131.954 22.9579 132.441 22.8652 132.928 22.8189C133.414 22.7725 133.901 22.7494 134.388 22.7262C134.874 22.703 135.384 22.703 135.894 22.6798C136.404 22.6567 136.914 22.6335 137.447 22.564C138.42 22.4481 139.301 22.2395 140.042 21.9151C140.807 21.5906 141.456 21.0808 141.989 20.3392L142.29 20.5015Z" fill="#D3AF4A"/>
<path d="M150.424 26.6195C150.424 26.8976 150.331 27.1757 150.123 27.477C149.914 27.7782 149.683 28.0563 149.381 28.3344C149.08 28.6125 148.779 28.8674 148.454 29.0991C148.13 29.3309 147.852 29.5395 147.597 29.7017C147.064 30.0493 146.508 30.3737 145.905 30.6518C145.326 30.9299 144.677 31.1617 143.982 31.3239C143.912 31.5093 143.866 31.7178 143.843 31.9032C143.819 32.1118 143.796 32.2277 143.796 32.2972C143.796 33.0156 143.959 33.5254 144.283 33.8499C144.607 34.1743 145.094 34.3134 145.72 34.3134C146.276 34.3134 146.832 34.1743 147.388 33.9194C147.944 33.6413 148.454 33.3864 148.895 33.1083L149.08 33.4096C148.825 33.6181 148.501 33.8499 148.153 34.0816C147.782 34.3134 147.411 34.5219 146.994 34.7305C146.577 34.9391 146.16 35.1013 145.743 35.2172C145.326 35.333 144.885 35.4025 144.468 35.4025C143.68 35.4025 143.055 35.2172 142.591 34.8464C142.128 34.4756 141.896 33.8962 141.896 33.1083C141.896 31.4397 142.638 29.9102 144.144 28.4734C144.468 28.1722 144.839 27.8709 145.256 27.5465C145.673 27.222 146.091 26.9671 146.554 26.7122C146.994 26.4573 147.481 26.2719 147.944 26.1097C148.431 25.9475 148.895 25.8779 149.381 25.8779C150.077 25.9243 150.424 26.156 150.424 26.6195ZM148.477 27.4306C148.477 27.1062 148.269 26.9671 147.875 26.9671C147.574 26.9671 147.249 27.083 146.878 27.2916C146.531 27.5001 146.183 27.8014 145.859 28.1258C145.534 28.4734 145.233 28.8442 144.955 29.2845C144.677 29.7017 144.468 30.142 144.329 30.5591C144.723 30.4896 145.164 30.3506 145.65 30.1652C146.137 29.9566 146.577 29.7249 146.994 29.4236C147.411 29.1455 147.759 28.8211 148.037 28.4734C148.338 28.1258 148.477 27.7782 148.477 27.4306Z" fill="#D3AF4A"/>
<path d="M160.482 25.9937C160.482 26.2023 160.319 26.5036 160.018 26.8975C159.717 27.2915 159.323 27.7318 158.859 28.1953C158.419 28.6588 157.932 29.1454 157.423 29.6553C156.913 30.1419 156.449 30.6054 156.055 31.0226L156.241 31.9495C156.31 32.2276 156.357 32.4825 156.403 32.6911C156.449 32.8997 156.496 33.0851 156.542 33.2473C156.635 33.5254 156.727 33.7108 156.797 33.8498C156.936 34.0352 157.121 34.1279 157.353 34.1279C157.701 34.1279 158.095 33.9657 158.581 33.6181C158.952 33.3632 159.346 33.0387 159.786 32.6216L159.949 33.0619C158.465 34.6377 157.168 35.4257 156.102 35.4257C155.685 35.4257 155.383 35.0317 155.152 34.2206C155.012 33.7108 154.85 32.9692 154.665 32.0191C154.479 32.2044 154.294 32.413 154.086 32.6216C153.877 32.8302 153.645 33.0387 153.413 33.2705C152.556 34.0584 151.907 34.6146 151.444 34.939C150.98 35.2866 150.586 35.4488 150.215 35.4488C150.053 35.4488 149.937 35.3793 149.845 35.2634C149.752 35.1476 149.706 34.939 149.706 34.6377C149.706 34.4524 149.729 34.2438 149.798 33.9657C150.215 33.9657 150.887 33.7571 151.768 33.3168C152.788 32.807 153.715 32.1813 154.526 31.3933L154.086 28.7051C153.993 28.1258 153.877 27.755 153.738 27.5928C153.599 27.4305 153.367 27.361 153.043 27.361C152.695 27.361 152.324 27.4305 151.93 27.5696C151.536 27.7086 151.166 27.8709 150.818 28.0099L150.725 27.6159C150.911 27.5001 151.189 27.361 151.56 27.1756C151.93 26.9902 152.324 26.8048 152.741 26.6194C153.159 26.4341 153.553 26.295 153.923 26.156C154.294 26.0169 154.595 25.9706 154.781 25.9706C155.036 25.9706 155.198 26.1096 155.267 26.3645C155.36 26.6195 155.43 27.0829 155.522 27.7318L155.916 30.42C156.565 29.7943 157.191 29.1454 157.77 28.4502C158.35 27.755 158.836 26.9439 159.277 26.0633C159.392 26.0169 159.508 25.9706 159.67 25.901C159.833 25.8315 160.041 25.8083 160.273 25.8083C160.343 25.8083 160.412 25.8315 160.435 25.8547C160.482 25.8083 160.482 25.8779 160.482 25.9937Z" fill="#D3AF4A"/>
<path d="M171.536 26.1097C171.466 26.2256 171.397 26.3646 171.327 26.5268C171.234 26.689 171.165 26.8513 171.072 27.0135C170.98 27.1757 170.91 27.3379 170.841 27.477C170.771 27.616 170.725 27.7087 170.701 27.7782C170.539 28.1258 170.331 28.6125 170.076 29.1919C169.821 29.7712 169.52 30.4896 169.149 31.3239C168.94 31.8106 168.755 32.2509 168.593 32.6217C168.43 33.0156 168.361 33.2937 168.361 33.4791C168.361 33.6181 168.384 33.6877 168.43 33.734C168.477 33.7572 168.546 33.7804 168.662 33.7804C168.778 33.7804 168.963 33.734 169.172 33.6181C169.381 33.5023 169.589 33.3864 169.821 33.2474C170.076 33.0851 170.308 32.9229 170.586 32.7144L170.771 33.1547C170.609 33.2937 170.354 33.4791 170.029 33.734C169.705 33.9889 169.357 34.2439 168.963 34.4756C168.593 34.7305 168.199 34.9391 167.805 35.1245C167.411 35.3099 167.063 35.4026 166.785 35.4026C166.576 35.4026 166.461 35.3562 166.391 35.2635C166.322 35.1708 166.298 35.0781 166.298 34.9391C166.298 34.8 166.322 34.661 166.368 34.4524C166.414 34.2439 166.484 34.0353 166.576 33.8035C166.669 33.5718 166.762 33.3401 166.855 33.0851C166.947 32.8302 167.04 32.5985 167.133 32.3899L167.967 30.4201C167.619 30.536 167.318 30.6055 167.086 30.6518C166.855 30.6982 166.6 30.7445 166.275 30.7677C165.835 30.8372 165.441 30.8836 165.093 30.8836C164.746 30.9068 164.444 30.9068 164.12 30.9531L162.892 33.8731C162.822 34.0816 162.729 34.2439 162.637 34.3365C162.567 34.4061 162.405 34.5451 162.15 34.7305C161.895 34.9159 161.663 35.0781 161.432 35.194C161.223 35.3099 161.061 35.3562 160.899 35.3562C160.76 35.3562 160.69 35.333 160.667 35.2867C160.644 35.2403 160.644 35.1708 160.644 35.1013C160.644 35.0318 160.69 34.8696 160.806 34.6146C160.922 34.3597 161.084 34.0121 161.293 33.595C161.501 33.1315 161.687 32.7375 161.872 32.3899C162.034 32.0655 162.15 31.7874 162.266 31.5093C162.382 31.2312 162.451 31.0922 162.475 31.0458C162.312 31.069 162.127 31.0922 161.965 31.1153C161.779 31.1385 161.617 31.1617 161.432 31.1848L161.524 30.8604C161.965 30.675 162.382 30.536 162.753 30.4433C162.845 30.2347 162.961 29.9566 163.077 29.6554C163.193 29.3541 163.309 29.0528 163.425 28.7516C163.541 28.4503 163.61 28.1954 163.68 27.9636C163.749 27.7319 163.772 27.5697 163.772 27.4538C163.772 27.2916 163.703 27.2221 163.564 27.2221C163.448 27.2221 163.286 27.2684 163.077 27.3379C162.869 27.4074 162.683 27.5001 162.475 27.5928C162.243 27.7087 162.011 27.8246 161.733 27.9636L161.594 27.5697C161.849 27.4306 162.15 27.2684 162.544 27.083C162.938 26.8976 163.309 26.7122 163.726 26.5268C164.12 26.3646 164.514 26.2024 164.862 26.0865C165.232 25.9706 165.51 25.9011 165.719 25.9011C165.789 25.9011 165.858 25.9243 165.904 25.9475C165.951 25.9706 165.974 26.0633 165.974 26.1792C165.974 26.2256 165.951 26.3183 165.928 26.4573C165.881 26.5732 165.835 26.7354 165.788 26.8976C165.719 27.0598 165.649 27.2452 165.58 27.4306C165.51 27.616 165.441 27.8014 165.371 27.9636L164.468 30.0725C164.838 30.0261 165.209 29.9798 165.557 29.9566C165.928 29.9334 166.275 29.9103 166.623 29.8639C166.994 29.8407 167.295 29.8176 167.55 29.7712C167.805 29.748 168.013 29.7249 168.222 29.6785L168.871 28.1027C169.033 27.6855 169.195 27.3379 169.357 27.0598C169.52 26.7817 169.705 26.5732 169.937 26.411C170.192 26.2487 170.423 26.1329 170.678 26.0402C170.933 25.9475 171.119 25.9011 171.304 25.9011C171.35 25.9011 171.397 25.9011 171.443 25.9243C171.489 25.9475 171.536 26.017 171.536 26.1097Z" fill="#D3AF4A"/>
<path d="M181.547 27.8014C181.547 28.6357 181.362 29.4468 180.968 30.2347C180.574 31.0458 180.087 31.7874 179.508 32.4826C178.627 33.5023 177.77 34.2439 176.935 34.7073C176.078 35.1708 175.197 35.4026 174.293 35.4026C172.857 35.4026 172.138 34.6842 172.138 33.2705C172.138 32.7375 172.231 32.2045 172.439 31.6252C172.648 31.0458 172.903 30.4896 173.251 29.9566C173.598 29.4236 174.015 28.8906 174.479 28.4039C174.942 27.9173 175.475 27.477 176.008 27.1062C176.564 26.7354 177.144 26.4341 177.746 26.2256C178.349 26.017 178.975 25.9011 179.6 25.9011C180.226 25.9011 180.713 26.0633 181.06 26.411C181.362 26.7586 181.547 27.2221 181.547 27.8014ZM179.67 28.5662C179.67 27.9405 179.577 27.5233 179.369 27.2684C179.16 27.0367 178.836 26.8976 178.326 26.8976C177.213 26.8976 176.24 27.5465 175.336 28.8674C174.432 30.1652 173.992 31.5325 173.992 32.9693C173.992 33.4328 174.108 33.7804 174.317 34.0816C174.525 34.3597 174.873 34.4988 175.383 34.4988C175.8 34.4988 176.194 34.3829 176.564 34.1743C176.935 33.9658 177.283 33.6877 177.607 33.3401C177.932 32.9924 178.21 32.5985 178.465 32.1813C178.72 31.741 178.928 31.3239 179.114 30.8836C179.299 30.4433 179.438 30.0261 179.531 29.609C179.6 29.215 179.67 28.8674 179.67 28.5662Z" fill="#D3AF4A"/>
<path d="M191.558 26.2023C191.558 26.3413 191.419 26.6426 191.164 27.0829C190.91 27.5232 190.631 28.0331 190.353 28.6124C190.214 28.8905 190.029 29.2845 189.797 29.7479C189.565 30.2114 189.334 30.6981 189.102 31.2079C188.87 31.6946 188.685 32.1581 188.523 32.5752C188.36 32.9923 188.268 33.2704 188.268 33.4327C188.268 33.618 188.384 33.7107 188.592 33.7107C188.754 33.7107 188.893 33.6876 189.056 33.618C189.218 33.5485 189.357 33.5022 189.496 33.4327C189.658 33.34 189.797 33.2473 189.959 33.1546L190.145 33.5949C189.983 33.7339 189.751 33.8961 189.473 34.1047C189.195 34.3133 188.893 34.5218 188.546 34.7072C188.221 34.9158 187.874 35.078 187.526 35.2171C187.178 35.3561 186.854 35.4256 186.576 35.4256C186.228 35.4256 186.043 35.2634 186.043 34.9158C186.043 34.7536 186.089 34.5218 186.182 34.2206C186.275 33.9193 186.414 33.5717 186.553 33.2009C186.715 32.8301 186.877 32.4362 187.063 32.019C187.248 31.6019 187.433 31.2079 187.619 30.8371C187.804 30.4663 187.966 30.1187 188.129 29.8175C188.291 29.5162 188.407 29.2845 188.499 29.0991C188.754 28.5661 188.94 28.1721 189.079 27.9172C189.195 27.6391 189.264 27.4537 189.264 27.361C189.264 27.2683 189.195 27.2451 189.079 27.2451C188.685 27.2451 188.175 27.4769 187.503 27.9635C186.831 28.4502 186.089 29.1222 185.278 29.9797C184.699 30.6054 184.189 31.2543 183.749 31.9263C183.308 32.6216 183.1 33.34 183.1 34.1047C183.1 34.2669 183.1 34.3596 183.123 34.406C182.914 34.6841 182.659 34.939 182.358 35.1475C182.057 35.3561 181.802 35.4488 181.57 35.4488C181.385 35.4488 181.246 35.4025 181.13 35.3098C181.014 35.2171 180.968 35.0548 180.968 34.7768C180.968 34.2901 181.339 33.5485 182.103 32.5057C182.636 31.7873 183.285 31.0225 184.05 30.2346C184.815 29.4467 185.626 28.7051 186.506 27.9867C186.715 27.8245 186.947 27.6623 187.202 27.4769C187.48 27.3146 187.735 27.1524 188.013 26.9902C188.291 26.828 188.546 26.7121 188.801 26.5731C189.056 26.4572 189.264 26.3645 189.45 26.295C189.704 26.1791 190.029 26.0864 190.4 26.0169C190.771 25.9474 191.049 25.9242 191.234 25.9242C191.304 25.9242 191.373 25.9242 191.443 25.9474C191.512 25.9705 191.558 26.0632 191.558 26.2023Z" fill="#D3AF4A"/>
<path d="M201.106 27.8014C201.106 28.6357 200.921 29.4468 200.527 30.2347C200.133 31.0458 199.646 31.7874 199.067 32.4826C198.186 33.5023 197.329 34.2439 196.495 34.7073C195.637 35.1708 194.757 35.4026 193.853 35.4026C192.416 35.4026 191.698 34.6842 191.698 33.2705C191.698 32.7375 191.79 32.2045 191.999 31.6252C192.207 31.0458 192.462 30.4896 192.81 29.9566C193.157 29.4236 193.575 28.8906 194.038 28.4039C194.502 27.9173 195.035 27.477 195.568 27.1062C196.124 26.7354 196.703 26.4341 197.306 26.2256C197.908 26.017 198.534 25.9011 199.16 25.9011C199.785 25.9011 200.272 26.0633 200.62 26.411C200.921 26.7586 201.106 27.2221 201.106 27.8014ZM199.229 28.5662C199.229 27.9405 199.136 27.5233 198.928 27.2684C198.719 27.0367 198.395 26.8976 197.885 26.8976C196.773 26.8976 195.799 27.5465 194.896 28.8674C193.992 30.1652 193.551 31.5325 193.551 32.9693C193.551 33.4328 193.667 33.7804 193.876 34.0816C194.084 34.3597 194.432 34.4988 194.942 34.4988C195.359 34.4988 195.753 34.3829 196.124 34.1743C196.495 33.9658 196.842 33.6877 197.167 33.3401C197.491 32.9924 197.769 32.5985 198.024 32.1813C198.279 31.741 198.488 31.3239 198.673 30.8836C198.858 30.4433 198.997 30.0261 199.09 29.609C199.16 29.215 199.229 28.8674 199.229 28.5662Z" fill="#D3AF4A"/>
<path d="M207.688 26.5731C207.688 27.0366 207.479 27.5464 207.062 28.1489C206.645 28.7515 206.019 29.5394 205.208 30.5127C204.814 30.9762 204.513 31.347 204.281 31.6483C204.049 31.9495 203.864 32.2276 203.748 32.4362C203.632 32.6447 203.54 32.8301 203.493 32.9924C203.447 33.1546 203.424 33.2705 203.424 33.4095C203.424 33.6181 203.493 33.7803 203.632 33.8498C203.771 33.9193 203.91 33.9657 204.026 33.9657C204.235 33.9657 204.42 33.9425 204.629 33.873C204.837 33.8035 205.023 33.7108 205.231 33.5949C205.44 33.479 205.625 33.3631 205.787 33.2241C205.973 33.0851 206.135 32.9692 206.274 32.8533L206.506 33.1314C206.181 33.4095 205.857 33.7108 205.532 33.9889C205.208 34.2669 204.884 34.5219 204.536 34.7536C204.188 34.9622 203.841 35.1476 203.493 35.2866C203.146 35.4257 202.775 35.4952 202.381 35.4952C202.01 35.4952 201.755 35.4257 201.616 35.2866C201.477 35.1476 201.407 34.9622 201.407 34.7304C201.407 34.545 201.454 34.3365 201.57 34.1047C201.686 33.873 201.848 33.6181 202.08 33.2936C202.311 32.9692 202.613 32.5984 202.983 32.1581C203.354 31.7178 203.794 31.2079 204.304 30.5822C204.629 30.1883 204.884 29.8638 205.069 29.5626C205.254 29.2845 205.417 29.0064 205.509 28.7978C205.602 28.5661 205.672 28.3807 205.695 28.1953C205.718 28.0331 205.718 27.8477 205.718 27.6855C205.718 27.5001 205.648 27.361 205.532 27.2915C205.417 27.222 205.254 27.1988 205.092 27.1988C204.93 27.1988 204.768 27.2451 204.559 27.3147C204.351 27.3842 204.165 27.4769 203.957 27.5928C203.748 27.7086 203.539 27.8477 203.331 27.9867C203.122 28.1489 202.937 28.288 202.752 28.4502L202.52 28.1721C202.821 27.9404 203.122 27.6855 203.47 27.4305C203.818 27.1756 204.165 26.9207 204.559 26.7121C204.93 26.5036 205.324 26.3182 205.741 26.156C206.135 26.0169 206.552 25.9474 206.946 25.9474C207.108 25.9474 207.271 25.9937 207.433 26.0633C207.618 26.1096 207.688 26.295 207.688 26.5731Z" fill="#D3AF4A"/>
<path d="M219.344 26.1097C219.344 26.1328 219.252 26.3414 219.066 26.7122C218.881 27.083 218.672 27.5465 218.441 28.1026L217.027 31.3934C216.957 31.5556 216.888 31.7178 216.795 31.9264C216.703 32.135 216.61 32.3204 216.54 32.5289C216.471 32.7375 216.401 32.9229 216.332 33.0851C216.262 33.2705 216.239 33.4096 216.239 33.5022C216.239 33.6876 216.332 33.7803 216.54 33.7803C216.656 33.7803 216.842 33.7108 217.143 33.5486C217.444 33.3864 217.884 33.1083 218.441 32.7143L218.626 33.1546C217.653 33.9426 216.865 34.5219 216.216 34.8695C215.567 35.2403 215.057 35.4257 214.663 35.4257C214.339 35.4257 214.177 35.2635 214.177 34.9622C214.177 34.8 214.2 34.6146 214.246 34.406C214.292 34.1975 214.362 33.9889 214.455 33.7572C214.547 33.5254 214.64 33.2937 214.733 33.0619C214.825 32.8302 214.918 32.5985 215.011 32.3899C215.289 31.7642 215.521 31.2543 215.706 30.8372C215.891 30.4201 216.054 30.0725 216.17 29.8175C216.285 29.5395 216.401 29.3309 216.471 29.1687C216.54 29.0064 216.61 28.8442 216.679 28.7284H216.471L215.845 29.4004C215.405 29.8871 214.918 30.3969 214.408 30.9531C213.898 31.5093 213.365 32.0423 212.856 32.5521C212.346 33.0851 211.813 33.5486 211.326 34.0121C210.816 34.4524 210.353 34.8232 209.959 35.1244C209.843 35.2171 209.704 35.2867 209.542 35.333C209.379 35.3794 209.217 35.4257 209.078 35.4257C208.916 35.4257 208.777 35.3794 208.707 35.2867C208.615 35.194 208.592 35.0781 208.592 34.9391C208.592 34.8232 208.615 34.661 208.661 34.4524C208.707 34.2438 208.8 33.9889 208.916 33.7108C209.194 33.0619 209.472 32.3899 209.797 31.6947C210.098 30.9994 210.376 30.3737 210.631 29.7944C210.886 29.215 211.094 28.7052 211.257 28.288C211.419 27.8709 211.488 27.5696 211.488 27.4538C211.488 27.3379 211.419 27.2684 211.303 27.2684C211.094 27.2684 210.747 27.3842 210.214 27.6392L209.449 28.0331L209.31 27.6392C209.565 27.4769 209.866 27.3147 210.214 27.1293C210.585 26.9439 210.932 26.7585 211.326 26.5963C211.697 26.4341 212.068 26.2951 212.415 26.1792C212.763 26.0633 213.064 25.9938 213.342 25.9938C213.528 25.9938 213.62 26.0865 213.62 26.2719C213.62 26.3878 213.551 26.6427 213.389 27.0598C213.226 27.4769 213.041 27.9173 212.832 28.4271C212.624 28.9369 212.415 29.4236 212.184 29.9102C211.952 30.3969 211.79 30.7445 211.697 30.9994C211.21 32.1118 210.955 32.7143 210.955 32.8302C210.955 33.0156 211.025 33.1083 211.141 33.1083C211.257 33.1083 211.465 32.9924 211.743 32.7838C212.021 32.5753 212.346 32.274 212.693 31.9496C213.041 31.602 213.412 31.2312 213.806 30.814C214.2 30.3969 214.547 29.9798 214.918 29.609C215.266 29.215 215.59 28.8674 215.868 28.543C216.146 28.2185 216.332 27.9868 216.471 27.8246L217.12 27.083C217.236 26.9671 217.328 26.8744 217.444 26.7817C217.56 26.689 217.653 26.6195 217.769 26.55C218.278 26.2024 218.765 26.0401 219.182 26.0401C219.275 25.9243 219.344 25.9938 219.344 26.1097Z" fill="#D3AF4A"/>
<path d="M230.769 26.1097C230.769 26.1328 230.677 26.3414 230.491 26.7122C230.306 27.083 230.097 27.5465 229.865 28.1026L228.452 31.3934C228.382 31.5556 228.313 31.7178 228.22 31.9264C228.127 32.135 228.035 32.3204 227.965 32.5289C227.896 32.7375 227.826 32.9229 227.757 33.0851C227.687 33.2705 227.664 33.4096 227.664 33.5022C227.664 33.6876 227.757 33.7803 227.965 33.7803C228.081 33.7803 228.266 33.7108 228.568 33.5486C228.869 33.3864 229.309 33.1083 229.865 32.7143L230.051 33.1546C229.077 33.9426 228.29 34.5219 227.641 34.8695C226.992 35.2403 226.482 35.4257 226.088 35.4257C225.764 35.4257 225.601 35.2635 225.601 34.9622C225.601 34.8 225.625 34.6146 225.671 34.406C225.717 34.1975 225.787 33.9889 225.879 33.7572C225.972 33.5254 226.065 33.2937 226.158 33.0619C226.25 32.8302 226.343 32.5985 226.436 32.3899C226.714 31.7642 226.945 31.2543 227.131 30.8372C227.316 30.4201 227.478 30.0725 227.594 29.8175C227.71 29.5395 227.826 29.3309 227.896 29.1687C227.965 29.0064 228.035 28.8442 228.104 28.7284H227.896L227.27 29.4004C226.83 29.8871 226.343 30.3969 225.833 30.9531C225.323 31.5093 224.79 32.0423 224.28 32.5521C223.771 33.0851 223.238 33.5486 222.751 34.0121C222.241 34.4524 221.778 34.8232 221.384 35.1244C221.268 35.2171 221.129 35.2867 220.966 35.333C220.804 35.3794 220.642 35.4257 220.503 35.4257C220.341 35.4257 220.202 35.3794 220.132 35.2867C220.04 35.194 220.016 35.0781 220.016 34.9391C220.016 34.8232 220.04 34.661 220.086 34.4524C220.132 34.2438 220.225 33.9889 220.341 33.7108C220.619 33.0619 220.897 32.3899 221.221 31.6947C221.523 30.9994 221.801 30.3737 222.056 29.7944C222.311 29.215 222.519 28.7052 222.681 28.288C222.844 27.8709 222.913 27.5696 222.913 27.4538C222.913 27.3379 222.844 27.2684 222.728 27.2684C222.519 27.2684 222.172 27.3842 221.639 27.6392L220.874 28.0331L220.735 27.6392C220.99 27.4769 221.291 27.3147 221.639 27.1293C222.009 26.9439 222.357 26.7585 222.751 26.5963C223.122 26.4341 223.492 26.2951 223.84 26.1792C224.188 26.0633 224.489 25.9938 224.767 25.9938C224.952 25.9938 225.045 26.0865 225.045 26.2719C225.045 26.3878 224.976 26.6427 224.813 27.0598C224.651 27.4769 224.466 27.9173 224.257 28.4271C224.049 28.9369 223.84 29.4236 223.608 29.9102C223.377 30.3969 223.214 30.7445 223.122 30.9994C222.635 32.1118 222.38 32.7143 222.38 32.8302C222.38 33.0156 222.45 33.1083 222.566 33.1083C222.681 33.1083 222.89 32.9924 223.168 32.7838C223.446 32.5753 223.771 32.274 224.118 31.9496C224.466 31.602 224.837 31.2312 225.231 30.814C225.625 30.3969 225.972 29.9798 226.343 29.609C226.691 29.215 227.015 28.8674 227.293 28.543C227.571 28.2185 227.757 27.9868 227.896 27.8246L228.544 27.083C228.66 26.9671 228.753 26.8744 228.869 26.7817C228.985 26.689 229.077 26.6195 229.193 26.55C229.703 26.2024 230.19 26.0401 230.607 26.0401C230.7 25.9243 230.769 25.9938 230.769 26.1097Z" fill="#D3AF4A"/>
<path d="M60.5566 55.9291C60.0908 55.9291 59.6563 55.8457 59.2531 55.6788C58.8568 55.512 58.5092 55.2687 58.2102 54.9489C57.9182 54.6291 57.6853 54.2363 57.5115 53.7704C57.3447 53.2977 57.2612 52.7589 57.2612 52.154C57.2612 51.5492 57.3516 51.0139 57.5324 50.5481C57.7201 50.0753 57.9669 49.679 58.2728 49.3592C58.5787 49.0394 58.9333 48.7996 59.3365 48.6397C59.7397 48.4728 60.1603 48.3894 60.5983 48.3894C60.8695 48.3894 61.1163 48.4068 61.3387 48.4415C61.5612 48.4763 61.7559 48.5215 61.9227 48.5771C62.0896 48.6258 62.2321 48.6779 62.3503 48.7335C62.4685 48.7822 62.5589 48.8274 62.6214 48.8691L62.392 49.4844C62.2182 49.3801 61.9957 49.2793 61.7246 49.1819C61.4604 49.0777 61.1302 49.0255 60.7339 49.0255C60.282 49.0255 59.8857 49.102 59.5451 49.2549C59.2113 49.4079 58.9298 49.6234 58.7004 49.9015C58.4709 50.1796 58.2971 50.5098 58.1789 50.8922C58.0677 51.2746 58.0121 51.6987 58.0121 52.1645C58.0121 52.6442 58.0677 53.0787 58.1789 53.468C58.2971 53.8504 58.4675 54.1772 58.6899 54.4483C58.9124 54.7194 59.1835 54.928 59.5033 55.074C59.8301 55.22 60.202 55.293 60.6192 55.293C61.078 55.293 61.4604 55.2513 61.7663 55.1679C62.0792 55.0775 62.3155 54.9871 62.4754 54.8967L62.6736 55.5016C62.6249 55.5363 62.5415 55.578 62.4233 55.6267C62.3051 55.6684 62.1556 55.7136 61.9749 55.7623C61.7941 55.8109 61.5855 55.8492 61.3492 55.877C61.1128 55.9117 60.8486 55.9291 60.5566 55.9291Z" fill="#D3AF4A"/>
<path d="M67.6414 51.2468C67.4328 51.4971 67.1895 51.8134 66.9114 52.1958C66.6403 52.5781 66.3622 52.9814 66.0772 53.4055C65.7991 53.8295 65.5314 54.2502 65.2742 54.6673C65.0169 55.0844 64.7945 55.4529 64.6067 55.7727H63.9706V50.3812H64.638V54.6986C64.8049 54.3996 65.01 54.0555 65.2533 53.6662C65.5036 53.2699 65.7678 52.8736 66.0459 52.4773C66.324 52.0741 66.6021 51.6882 66.8801 51.3198C67.1652 50.9513 67.4294 50.6385 67.6727 50.3812H68.3088V55.7727H67.6414V51.2468Z" fill="#D3AF4A"/>
<path d="M71.8012 50.9548V51.1738C71.8012 51.3823 71.7977 51.6118 71.7908 51.8621C71.7838 52.1054 71.7699 52.3557 71.7491 52.6129C71.7282 52.8701 71.6935 53.1274 71.6448 53.3846C71.6031 53.6349 71.5475 53.8713 71.4779 54.0937C71.4015 54.3232 71.3041 54.5422 71.1859 54.7507C71.0747 54.9523 70.9391 55.1331 70.7792 55.293C70.6263 55.4459 70.4455 55.5746 70.237 55.6788C70.0353 55.7762 69.8059 55.8387 69.5487 55.8666L69.4548 55.3034C69.8024 55.2269 70.0805 55.0844 70.2891 54.8759C70.5046 54.6673 70.6819 54.3718 70.8209 53.9894C70.96 53.6071 71.0469 53.1691 71.0817 52.6755C71.1234 52.1749 71.1442 51.6291 71.1442 51.0382V50.3812H74.4605V55.7727H73.7826V50.9548H71.8012Z" fill="#D3AF4A"/>
<path d="M76.3592 50.3812H77.0371V52.5399C77.1622 52.5051 77.3465 52.4704 77.5898 52.4356C77.8401 52.3939 78.0973 52.373 78.3615 52.373C78.6535 52.373 78.9281 52.4043 79.1853 52.4669C79.4426 52.5295 79.6685 52.6303 79.8632 52.7693C80.0579 52.9084 80.2108 53.0891 80.322 53.3116C80.4402 53.5341 80.4993 53.8052 80.4993 54.125C80.4993 54.4448 80.4402 54.716 80.322 54.9384C80.2108 55.1609 80.0544 55.3451 79.8528 55.4911C79.6581 55.6302 79.4217 55.731 79.1436 55.7936C78.8725 55.8561 78.5805 55.8874 78.2676 55.8874C78.0799 55.8874 77.8887 55.8805 77.6941 55.8666C77.5064 55.8527 77.3291 55.8353 77.1622 55.8144C76.9954 55.7936 76.8424 55.7692 76.7034 55.7414C76.5643 55.7136 76.4496 55.6823 76.3592 55.6476V50.3812ZM78.2676 55.2826C78.7334 55.2826 79.1054 55.1957 79.3835 55.0219C79.6616 54.8411 79.8006 54.5422 79.8006 54.125C79.8006 53.9304 79.7624 53.76 79.6859 53.614C79.6094 53.468 79.5052 53.3498 79.3731 53.2595C79.2479 53.1621 79.095 53.0926 78.9142 53.0509C78.7404 53.0022 78.5492 52.9779 78.3406 52.9779C78.1112 52.9779 77.8818 52.9883 77.6524 53.0092C77.4229 53.03 77.2179 53.0717 77.0371 53.1343V55.1783C77.1275 55.1991 77.2874 55.2235 77.5168 55.2513C77.7462 55.2721 77.9965 55.2826 78.2676 55.2826Z" fill="#D3AF4A"/>
<path d="M86.086 55.7727H85.4082V53.2595H82.4778V55.7727H81.7999V50.3812H82.4778V52.6859H85.4082V50.3812H86.086V55.7727Z" fill="#D3AF4A"/>
<path d="M87.9841 50.3812H88.6619V52.5399C88.7871 52.5051 88.9713 52.4704 89.2146 52.4356C89.458 52.3939 89.7013 52.373 89.9446 52.373C90.2158 52.373 90.4765 52.4043 90.7268 52.4669C90.984 52.5295 91.2065 52.6303 91.3942 52.7693C91.5888 52.9084 91.7418 53.0891 91.853 53.3116C91.9712 53.5341 92.0303 53.8052 92.0303 54.125C92.0303 54.4448 91.9712 54.716 91.853 54.9384C91.7418 55.1609 91.5888 55.3451 91.3942 55.4911C91.1995 55.6302 90.9666 55.731 90.6955 55.7936C90.4313 55.8561 90.1497 55.8874 89.8508 55.8874C89.67 55.8874 89.4858 55.8805 89.2981 55.8666C89.1173 55.8527 88.9435 55.8353 88.7766 55.8144C88.6167 55.7936 88.4673 55.7692 88.3282 55.7414C88.1892 55.7136 88.0745 55.6823 87.9841 55.6476V50.3812ZM89.8508 55.2826C90.2888 55.2826 90.6433 55.1922 90.9145 55.0114C91.1926 54.8307 91.3316 54.5352 91.3316 54.125C91.3316 53.9304 91.2934 53.76 91.2169 53.614C91.1404 53.468 91.0361 53.3498 90.904 53.2595C90.7789 53.1621 90.6294 53.0926 90.4556 53.0509C90.2888 53.0022 90.1115 52.9779 89.9238 52.9779C89.7082 52.9779 89.4893 52.9883 89.2668 53.0092C89.0443 53.03 88.8427 53.0717 88.6619 53.1343V55.1783C88.7523 55.1991 88.9087 55.2235 89.1312 55.2513C89.3537 55.2721 89.5935 55.2826 89.8508 55.2826ZM93.8448 55.7727H93.167V50.3812H93.8448V55.7727Z" fill="#D3AF4A"/>
<path d="M99.4175 51.2468C99.209 51.4971 98.9656 51.8134 98.6875 52.1958C98.4164 52.5781 98.1383 52.9814 97.8533 53.4055C97.5752 53.8295 97.3075 54.2502 97.0503 54.6673C96.7931 55.0844 96.5706 55.4529 96.3829 55.7727H95.7467V50.3812H96.4142V54.6986C96.581 54.3996 96.7861 54.0555 97.0294 53.6662C97.2797 53.2699 97.5439 52.8736 97.822 52.4773C98.1001 52.0741 98.3782 51.6882 98.6563 51.3198C98.9413 50.9513 99.2055 50.6385 99.4488 50.3812H100.085V55.7727H99.4175V51.2468ZM97.9158 49.4635C97.5265 49.4635 97.2067 49.3558 96.9564 49.1402C96.7062 48.9247 96.5462 48.6188 96.4767 48.2225L97.0294 48.0765C97.0711 48.3129 97.1615 48.5076 97.3006 48.6605C97.4466 48.8065 97.6517 48.8795 97.9158 48.8795C98.18 48.8795 98.3816 48.8065 98.5207 48.6605C98.6667 48.5076 98.7605 48.3129 98.8023 48.0765L99.355 48.2225C99.2854 48.6188 99.1255 48.9247 98.8753 49.1402C98.625 49.3558 98.3052 49.4635 97.9158 49.4635Z" fill="#D3AF4A"/>
<path d="M106.148 53.3325C105.995 53.5341 105.842 53.7461 105.689 53.9686C105.537 54.1911 105.387 54.4101 105.241 54.6256C105.102 54.8411 104.973 55.0497 104.855 55.2513C104.737 55.4459 104.636 55.6198 104.553 55.7727H103.854C104.139 55.2374 104.438 54.7403 104.751 54.2814C105.064 53.8156 105.384 53.3603 105.71 52.9153L103.958 50.3812H104.751L106.148 52.446L107.567 50.3812H108.307L106.586 52.8736C106.732 53.0683 106.889 53.2803 107.056 53.5097C107.222 53.7392 107.389 53.979 107.556 54.2293C107.723 54.4726 107.883 54.7264 108.036 54.9906C108.196 55.2548 108.342 55.5155 108.474 55.7727H107.744C107.66 55.6198 107.56 55.4459 107.441 55.2513C107.323 55.0497 107.191 54.8411 107.045 54.6256C106.906 54.4101 106.757 54.1911 106.597 53.9686C106.444 53.7461 106.294 53.5341 106.148 53.3325Z" fill="#D3AF4A"/>
<path d="M114.264 53.0822C114.264 53.5063 114.202 53.8921 114.077 54.2397C113.958 54.5873 113.788 54.8828 113.566 55.1261C113.35 55.3695 113.093 55.5607 112.794 55.6997C112.495 55.8318 112.165 55.8978 111.803 55.8978C111.442 55.8978 111.111 55.8318 110.813 55.6997C110.514 55.5607 110.253 55.3695 110.03 55.1261C109.815 54.8828 109.645 54.5873 109.519 54.2397C109.401 53.8921 109.342 53.5063 109.342 53.0822C109.342 52.6581 109.401 52.2722 109.519 51.9246C109.645 51.577 109.815 51.2815 110.03 51.0382C110.253 50.7879 110.514 50.5967 110.813 50.4646C111.111 50.3256 111.442 50.2561 111.803 50.2561C112.165 50.2561 112.495 50.3256 112.794 50.4646C113.093 50.5967 113.35 50.7879 113.566 51.0382C113.788 51.2815 113.958 51.577 114.077 51.9246C114.202 52.2722 114.264 52.6581 114.264 53.0822ZM113.545 53.0822C113.545 52.4078 113.388 51.8725 113.076 51.4762C112.763 51.073 112.339 50.8714 111.803 50.8714C111.268 50.8714 110.844 51.073 110.531 51.4762C110.218 51.8725 110.062 52.4078 110.062 53.0822C110.062 53.7565 110.218 54.2919 110.531 54.6881C110.844 55.0844 111.268 55.2826 111.803 55.2826C112.339 55.2826 112.763 55.0844 113.076 54.6881C113.388 54.2919 113.545 53.7565 113.545 53.0822Z" fill="#D3AF4A"/>
<path d="M119.99 55.1991H120.605V57.264H119.948V55.7727H115.756V57.264H115.099V55.1991H115.652C115.881 54.8376 116.062 54.49 116.194 54.1563C116.333 53.8226 116.437 53.4819 116.507 53.1343C116.583 52.7867 116.632 52.4217 116.653 52.0393C116.681 51.65 116.694 51.2259 116.694 50.7671V50.3812H119.99V55.1991ZM117.331 50.9548C117.331 51.3302 117.317 51.6987 117.289 52.0602C117.268 52.4217 117.223 52.7797 117.153 53.1343C117.084 53.4889 116.986 53.84 116.861 54.1876C116.736 54.5282 116.573 54.8654 116.371 55.1991H119.312V50.9548H117.331Z" fill="#D3AF4A"/>
<path d="M122.891 55.3243C122.891 55.4842 122.839 55.6198 122.735 55.731C122.637 55.8422 122.498 55.8978 122.318 55.8978C122.137 55.8978 121.994 55.8422 121.89 55.731C121.793 55.6198 121.744 55.4842 121.744 55.3243C121.744 55.1644 121.793 55.0288 121.89 54.9176C121.994 54.8063 122.137 54.7507 122.318 54.7507C122.498 54.7507 122.637 54.8063 122.735 54.9176C122.839 55.0288 122.891 55.1644 122.891 55.3243Z" fill="#D3AF4A"/>
<path d="M129.426 53.2386C129.572 52.9118 129.722 52.5573 129.874 52.1749C130.027 51.7856 130.177 51.3858 130.323 50.9756C130.469 50.5585 130.604 50.1448 130.73 49.7347C130.862 49.3175 130.976 48.9212 131.074 48.5458H131.825C131.686 49.0255 131.543 49.4809 131.397 49.9119C131.258 50.336 131.112 50.7497 130.959 51.1529C130.813 51.5492 130.66 51.942 130.5 52.3313C130.34 52.7137 130.173 53.0996 130 53.4889C129.888 53.7392 129.767 54.0033 129.635 54.2814C129.503 54.5595 129.339 54.8168 129.144 55.0531C128.95 55.2826 128.71 55.4738 128.425 55.6267C128.147 55.7727 127.803 55.8457 127.393 55.8457C127.212 55.8457 127.052 55.8248 126.913 55.7831C126.781 55.7484 126.683 55.7136 126.621 55.6788L126.756 55.0949C126.805 55.1227 126.885 55.1574 126.996 55.1991C127.107 55.2339 127.253 55.2513 127.434 55.2513C127.671 55.2513 127.876 55.2165 128.049 55.147C128.23 55.0705 128.383 54.9732 128.508 54.855C128.64 54.7368 128.755 54.5978 128.852 54.4379C128.95 54.278 129.037 54.1111 129.113 53.9373C128.793 53.4506 128.494 52.9605 128.216 52.4669C127.945 51.9733 127.695 51.4936 127.465 51.0278C127.243 50.562 127.038 50.1205 126.85 49.7034C126.669 49.2793 126.51 48.8934 126.371 48.5458H127.163C127.399 49.1854 127.705 49.9154 128.081 50.7358C128.463 51.5562 128.912 52.3904 129.426 53.2386Z" fill="#D3AF4A"/>
<path d="M134.598 50.2665C134.807 50.2665 135.039 50.2804 135.297 50.3082C135.561 50.3291 135.808 50.3882 136.037 50.4855C136.267 50.5759 136.458 50.7219 136.611 50.9235C136.771 51.1182 136.851 51.3858 136.851 51.7265C136.851 51.9907 136.774 52.227 136.621 52.4356C136.468 52.6372 136.26 52.7867 135.995 52.884C136.385 52.9883 136.666 53.1552 136.84 53.3846C137.014 53.614 137.101 53.8956 137.101 54.2293C137.101 54.5908 137.028 54.8828 136.882 55.1053C136.736 55.3208 136.541 55.4877 136.298 55.6058C136.061 55.7171 135.79 55.7901 135.484 55.8248C135.185 55.8596 134.88 55.877 134.567 55.877C134.191 55.877 133.861 55.8527 133.576 55.804C133.298 55.7553 133.058 55.7032 132.856 55.6476V50.4959C133.03 50.4403 133.26 50.3882 133.545 50.3395C133.83 50.2908 134.181 50.2665 134.598 50.2665ZM133.534 52.6442H134.765C135.182 52.6442 135.519 52.5747 135.776 52.4356C136.034 52.2966 136.162 52.0637 136.162 51.7369C136.162 51.5283 136.117 51.365 136.027 51.2468C135.936 51.1286 135.818 51.0417 135.672 50.9861C135.526 50.9235 135.359 50.8853 135.172 50.8714C134.984 50.8505 134.796 50.8401 134.608 50.8401C134.379 50.8401 134.16 50.854 133.951 50.8818C133.743 50.9026 133.604 50.9235 133.534 50.9444V52.6442ZM133.534 53.2073V55.1887C133.569 55.2026 133.625 55.2165 133.701 55.2304C133.785 55.2374 133.875 55.2478 133.972 55.2617C134.077 55.2687 134.184 55.2756 134.296 55.2826C134.414 55.2895 134.525 55.293 134.629 55.293C134.866 55.293 135.092 55.2791 135.307 55.2513C135.523 55.2235 135.71 55.1713 135.87 55.0949C136.03 55.0114 136.159 54.9037 136.256 54.7716C136.353 54.6325 136.402 54.4518 136.402 54.2293C136.402 54.0346 136.36 53.8713 136.277 53.7392C136.2 53.6071 136.089 53.5028 135.943 53.4263C135.804 53.3498 135.637 53.2942 135.443 53.2595C135.255 53.2247 135.05 53.2073 134.827 53.2073H133.534Z" fill="#D3AF4A"/>
<path d="M138.33 53.0717C138.33 52.599 138.396 52.1888 138.528 51.8412C138.667 51.4866 138.845 51.1912 139.06 50.9548C139.283 50.7184 139.533 50.5446 139.811 50.4334C140.096 50.3152 140.388 50.2561 140.687 50.2561C141.348 50.2561 141.872 50.4716 142.262 50.9026C142.658 51.3337 142.856 51.9976 142.856 52.8945C142.856 52.9501 142.853 53.0057 142.846 53.0613C142.846 53.1169 142.842 53.1691 142.835 53.2177H139.05C139.071 53.8782 139.234 54.3857 139.54 54.7403C139.846 55.0949 140.333 55.2721 141 55.2721C141.368 55.2721 141.66 55.2374 141.876 55.1679C142.091 55.0983 142.248 55.0392 142.345 54.9906L142.47 55.5746C142.373 55.6302 142.189 55.6962 141.918 55.7727C141.653 55.8492 141.341 55.8874 140.979 55.8874C140.506 55.8874 140.103 55.8179 139.769 55.6788C139.436 55.5398 139.161 55.3451 138.946 55.0949C138.73 54.8446 138.574 54.5491 138.476 54.2084C138.379 53.8608 138.33 53.4819 138.33 53.0717ZM142.158 52.6442C142.144 52.081 142.012 51.6431 141.761 51.3302C141.511 51.0173 141.156 50.8609 140.698 50.8609C140.454 50.8609 140.235 50.9096 140.041 51.0069C139.853 51.1043 139.686 51.2363 139.54 51.4032C139.401 51.5631 139.29 51.7508 139.206 51.9663C139.13 52.1819 139.085 52.4078 139.071 52.6442H142.158Z" fill="#D3AF4A"/>
<path d="M145.149 54.8029C145.211 54.8515 145.288 54.9037 145.378 54.9593C145.476 55.0149 145.587 55.067 145.712 55.1157C145.837 55.1644 145.973 55.2061 146.119 55.2409C146.265 55.2687 146.418 55.2826 146.578 55.2826C146.911 55.2826 147.189 55.2269 147.412 55.1157C147.641 54.9975 147.826 54.8411 147.965 54.6464C148.104 54.4448 148.204 54.2119 148.267 53.9477C148.33 53.6766 148.361 53.3916 148.361 53.0926C148.361 52.3835 148.184 51.8412 147.829 51.4658C147.474 51.0834 147.005 50.8922 146.421 50.8922C146.087 50.8922 145.816 50.9096 145.608 50.9444C145.406 50.9722 145.253 51.0034 145.149 51.0382V54.8029ZM145.149 57.702H144.471V50.5689C144.673 50.4994 144.93 50.4334 145.243 50.3708C145.556 50.3082 145.952 50.2769 146.432 50.2769C146.828 50.2769 147.186 50.343 147.506 50.4751C147.832 50.6002 148.111 50.7844 148.34 51.0278C148.576 51.2711 148.757 51.5666 148.882 51.9142C149.014 52.2618 149.08 52.6546 149.08 53.0926C149.08 53.5028 149.025 53.8817 148.914 54.2293C148.809 54.57 148.653 54.8654 148.444 55.1157C148.236 55.359 147.978 55.5502 147.673 55.6893C147.374 55.8283 147.03 55.8978 146.64 55.8978C146.286 55.8978 145.976 55.8492 145.712 55.7518C145.455 55.6476 145.267 55.5502 145.149 55.4599V57.702Z" fill="#D3AF4A"/>
<path d="M150.332 53.0717C150.332 52.599 150.398 52.1888 150.53 51.8412C150.669 51.4866 150.846 51.1912 151.062 50.9548C151.284 50.7184 151.535 50.5446 151.813 50.4334C152.098 50.3152 152.39 50.2561 152.689 50.2561C153.349 50.2561 153.874 50.4716 154.263 50.9026C154.66 51.3337 154.858 51.9976 154.858 52.8945C154.858 52.9501 154.854 53.0057 154.847 53.0613C154.847 53.1169 154.844 53.1691 154.837 53.2177H151.051C151.072 53.8782 151.236 54.3857 151.542 54.7403C151.848 55.0949 152.334 55.2721 153.002 55.2721C153.37 55.2721 153.662 55.2374 153.878 55.1679C154.093 55.0983 154.25 55.0392 154.347 54.9906L154.472 55.5746C154.375 55.6302 154.19 55.6962 153.919 55.7727C153.655 55.8492 153.342 55.8874 152.981 55.8874C152.508 55.8874 152.105 55.8179 151.771 55.6788C151.437 55.5398 151.163 55.3451 150.947 55.0949C150.732 54.8446 150.575 54.5491 150.478 54.2084C150.381 53.8608 150.332 53.4819 150.332 53.0717ZM154.159 52.6442C154.145 52.081 154.013 51.6431 153.763 51.3302C153.513 51.0173 153.158 50.8609 152.699 50.8609C152.456 50.8609 152.237 50.9096 152.042 51.0069C151.854 51.1043 151.688 51.2363 151.542 51.4032C151.403 51.5631 151.291 51.7508 151.208 51.9663C151.131 52.1819 151.086 52.4078 151.072 52.6442H154.159Z" fill="#D3AF4A"/>
<path d="M160.759 55.7727H160.081V53.2595H157.151V55.7727H156.473V50.3812H157.151V52.6859H160.081V50.3812H160.759V55.7727Z" fill="#D3AF4A"/>
<path d="M166.943 55.7727H166.265V53.2595H163.335V55.7727H162.657V50.3812H163.335V52.6859H166.265V50.3812H166.943V55.7727Z" fill="#D3AF4A"/>
<path d="M170.541 55.2826C170.805 55.2826 171.034 55.2756 171.229 55.2617C171.431 55.2409 171.601 55.2165 171.74 55.1887V53.2907C171.664 53.256 171.542 53.2212 171.375 53.1865C171.208 53.1447 170.979 53.1239 170.687 53.1239C170.52 53.1239 170.346 53.1378 170.165 53.1656C169.985 53.1865 169.818 53.2386 169.665 53.322C169.512 53.3985 169.387 53.5063 169.289 53.6453C169.192 53.7844 169.143 53.9686 169.143 54.198C169.143 54.3996 169.175 54.57 169.237 54.709C169.307 54.8481 169.401 54.9593 169.519 55.0427C169.644 55.1261 169.79 55.1887 169.957 55.2304C170.131 55.2652 170.325 55.2826 170.541 55.2826ZM170.478 50.2561C170.833 50.2561 171.132 50.3082 171.375 50.4125C171.625 50.5098 171.827 50.6489 171.98 50.8296C172.133 51.0034 172.244 51.212 172.314 51.4553C172.383 51.6987 172.418 51.9629 172.418 52.2479V55.6476C172.348 55.6684 172.248 55.6928 172.116 55.7206C171.983 55.7414 171.83 55.7658 171.657 55.7936C171.483 55.8214 171.288 55.8422 171.073 55.8561C170.864 55.877 170.649 55.8874 170.426 55.8874C170.141 55.8874 169.877 55.8561 169.634 55.7936C169.397 55.731 169.189 55.6337 169.008 55.5016C168.834 55.3625 168.695 55.1887 168.591 54.9801C168.493 54.7646 168.445 54.5039 168.445 54.198C168.445 53.906 168.5 53.6557 168.612 53.4472C168.723 53.2386 168.879 53.0683 169.081 52.9362C169.282 52.7971 169.522 52.6963 169.8 52.6338C170.078 52.5712 170.381 52.5399 170.708 52.5399C170.805 52.5399 170.906 52.5468 171.01 52.5608C171.121 52.5677 171.226 52.5816 171.323 52.6025C171.427 52.6164 171.514 52.6338 171.584 52.6546C171.66 52.6685 171.712 52.6824 171.74 52.6963V52.3626C171.74 52.1749 171.726 51.9941 171.698 51.8203C171.671 51.6396 171.608 51.4797 171.511 51.3406C171.42 51.1946 171.288 51.0799 171.114 50.9965C170.948 50.9061 170.725 50.8609 170.447 50.8609C170.051 50.8609 169.755 50.8887 169.561 50.9444C169.366 51 169.223 51.0452 169.133 51.0799L169.039 50.4855C169.157 50.4299 169.338 50.3777 169.581 50.3291C169.832 50.2804 170.131 50.2561 170.478 50.2561Z" fill="#D3AF4A"/>
<path d="M175.649 53.5723C175.544 53.7322 175.43 53.906 175.304 54.0937C175.186 54.2814 175.068 54.4726 174.95 54.6673C174.839 54.862 174.731 55.0566 174.627 55.2513C174.522 55.439 174.435 55.6128 174.366 55.7727H173.667C173.848 55.3625 174.067 54.9489 174.324 54.5317C174.581 54.1146 174.821 53.7496 175.044 53.4367C174.905 53.395 174.769 53.3359 174.637 53.2595C174.512 53.183 174.397 53.0856 174.293 52.9675C174.196 52.8493 174.116 52.7102 174.053 52.5503C173.99 52.3835 173.959 52.1958 173.959 51.9872C173.959 51.6882 174.015 51.431 174.126 51.2155C174.244 51 174.401 50.8227 174.595 50.6836C174.797 50.5446 175.033 50.4403 175.304 50.3708C175.582 50.3013 175.878 50.2665 176.191 50.2665C176.33 50.2665 176.483 50.2735 176.65 50.2874C176.823 50.3013 176.994 50.3221 177.161 50.3499C177.334 50.3708 177.494 50.3951 177.64 50.4229C177.786 50.4507 177.908 50.4785 178.005 50.5064V55.7727H177.328V53.6036H176.358C176.205 53.6036 176.066 53.6036 175.941 53.6036C175.822 53.5966 175.725 53.5862 175.649 53.5723ZM177.328 50.9652C177.244 50.9444 177.109 50.9235 176.921 50.9026C176.733 50.8748 176.493 50.8609 176.201 50.8609C176.007 50.8609 175.815 50.8818 175.628 50.9235C175.447 50.9583 175.284 51.0208 175.138 51.1112C174.992 51.2016 174.873 51.3198 174.783 51.4658C174.7 51.6048 174.658 51.7786 174.658 51.9872C174.658 52.1888 174.696 52.3591 174.773 52.4982C174.849 52.6303 174.957 52.738 175.096 52.8215C175.235 52.8979 175.402 52.9536 175.596 52.9883C175.798 53.0231 176.02 53.0405 176.264 53.0405H177.328V50.9652Z" fill="#D3AF4A"/>
<path d="M183.634 55.2826C184.121 55.2826 184.503 55.2026 184.781 55.0427C185.059 54.8759 185.199 54.6291 185.199 54.3023C185.199 54.0659 185.146 53.8782 185.042 53.7392C184.938 53.6001 184.806 53.4924 184.646 53.4159C184.493 53.3394 184.326 53.2907 184.145 53.2699C183.971 53.2421 183.812 53.2282 183.666 53.2282H182.915V52.6546H183.613C183.739 52.6546 183.881 52.6442 184.041 52.6233C184.208 52.6025 184.361 52.5608 184.5 52.4982C184.639 52.4356 184.757 52.3487 184.854 52.2375C184.952 52.1193 185 51.9663 185 51.7786C185 51.5979 184.959 51.4484 184.875 51.3302C184.799 51.212 184.694 51.1182 184.562 51.0486C184.43 50.9791 184.277 50.9304 184.104 50.9026C183.937 50.8748 183.766 50.8609 183.593 50.8609C183.196 50.8609 182.883 50.9026 182.654 50.9861C182.425 51.0625 182.268 51.1216 182.185 51.1633L182.028 50.5585C182.126 50.5098 182.31 50.4507 182.581 50.3812C182.852 50.3047 183.189 50.2665 183.593 50.2665C184.281 50.2665 184.802 50.3916 185.157 50.6419C185.511 50.8922 185.689 51.2642 185.689 51.7578C185.689 52.0637 185.598 52.3139 185.418 52.5086C185.237 52.6963 185.025 52.8284 184.781 52.9049C185.122 53.0022 185.393 53.1656 185.595 53.395C185.796 53.6245 185.897 53.9269 185.897 54.3023C185.897 54.8376 185.706 55.2374 185.324 55.5016C184.941 55.7658 184.382 55.8978 183.645 55.8978C183.151 55.8978 182.755 55.8561 182.456 55.7727C182.157 55.6893 181.966 55.6267 181.882 55.585L182.06 54.9697C182.08 54.9836 182.126 55.008 182.195 55.0427C182.272 55.0705 182.376 55.1053 182.508 55.147C182.64 55.1818 182.8 55.213 182.988 55.2409C183.175 55.2687 183.391 55.2826 183.634 55.2826Z" fill="#D3AF4A"/>
<path d="M189.157 55.2826C189.421 55.2826 189.65 55.2756 189.845 55.2617C190.047 55.2409 190.217 55.2165 190.356 55.1887V53.2907C190.28 53.256 190.158 53.2212 189.991 53.1865C189.824 53.1447 189.595 53.1239 189.303 53.1239C189.136 53.1239 188.962 53.1378 188.781 53.1656C188.601 53.1865 188.434 53.2386 188.281 53.322C188.128 53.3985 188.003 53.5063 187.905 53.6453C187.808 53.7844 187.759 53.9686 187.759 54.198C187.759 54.3996 187.791 54.57 187.853 54.709C187.923 54.8481 188.017 54.9593 188.135 55.0427C188.26 55.1261 188.406 55.1887 188.573 55.2304C188.747 55.2652 188.941 55.2826 189.157 55.2826ZM189.094 50.2561C189.449 50.2561 189.748 50.3082 189.991 50.4125C190.241 50.5098 190.443 50.6489 190.596 50.8296C190.749 51.0034 190.86 51.212 190.93 51.4553C190.999 51.6987 191.034 51.9629 191.034 52.2479V55.6476C190.964 55.6684 190.864 55.6928 190.731 55.7206C190.599 55.7414 190.446 55.7658 190.273 55.7936C190.099 55.8214 189.904 55.8422 189.689 55.8561C189.48 55.877 189.265 55.8874 189.042 55.8874C188.757 55.8874 188.493 55.8561 188.249 55.7936C188.013 55.731 187.805 55.6337 187.624 55.5016C187.45 55.3625 187.311 55.1887 187.207 54.9801C187.109 54.7646 187.061 54.5039 187.061 54.198C187.061 53.906 187.116 53.6557 187.228 53.4472C187.339 53.2386 187.495 53.0683 187.697 52.9362C187.898 52.7971 188.138 52.6963 188.416 52.6338C188.694 52.5712 188.997 52.5399 189.324 52.5399C189.421 52.5399 189.522 52.5468 189.626 52.5608C189.737 52.5677 189.842 52.5816 189.939 52.6025C190.043 52.6164 190.13 52.6338 190.2 52.6546C190.276 52.6685 190.328 52.6824 190.356 52.6963V52.3626C190.356 52.1749 190.342 51.9941 190.314 51.8203C190.286 51.6396 190.224 51.4797 190.127 51.3406C190.036 51.1946 189.904 51.0799 189.73 50.9965C189.563 50.9061 189.341 50.8609 189.063 50.8609C188.667 50.8609 188.371 50.8887 188.176 50.9444C187.982 51 187.839 51.0452 187.749 51.0799L187.655 50.4855C187.773 50.4299 187.954 50.3777 188.197 50.3291C188.448 50.2804 188.747 50.2561 189.094 50.2561Z" fill="#D3AF4A"/>
<path d="M199.427 55.7727H192.867V50.3812H193.545V55.1991H195.829V50.3812H196.507V55.1991H198.79V50.3812H199.468V55.1991H200.084V57.264H199.427V55.7727Z" fill="#D3AF4A"/>
<path d="M205.075 51.2468C204.866 51.4971 204.623 51.8134 204.345 52.1958C204.073 52.5781 203.795 52.9814 203.51 53.4055C203.232 53.8295 202.965 54.2502 202.707 54.6673C202.45 55.0844 202.228 55.4529 202.04 55.7727H201.404V50.3812H202.071V54.6986C202.238 54.3996 202.443 54.0555 202.686 53.6662C202.937 53.2699 203.201 52.8736 203.479 52.4773C203.757 52.0741 204.035 51.6882 204.313 51.3198C204.598 50.9513 204.862 50.6385 205.106 50.3812H205.742V55.7727H205.075V51.2468Z" fill="#D3AF4A"/>
<path d="M211.111 50.3812V50.9548H209.339V55.7727H208.661V50.9548H206.898V50.3812H211.111Z" fill="#D3AF4A"/>
<path d="M213.965 55.2826C214.229 55.2826 214.458 55.2756 214.653 55.2617C214.854 55.2409 215.025 55.2165 215.164 55.1887V53.2907C215.087 53.256 214.966 53.2212 214.799 53.1865C214.632 53.1447 214.403 53.1239 214.111 53.1239C213.944 53.1239 213.77 53.1378 213.589 53.1656C213.408 53.1865 213.242 53.2386 213.089 53.322C212.936 53.3985 212.811 53.5063 212.713 53.6453C212.616 53.7844 212.567 53.9686 212.567 54.198C212.567 54.3996 212.598 54.57 212.661 54.709C212.731 54.8481 212.824 54.9593 212.943 55.0427C213.068 55.1261 213.214 55.1887 213.381 55.2304C213.554 55.2652 213.749 55.2826 213.965 55.2826ZM213.902 50.2561C214.257 50.2561 214.556 50.3082 214.799 50.4125C215.049 50.5098 215.251 50.6489 215.404 50.8296C215.557 51.0034 215.668 51.212 215.737 51.4553C215.807 51.6987 215.842 51.9629 215.842 52.2479V55.6476C215.772 55.6684 215.671 55.6928 215.539 55.7206C215.407 55.7414 215.254 55.7658 215.08 55.7936C214.907 55.8214 214.712 55.8422 214.496 55.8561C214.288 55.877 214.072 55.8874 213.85 55.8874C213.565 55.8874 213.301 55.8561 213.057 55.7936C212.821 55.731 212.612 55.6337 212.432 55.5016C212.258 55.3625 212.119 55.1887 212.014 54.9801C211.917 54.7646 211.868 54.5039 211.868 54.198C211.868 53.906 211.924 53.6557 212.035 53.4472C212.147 53.2386 212.303 53.0683 212.505 52.9362C212.706 52.7971 212.946 52.6963 213.224 52.6338C213.502 52.5712 213.805 52.5399 214.131 52.5399C214.229 52.5399 214.33 52.5468 214.434 52.5608C214.545 52.5677 214.649 52.5816 214.747 52.6025C214.851 52.6164 214.938 52.6338 215.007 52.6546C215.084 52.6685 215.136 52.6824 215.164 52.6963V52.3626C215.164 52.1749 215.15 51.9941 215.122 51.8203C215.094 51.6396 215.032 51.4797 214.934 51.3406C214.844 51.1946 214.712 51.0799 214.538 50.9965C214.371 50.9061 214.149 50.8609 213.871 50.8609C213.474 50.8609 213.179 50.8887 212.984 50.9444C212.79 51 212.647 51.0452 212.557 51.0799L212.463 50.4855C212.581 50.4299 212.762 50.3777 213.005 50.3291C213.255 50.2804 213.554 50.2561 213.902 50.2561Z" fill="#D3AF4A"/>
<path d="M218.634 55.3243C218.634 55.4842 218.582 55.6198 218.478 55.731C218.381 55.8422 218.242 55.8978 218.061 55.8978C217.88 55.8978 217.737 55.8422 217.633 55.731C217.536 55.6198 217.487 55.4842 217.487 55.3243C217.487 55.1644 217.536 55.0288 217.633 54.9176C217.737 54.8063 217.88 54.7507 218.061 54.7507C218.242 54.7507 218.381 54.8063 218.478 54.9176C218.582 55.0288 218.634 55.1644 218.634 55.3243Z" fill="#D3AF4A"/>
<path d="M50.5894 42.1926H216.981" stroke="#D3AF4A" stroke-width="2" stroke-miterlimit="10"/>
<path fill-rule="evenodd" clip-rule="evenodd" d="M0 43.1427H16.0134V42.0767H0V43.1427ZM0 41.4973L16.0134 41.5437V41.2424L0 41.2888V41.4973Z" fill="#D3AD4A"/>
<path fill-rule="evenodd" clip-rule="evenodd" d="M5.07507 21.3589C5.07507 21.3589 5.02872 20.5479 5.74712 19.7599C6.46552 18.9488 8.85247 18.9488 9.89531 18.6476C10.915 18.3463 10.9613 17.5815 10.9613 17.5815V14.4762C10.9613 14.4762 10.9382 15.2178 9.89531 15.5422C8.87564 15.8435 6.4887 15.8435 5.74712 16.6546C5.05189 17.4425 5.07507 18.2536 5.07507 18.2536V21.3589Z" fill="#AB8B2F"/>
<path fill-rule="evenodd" clip-rule="evenodd" d="M10.9383 17.6047C10.9383 17.6047 10.9846 16.7936 10.2894 16.0056C9.571 15.1945 7.18405 15.1945 6.16438 14.8933C5.14471 14.592 5.0752 13.8273 5.0752 13.8273V10.6987C5.0752 10.6987 5.12154 11.4403 6.16438 11.7647C7.18405 12.066 9.571 12.066 10.2894 12.8771C10.9846 13.665 10.9383 14.4761 10.9383 14.4761V17.6047Z" fill="#D3AF4A"/>
<path fill-rule="evenodd" clip-rule="evenodd" d="M5.07507 28.8906C5.07507 28.8906 5.02872 28.0795 5.74712 27.2915C6.46552 26.4804 8.85247 26.4804 9.89531 26.1792C10.915 25.8779 10.9613 25.1132 10.9613 25.1132V22.0078C10.9613 22.0078 10.9382 22.7494 9.89531 23.0738C8.87564 23.3751 6.4887 23.3751 5.74712 24.1862C5.05189 24.9741 5.07507 25.7852 5.07507 25.7852V28.8906Z" fill="#AB8B2F"/>
<path fill-rule="evenodd" clip-rule="evenodd" d="M10.9383 25.1131C10.9383 25.1131 10.9846 24.302 10.2894 23.5141C9.571 22.703 7.18405 22.703 6.16438 22.4017C5.14471 22.1004 5.0752 21.3357 5.0752 21.3357V18.2303C5.0752 18.2303 5.12154 18.9719 6.16438 19.2964C7.18405 19.5976 9.571 19.5976 10.2894 20.4087C10.9846 21.1967 10.9383 22.0078 10.9383 22.0078V25.1131Z" fill="#D3AF4A"/>
<path fill-rule="evenodd" clip-rule="evenodd" d="M5.07507 36.4222C5.07507 36.4222 5.02872 35.6111 5.74712 34.8232C6.46552 34.0121 8.85247 34.0121 9.89531 33.7108C10.915 33.4095 10.9613 32.6448 10.9613 32.6448V29.5394C10.9613 29.5394 10.9382 30.281 9.89531 30.6054C8.87564 30.9067 6.4887 30.9067 5.74712 31.7178C5.05189 32.5057 5.07507 33.3168 5.07507 33.3168V36.4222Z" fill="#AB8B2F"/>
</g>
<defs>
<clipPath id="clip0">
<rect width="230.769" height="60" fill="white"/>
</clipPath>
</defs>
</svg>
