<svg width="40" height="40" viewBox="0 0 40 40" fill="none" xmlns="http://www.w3.org/2000/svg">
<g clip-path="url(#clip0)">
<path d="M33.4938 34.5999H30.191C30.0158 34.5999 29.8478 34.5303 29.7239 34.4064C29.6 34.2825 29.5304 34.1145 29.5304 33.9393C29.5304 33.7641 29.6 33.5961 29.7239 33.4722C29.8478 33.3484 30.0158 33.2788 30.191 33.2788H33.4938C34.8949 33.2772 36.2381 32.7199 37.2288 31.7292C38.2195 30.7385 38.7768 29.3953 38.7783 27.9942V18.7463C38.7768 17.3452 38.2195 16.002 37.2288 15.0113C36.2381 14.0206 34.8949 13.4633 33.4938 13.4618H30.191C30.0158 13.4618 29.8478 13.3922 29.7239 13.2683C29.6 13.1444 29.5304 12.9764 29.5304 12.8012C29.5304 12.626 29.6 12.458 29.7239 12.3341C29.8478 12.2102 30.0158 12.1406 30.191 12.1406H33.4938C35.2451 12.1425 36.9242 12.8391 38.1626 14.0775C39.401 15.3159 40.0975 16.995 40.0995 18.7463V27.9942C40.0975 29.7456 39.401 31.4246 38.1626 32.663C36.9242 33.9014 35.2451 34.598 33.4938 34.5999Z" fill="#DEC377"/>
<path d="M33.4938 30.6365H30.191C30.0158 30.6365 29.8478 30.5669 29.7239 30.4431C29.6 30.3192 29.5304 30.1512 29.5304 29.976C29.5304 29.8008 29.6 29.6328 29.7239 29.5089C29.8478 29.385 30.0158 29.3154 30.191 29.3154H33.4938C33.8442 29.3154 34.1802 29.1762 34.428 28.9285C34.6757 28.6807 34.8149 28.3447 34.8149 27.9943V18.7463C34.8149 18.3959 34.6757 18.0599 34.428 17.8122C34.1802 17.5644 33.8442 17.4252 33.4938 17.4252H30.191C30.0158 17.4252 29.8478 17.3556 29.7239 17.2317C29.6 17.1078 29.5304 16.9398 29.5304 16.7646C29.5304 16.5894 29.6 16.4214 29.7239 16.2975C29.8478 16.1737 30.0158 16.1041 30.191 16.1041H33.4938C34.1946 16.1041 34.8666 16.3824 35.3622 16.878C35.8577 17.3735 36.1361 18.0456 36.1361 18.7463V27.9943C36.1361 28.695 35.8577 29.3671 35.3622 29.8626C34.8666 30.3582 34.1946 30.6365 33.4938 30.6365Z" fill="#DEC377"/>
<path d="M28.8698 37.2422H7.7317C7.20612 37.2422 6.70207 37.0334 6.33043 36.6617C5.95879 36.2901 5.75 35.786 5.75 35.2605V11.4801C5.75 10.9545 5.95879 10.4504 6.33043 10.0788C6.70207 9.70714 7.20612 9.49835 7.7317 9.49835H28.8698C29.3954 9.49835 29.8995 9.70714 30.2711 10.0788C30.6428 10.4504 30.8515 10.9545 30.8515 11.4801V35.2605C30.8515 35.786 30.6428 36.2901 30.2711 36.6617C29.8995 37.0334 29.3954 37.2422 28.8698 37.2422ZM7.7317 10.8195C7.55651 10.8195 7.38849 10.8891 7.26461 11.013C7.14073 11.1368 7.07113 11.3049 7.07113 11.4801V35.2605C7.07113 35.4356 7.14073 35.6037 7.26461 35.7275C7.38849 35.8514 7.55651 35.921 7.7317 35.921H28.8698C29.045 35.921 29.213 35.8514 29.3369 35.7275C29.4608 35.6037 29.5304 35.4356 29.5304 35.2605V11.4801C29.5304 11.3049 29.4608 11.1368 29.3369 11.013C29.213 10.8891 29.045 10.8195 28.8698 10.8195H7.7317Z" fill="#DEC377"/>
<path d="M13.0162 8.17711C12.8856 8.17708 12.7579 8.13832 12.6493 8.06574C12.5407 7.99315 12.4561 7.88999 12.4061 7.76931C12.3561 7.64862 12.343 7.51583 12.3685 7.38771C12.394 7.25959 12.4569 7.1419 12.5492 7.04952C12.7264 6.90715 12.8694 6.72682 12.9677 6.52184C13.0659 6.31686 13.117 6.09244 13.117 5.86512C13.117 5.63781 13.0659 5.41339 12.9677 5.2084C12.8694 5.00342 12.7264 4.8231 12.5492 4.68073C12.2509 4.41428 12.0122 4.08785 11.8488 3.72278C11.6854 3.35772 11.601 2.96226 11.601 2.56229C11.601 2.16232 11.6854 1.76686 11.8488 1.40179C12.0122 1.03673 12.2509 0.710292 12.5492 0.443851C12.6102 0.38076 12.683 0.330436 12.7636 0.295817C12.8442 0.261197 12.9309 0.242975 13.0186 0.242212C13.1063 0.24145 13.1933 0.258164 13.2745 0.291378C13.3557 0.324592 13.4294 0.373641 13.4914 0.435663C13.5535 0.497685 13.6025 0.571439 13.6357 0.65262C13.6689 0.733801 13.6857 0.820785 13.6849 0.908494C13.6841 0.996204 13.6659 1.08288 13.6313 1.16348C13.5967 1.24407 13.5464 1.31696 13.4833 1.37789C13.3061 1.52026 13.1631 1.70059 13.0648 1.90557C12.9665 2.11055 12.9155 2.33497 12.9155 2.56229C12.9155 2.7896 12.9665 3.01402 13.0648 3.21901C13.1631 3.42399 13.3061 3.60431 13.4833 3.74668C13.7816 4.01313 14.0202 4.33956 14.1836 4.70463C14.3471 5.06969 14.4315 5.46515 14.4315 5.86512C14.4315 6.26509 14.3471 6.66055 14.1836 7.02562C14.0202 7.39068 13.7816 7.71712 13.4833 7.98356C13.3594 8.10745 13.1914 8.17707 13.0162 8.17711Z" fill="#DEC377"/>
<path d="M18.3008 8.17711C18.1702 8.17708 18.0425 8.13832 17.9339 8.06574C17.8253 7.99315 17.7406 7.88999 17.6906 7.76931C17.6407 7.64862 17.6276 7.51583 17.653 7.38771C17.6785 7.25959 17.7414 7.1419 17.8338 7.04952C18.011 6.90715 18.154 6.72682 18.2522 6.52184C18.3505 6.31686 18.4015 6.09244 18.4015 5.86512C18.4015 5.63781 18.3505 5.41339 18.2522 5.2084C18.154 5.00342 18.011 4.8231 17.8338 4.68073C17.5355 4.41428 17.2968 4.08785 17.1334 3.72278C16.97 3.35772 16.8855 2.96226 16.8855 2.56229C16.8855 2.16232 16.97 1.76686 17.1334 1.40179C17.2968 1.03673 17.5355 0.710292 17.8338 0.443851C17.8947 0.38076 17.9676 0.330436 18.0482 0.295817C18.1288 0.261197 18.2155 0.242975 18.3032 0.242212C18.3909 0.24145 18.4779 0.258164 18.559 0.291378C18.6402 0.324592 18.714 0.373641 18.776 0.435663C18.838 0.497685 18.8871 0.571439 18.9203 0.65262C18.9535 0.733801 18.9702 0.820785 18.9694 0.908494C18.9687 0.996204 18.9505 1.08288 18.9158 1.16348C18.8812 1.24407 18.8309 1.31696 18.7678 1.37789C18.5906 1.52026 18.4476 1.70059 18.3493 1.90557C18.2511 2.11055 18.2001 2.33497 18.2001 2.56229C18.2001 2.7896 18.2511 3.01402 18.3493 3.21901C18.4476 3.42399 18.5906 3.60431 18.7678 3.74668C19.0661 4.01313 19.3048 4.33956 19.4682 4.70463C19.6316 5.06969 19.7161 5.46515 19.7161 5.86512C19.7161 6.26509 19.6316 6.66055 19.4682 7.02562C19.3048 7.39068 19.0661 7.71712 18.7678 7.98356C18.644 8.10745 18.476 8.17707 18.3008 8.17711Z" fill="#DEC377"/>
<path d="M23.5853 8.17711C23.4547 8.17708 23.327 8.13832 23.2184 8.06574C23.1098 7.99315 23.0252 7.88999 22.9752 7.76931C22.9252 7.64862 22.9121 7.51583 22.9376 7.38771C22.9631 7.25959 23.026 7.1419 23.1183 7.04952C23.2955 6.90715 23.4385 6.72682 23.5368 6.52184C23.635 6.31686 23.686 6.09244 23.686 5.86512C23.686 5.63781 23.635 5.41339 23.5368 5.2084C23.4385 5.00342 23.2955 4.8231 23.1183 4.68073C22.82 4.41428 22.5813 4.08785 22.4179 3.72278C22.2545 3.35772 22.17 2.96226 22.17 2.56229C22.17 2.16232 22.2545 1.76686 22.4179 1.40179C22.5813 1.03673 22.82 0.710292 23.1183 0.443851C23.1792 0.38076 23.2521 0.330436 23.3327 0.295817C23.4133 0.261197 23.5 0.242975 23.5877 0.242212C23.6754 0.24145 23.7624 0.258164 23.8436 0.291378C23.9248 0.324592 23.9985 0.373641 24.0605 0.435663C24.1226 0.497685 24.1716 0.571439 24.2048 0.65262C24.238 0.733801 24.2548 0.820785 24.254 0.908494C24.2532 0.996204 24.235 1.08288 24.2004 1.16348C24.1658 1.24407 24.1154 1.31696 24.0524 1.37789C23.8751 1.52026 23.7321 1.70059 23.6339 1.90557C23.5356 2.11055 23.4846 2.33497 23.4846 2.56229C23.4846 2.7896 23.5356 3.01402 23.6339 3.21901C23.7321 3.42399 23.8751 3.60431 24.0524 3.74668C24.3507 4.01313 24.5893 4.33956 24.7527 4.70463C24.9161 5.06969 25.0006 5.46515 25.0006 5.86512C25.0006 6.26509 24.9161 6.66055 24.7527 7.02562C24.5893 7.39068 24.3507 7.71712 24.0524 7.98356C23.9285 8.10745 23.7605 8.17707 23.5853 8.17711Z" fill="#DEC377"/>
</g>
<defs>
<clipPath id="clip0">
<rect width="40" height="40" fill="white"/>
</clipPath>
</defs>
</svg>
