<svg width="80" height="80" viewBox="0 0 80 80" fill="none" xmlns="http://www.w3.org/2000/svg">
<path d="M63.0864 10.7684H63.3746L63.1484 10.5899C56.5644 5.39519 48.4732 2.56711 40.0133 2.56711C19.3693 2.56711 2.5737 19.3627 2.5737 40.0067C2.5737 40.6888 2.02111 41.2402 1.34015 41.2402C0.659188 41.2402 0.106592 40.6888 0.106592 40.0067C0.106592 18.0022 18.0088 0.1 40.0133 0.1C49.2995 0.1 58.1613 3.30308 65.286 9.15877L65.4495 9.29314V9.08151V1.33356C65.4495 0.651393 66.0021 0.1 66.683 0.1C67.364 0.1 67.9166 0.651393 67.9166 1.33356V13.2356H66.8284V13.235L66.8177 13.2361C66.7391 13.2446 66.6632 13.2435 66.5801 13.236L66.5801 13.2356H66.571H56.0159C55.335 13.2356 54.7824 12.6842 54.7824 12.002C54.7824 11.3198 55.335 10.7684 56.0159 10.7684H63.0864Z" fill="black" fill-opacity="0.8" stroke="white" stroke-width="0.2"/>
<path d="M10.775 40.0067C10.775 23.8845 23.8911 10.7685 40.0133 10.7685C56.1354 10.7685 69.2515 23.8845 69.2515 40.0067C69.2515 56.1288 56.1354 69.2449 40.0133 69.2449C23.8911 69.2449 10.775 56.1288 10.775 40.0067ZM13.2422 40.0067C13.2422 54.7684 25.2516 66.7778 40.0133 66.7778C54.7749 66.7778 66.7844 54.7684 66.7844 40.0067C66.7844 25.245 54.7749 13.2356 40.0133 13.2356C25.2516 13.2356 13.2422 25.245 13.2422 40.0067Z" fill="black" fill-opacity="0.8" stroke="white" stroke-width="0.2"/>
<path d="M41.2468 18.6698C41.2468 19.352 40.6942 19.9034 40.0132 19.9034C39.3323 19.9034 38.7797 19.352 38.7797 18.6698V16.0027C38.7797 15.3205 39.3323 14.7691 40.0132 14.7691C40.6942 14.7691 41.2468 15.3205 41.2468 16.0027V18.6698Z" fill="black" fill-opacity="0.8" stroke="white" stroke-width="0.2"/>
<path d="M38.7797 61.3436C38.7797 60.6614 39.3323 60.11 40.0132 60.11C40.6942 60.11 41.2468 60.6614 41.2468 61.3436V64.0107C41.2468 64.6928 40.6942 65.2442 40.0132 65.2442C39.3323 65.2442 38.7797 64.6928 38.7797 64.0107V61.3436Z" fill="black" fill-opacity="0.8" stroke="white" stroke-width="0.2"/>
<path d="M64.0173 41.2402H61.3502C60.6692 41.2402 60.1166 40.6888 60.1166 40.0067C60.1166 39.3245 60.6692 38.7731 61.3502 38.7731H64.0173C64.6982 38.7731 65.2508 39.3245 65.2508 40.0067C65.2508 40.6888 64.6982 41.2402 64.0173 41.2402Z" fill="black" fill-opacity="0.8" stroke="white" stroke-width="0.2"/>
<path d="M16.0093 38.7731H18.6764C19.3574 38.7731 19.91 39.3245 19.91 40.0067C19.91 40.6888 19.3574 41.2402 18.6764 41.2402H16.0093C15.3284 41.2402 14.7758 40.6888 14.7758 40.0067C14.7758 39.3245 15.3284 38.7731 16.0093 38.7731Z" fill="black" fill-opacity="0.8" stroke="white" stroke-width="0.2"/>
<path d="M41.2468 33.5282V33.6056L41.3217 33.625C43.5731 34.2101 45.2475 36.2414 45.2475 38.6731C45.2475 41.5597 42.8998 43.9073 40.0133 43.9073C39.0463 43.9073 38.1515 43.6264 37.3717 43.1651L37.3049 43.1256L37.2501 43.1805L26.2163 54.2143C25.9757 54.4549 25.66 54.5758 25.3441 54.5758C25.0283 54.5758 24.7126 54.4549 24.472 54.2143C23.9897 53.7319 23.9897 52.9524 24.472 52.4701L35.5059 41.4362L35.5607 41.3814L35.5212 41.3146C35.0599 40.5348 34.779 39.64 34.779 38.6731C34.779 36.2414 36.4534 34.2101 38.7048 33.625L38.7797 33.6056V33.5282V26.6711C38.7797 25.9889 39.3323 25.4375 40.0133 25.4375C40.6942 25.4375 41.2468 25.9889 41.2468 26.6711V33.5282ZM37.2461 38.6731C37.2461 40.1992 38.4871 41.4402 40.0133 41.4402C41.5394 41.4402 42.7804 40.1992 42.7804 38.6731C42.7804 37.1469 41.5394 35.906 40.0133 35.906C38.4871 35.906 37.2461 37.1469 37.2461 38.6731Z" fill="black" fill-opacity="0.8" stroke="white" stroke-width="0.2"/>
<path d="M9.28343 63.4906L9.28334 63.4906C9.0605 63.6503 8.81421 63.724 8.56813 63.724C8.17378 63.724 7.80365 63.5409 7.55557 63.2052C7.16157 62.6516 7.28424 61.8872 7.83994 61.4793C8.3944 61.0842 9.17215 61.2207 9.56716 61.7621C9.96202 62.3179 9.83652 63.0952 9.28343 63.4906Z" fill="black" fill-opacity="0.8" stroke="white" stroke-width="0.2"/>
<path d="M12.9486 67.6273L12.9489 67.627C13.3956 67.1429 14.1618 67.0978 14.6557 67.5227V67.537L14.6887 67.5668C15.1925 68.0214 15.2194 68.7974 14.7624 69.3049C14.5149 69.5642 14.1815 69.6996 13.8489 69.6996C13.554 69.6996 13.2579 69.5891 13.0227 69.3789C12.5162 68.9089 12.4805 68.1311 12.9486 67.6273Z" fill="black" fill-opacity="0.8" stroke="white" stroke-width="0.2"/>
<path d="M78.7092 40.2667L78.7095 40.2667C79.3872 40.2901 79.9179 40.8566 79.8933 41.55C79.8686 42.202 79.3257 42.7339 78.6596 42.7339H78.6596H78.6595H78.6594H78.6593H78.6593H78.6592H78.6591H78.659H78.6589H78.6589H78.6588H78.6587H78.6586H78.6586H78.6585H78.6584H78.6583H78.6582H78.6582H78.6581H78.658H78.6579H78.6578H78.6578H78.6577H78.6576H78.6575H78.6575H78.6574H78.6573H78.6572H78.6571H78.6571H78.657H78.6569H78.6568H78.6567H78.6567H78.6566H78.6565H78.6564H78.6564H78.6563H78.6562H78.6561H78.656H78.656H78.6559H78.6558H78.6557H78.6556H78.6556H78.6555H78.6554H78.6553H78.6553H78.6552H78.6551H78.655H78.6549H78.6549H78.6548H78.6547H78.6546H78.6545H78.6545H78.6544H78.6543H78.6542H78.6541H78.6541H78.654H78.6539H78.6538H78.6537H78.6537H78.6536H78.6535H78.6534H78.6533H78.6533H78.6532H78.6531H78.653H78.6529H78.6529H78.6528H78.6527H78.6526H78.6525H78.6525H78.6524H78.6523H78.6522H78.6521H78.6521H78.652H78.6519H78.6518H78.6517H78.6517H78.6516H78.6515H78.6514H78.6513H78.6512H78.6512H78.6511H78.651H78.6509H78.6508H78.6508H78.6507H78.6506H78.6505H78.6504H78.6503H78.6503H78.6502H78.6501H78.65H78.6499H78.6499H78.6498H78.6497H78.6496H78.6495H78.6494H78.6494H78.6493H78.6492H78.6491H78.649H78.6489H78.6489H78.6488H78.6487H78.6486H78.6485H78.6484H78.6483H78.6483H78.6482H78.6481H78.648H78.6479H78.6478H78.6478H78.6477H78.6476H78.6475H78.6474H78.6473H78.6472H78.6472H78.6471H78.647H78.6469H78.6468H78.6467H78.6467H78.6466H78.6465H78.6464H78.6463H78.6462H78.6461H78.646H78.646H78.6459H78.6458H78.6457H78.6456H78.6455H78.6454H78.6454H78.6453H78.6452H78.6451H78.645H78.6449H78.6448H78.6447H78.6446H78.6446H78.6445H78.6444H78.6443H78.6442H78.6441H78.644H78.6439H78.6439H78.6438H78.6437H78.6436H78.6435H78.6434H78.6433H78.6432H78.6431H78.643H78.643H78.6429H78.6428H78.6427H78.6426H78.6425H78.6424H78.6423H78.6422H78.6421H78.642H78.642H78.6419H78.6418H78.6417H78.6416H78.6415H78.6414H78.6413H78.6412H78.6411H78.641H78.6409H78.6408H78.6407H78.6407H78.6406H78.6405H78.6404H78.6403H78.6402H78.6401H78.64H78.6399H78.6398H78.6397H78.6396H78.6395H78.6394H78.6393H78.6392H78.6391H78.639H78.6389H78.6388H78.6388H78.6387H78.6386H78.6385H78.6384H78.6383H78.6382H78.6381H78.638H78.6379H78.6378H78.6377H78.6376H78.6375H78.6374H78.6373H78.6372H78.6371H78.637H78.6369H78.6368H78.6367H78.6366H78.6365H78.6364H78.6363H78.6362H78.6361H78.636H78.6359H78.6358H78.6357H78.6356H78.6355H78.6354H78.6353H78.6352H78.6351H78.635H78.6349H78.6348H78.6347H78.6346H78.6345H78.6344H78.6343H78.6341H78.634H78.6339H78.6338H78.6337H78.6336H78.6335H78.6334H78.6333H78.6332H78.6331H78.633H78.6329H78.6328H78.6327H78.6326H78.6325H78.6324H78.6322H78.6321H78.632H78.6319H78.6318H78.6317H78.6316H78.6315H78.6314H78.6313H78.6312H78.6311H78.6309H78.6308H78.6307H78.6306H78.6305H78.6304H78.6303H78.6302H78.6301H78.63H78.6298H78.6297H78.6296H78.6295H78.6294H78.6293H78.6292H78.6291H78.6289H78.6288H78.6287H78.6286H78.6285H78.6284H78.6283H78.6282H78.628H78.6279H78.6278H78.6277H78.6276H78.6275H78.6273H78.6272H78.6271H78.627H78.6269H78.6268H78.6266H78.6265H78.6264H78.6263H78.6262H78.6261H78.6259H78.6258H78.6257H78.6256H78.6255H78.6253H78.6252H78.6251H78.625H78.6249H78.6247H78.6246H78.6245H78.6244H78.6243H78.6241H78.624H78.6239H78.6238H78.6236H78.6235H78.6234H78.6233H78.6232H78.623H78.6229H78.6228H78.6227H78.6225H78.6224H78.6223H78.6222H78.622H78.6219H78.6218H78.6217H78.6215H78.6214H78.6213H78.6211H78.621H78.6209H78.6208H78.6206H78.6205H78.6204H78.6202H78.6201H78.62H78.6199H78.6197H78.6196H78.6195H78.6193H78.6192H78.6191H78.6189H78.6188H78.6187H78.6185H78.6184H78.6183H78.6181H78.618H78.6179H78.6177H78.6176H78.6175H78.6173H78.6172H78.6171H78.6169H78.6168H78.6167H78.6165H78.6164H78.6163H78.6161H78.616H78.6158H78.6157H78.6156H78.6154H78.6153H78.6152H78.615H78.6149H78.6147H78.6146H78.6145H78.6143H78.6142H78.614H78.6139H78.6137H78.6136H78.6135H78.6133H78.6132H78.613H78.6129H78.6127H78.6126H78.6125H78.6123H78.6122H78.612H78.6119H78.6117H78.6116H78.6114H78.6113H78.6112H78.611H78.6109H78.6107H78.6106H78.6104H78.6103H78.6101H78.61H78.6098H78.6097H78.6095H78.6094H78.6092H78.6091H78.6089H78.6088H78.6086H78.6085H78.6083H78.6082H78.6082C77.9304 42.7083 77.4013 42.1293 77.426 41.4506C77.4507 40.7731 78.0303 40.2408 78.7092 40.2667Z" fill="black" fill-opacity="0.8" stroke="white" stroke-width="0.2"/>
<path d="M2.41372 49.1502L2.41366 49.1499L2.40621 49.1521C2.32846 49.1743 2.24774 49.1749 2.15363 49.1749C1.58521 49.1749 1.06875 48.7794 0.958297 48.2026L0.95834 48.2026L0.9577 48.1997C0.809959 47.5349 1.24086 46.8801 1.90688 46.7444L1.90688 46.7445L1.90861 46.7441C2.5732 46.5964 3.2268 47.0283 3.36253 47.6946L3.36251 47.6946L3.3629 47.6963C3.51062 48.3611 3.07984 49.0145 2.41372 49.1502Z" fill="black" fill-opacity="0.8" stroke="white" stroke-width="0.2"/>
<path d="M5.10051 56.6766L5.1005 56.6766L5.09822 56.6776C4.93802 56.7528 4.76581 56.7895 4.60728 56.7895C4.12762 56.7895 3.68276 56.5055 3.47175 56.0473C3.20067 55.4186 3.48532 54.6916 4.10046 54.4208C4.73076 54.1491 5.45813 54.4338 5.7291 55.0491C5.99963 55.6797 5.71451 56.4071 5.10051 56.6766Z" fill="black" fill-opacity="0.8" stroke="white" stroke-width="0.2"/>
<path d="M69.6032 62.9258L69.6039 62.925C70.0235 62.382 70.7875 62.2845 71.3307 62.703C71.874 63.1216 71.9716 63.8984 71.5533 64.4274L71.5524 64.4286C71.3057 64.7505 70.9358 64.9108 70.5782 64.9108C70.3078 64.9108 70.0488 64.8253 69.8121 64.6513C69.2824 64.2325 69.185 63.4547 69.6032 62.9258Z" fill="black" fill-opacity="0.8" stroke="white" stroke-width="0.2"/>
<path d="M64.1197 70.2517C63.676 69.7338 63.7374 68.957 64.2557 68.5127C64.7736 68.0701 65.5494 68.1314 65.9951 68.65C66.4389 69.1678 66.3776 69.9446 65.8595 70.3889C65.6244 70.5868 65.3406 70.6852 65.0575 70.6852C64.7129 70.6852 64.3672 70.5363 64.1197 70.2517Z" fill="black" fill-opacity="0.8" stroke="white" stroke-width="0.2"/>
<path d="M78.7229 49.7018L78.7226 49.7032C78.5871 50.2576 78.0812 50.6405 77.5262 50.6405C77.4271 50.6405 77.329 50.6294 77.2316 50.6038C76.577 50.4308 76.1698 49.7642 76.3296 49.098C76.5029 48.4441 77.1692 48.0374 77.835 48.197C78.4885 48.3718 78.8952 49.0385 78.7229 49.7018Z" fill="black" fill-opacity="0.8" stroke="white" stroke-width="0.2"/>
<path d="M19.2002 72.6126L19.2002 72.6127L19.2015 72.6104C19.5459 72.0189 20.2967 71.8334 20.8907 72.1779C21.4731 72.5372 21.6666 73.2893 21.3103 73.8679L21.3095 73.8693C21.075 74.2643 20.6684 74.4738 20.2486 74.4738C20.0372 74.4738 19.8162 74.424 19.6215 74.3023L19.6215 74.3023L19.6197 74.3012C19.0399 73.9558 18.8433 73.191 19.2002 72.6126Z" fill="black" fill-opacity="0.8" stroke="white" stroke-width="0.2"/>
<path d="M75.3353 55.7925L75.3359 55.7927C75.9511 56.088 76.1994 56.8261 75.9025 57.4461C75.6932 57.8781 75.2491 58.1377 74.7924 58.1377C74.6062 58.1377 74.4217 58.0992 74.2503 58.0135L74.2503 58.0135L74.2494 58.0131C73.6458 57.7187 73.3859 56.9769 73.6823 56.3593C73.9776 55.744 74.7302 55.4973 75.3353 55.7925Z" fill="black" fill-opacity="0.8" stroke="white" stroke-width="0.2"/>
<path d="M35.4265 77.1654L35.4266 77.1654C36.1054 77.2507 36.5862 77.8566 36.5001 78.5324L36.5 78.5334C36.426 79.1636 35.896 79.6199 35.2791 79.6199H35.2787H35.2784H35.2781H35.2778H35.2775H35.2772H35.2769H35.2766H35.2762H35.2759H35.2756H35.2753H35.275H35.2747H35.2744H35.2741H35.2737H35.2734H35.2731H35.2728H35.2725H35.2722H35.2719H35.2716H35.2712H35.2709H35.2706H35.2703H35.27H35.2697H35.2694H35.2691H35.2687H35.2684H35.2681H35.2678H35.2675H35.2672H35.2669H35.2666H35.2662H35.2659H35.2656H35.2653H35.265H35.2647H35.2644H35.2641H35.2637H35.2634H35.2631H35.2628H35.2625H35.2622H35.2619H35.2616H35.2612H35.2609H35.2606H35.2603H35.26H35.2597H35.2594H35.2591H35.2587H35.2584H35.2581H35.2578H35.2575H35.2572H35.2569H35.2566H35.2562H35.2559H35.2556H35.2553H35.255H35.2547H35.2544H35.2541H35.2537H35.2534H35.2531H35.2528H35.2525H35.2522H35.2519H35.2515H35.2512H35.2509H35.2506H35.2503H35.25H35.2497H35.2494H35.249H35.2487H35.2484H35.2481H35.2478H35.2475H35.2472H35.2469H35.2465H35.2462H35.2459H35.2456H35.2453H35.245H35.2447H35.2444H35.244H35.2437H35.2434H35.2431H35.2428H35.2425H35.2422H35.2419H35.2415H35.2412H35.2409H35.2406H35.2403H35.24H35.2397H35.2394H35.239H35.2387H35.2384H35.2381H35.2378H35.2375H35.2372H35.2369H35.2365H35.2362H35.2359H35.2356H35.2353H35.235H35.2347H35.2344H35.234H35.2337H35.2334H35.2331H35.2328H35.2325H35.2322H35.2319H35.2315H35.2312H35.2309H35.2306H35.2303H35.23H35.2297H35.2294H35.229H35.2287H35.2284H35.2281H35.2278H35.2275H35.2272H35.2269H35.2265H35.2262H35.2259H35.2256H35.2253H35.225H35.2247H35.2244H35.224H35.2237H35.2234H35.2231H35.2228H35.2225H35.2222H35.2219H35.2215H35.2212H35.2209H35.2206H35.2203H35.22H35.2197H35.2194H35.219H35.219V79.6154L35.1297 79.6058C34.4527 79.5332 33.9717 78.9177 34.058 78.239L34.058 78.2389C34.1446 77.5575 34.7492 77.0792 35.4265 77.1654Z" fill="black" fill-opacity="0.8" stroke="white" stroke-width="0.2"/>
<path d="M27.8984 75.4404L27.9002 75.441C28.5391 75.6499 28.886 76.3517 28.6634 77.0073C28.491 77.5119 28.0102 77.833 27.5045 77.833C27.3707 77.833 27.2344 77.8089 27.094 77.7708C26.4543 77.5474 26.1107 76.8452 26.3321 76.2055L26.3323 76.2049C26.5543 75.5513 27.2568 75.2171 27.8984 75.4404Z" fill="black" fill-opacity="0.8" stroke="white" stroke-width="0.2"/>
<path d="M50.7487 75.8823L50.7487 75.8823L50.7505 75.8817C51.4047 75.6842 52.0944 76.0548 52.2929 76.6954C52.4901 77.3477 52.1201 78.0396 51.4667 78.2372C51.344 78.2727 51.2203 78.2864 51.1084 78.2864C50.5775 78.2864 50.0841 77.9405 49.9239 77.4094L49.9239 77.4093C49.7263 76.7561 50.0971 76.0654 50.7487 75.8823Z" fill="black" fill-opacity="0.8" stroke="white" stroke-width="0.2"/>
<path d="M42.032 78.6441L42.032 78.6441L42.0319 78.6427C41.9703 77.9662 42.4744 77.3748 43.154 77.3112C43.8351 77.2623 44.4371 77.7707 44.4863 78.4457L44.4863 78.4457L44.4864 78.4475C44.548 79.1249 44.0432 79.7163 43.3652 79.7656L43.2725 79.7723V79.7786H43.2725H43.2723H43.2721H43.272H43.2718H43.2716H43.2715H43.2713H43.2711H43.271H43.2708H43.2706H43.2705H43.2703H43.2701H43.27H43.2698H43.2697H43.2695H43.2693H43.2692H43.269H43.2688H43.2687H43.2685H43.2684H43.2682H43.268H43.2679H43.2677H43.2676H43.2674H43.2672H43.2671H43.2669H43.2668H43.2666H43.2664H43.2663H43.2661H43.266H43.2658C42.6236 79.7786 42.0812 79.2858 42.032 78.6441Z" fill="black" fill-opacity="0.8" stroke="white" stroke-width="0.2"/>
<path d="M57.8884 72.9004L57.8884 72.9005L57.8905 72.8993C58.4814 72.5669 59.2342 72.7883 59.5534 73.3923L59.5534 73.3923L59.5546 73.3946C59.8869 73.9853 59.6657 74.7369 59.0615 75.0575L59.0614 75.0574L59.0569 75.0601C58.8732 75.1703 58.6778 75.2192 58.4816 75.2192C58.037 75.2192 57.6184 74.9863 57.3965 74.567L57.3965 74.5669L57.3953 74.5648C57.0629 73.9726 57.2842 73.221 57.8884 72.9004Z" fill="black" fill-opacity="0.8" stroke="white" stroke-width="0.2"/>
</svg>
