<svg width="40" height="40" viewBox="0 0 40 40" fill="none" xmlns="http://www.w3.org/2000/svg">
<circle cx="20" cy="20" r="18.25" stroke="black" stroke-opacity="0.8" stroke-width="1.5"/>
<path d="M23.6236 17.8118C24.9012 18.1876 26.0082 18.9737 26.7886 20.0172C27.5516 21.0346 28.0054 22.2977 28.0054 23.659V29.1276V29.752H27.3811H12.7991H12.1748V29.1276V23.659C12.1748 22.3006 12.6286 21.0375 13.3917 20.0172C14.1721 18.9766 15.2791 18.1876 16.5566 17.8118L16.9064 17.7106L17.1694 17.965C17.5538 18.3379 18.0105 18.6385 18.5163 18.8437C19.0019 19.0402 19.5337 19.1501 20.0916 19.1501C20.6523 19.1501 21.1841 19.0402 21.6668 18.8437C22.1726 18.6385 22.6293 18.3379 23.0137 17.965L23.2739 17.7106L23.6236 17.8118ZM20.0916 9.75342C21.2679 9.75342 22.3374 10.2332 23.1091 11.005L23.112 11.0078C23.8837 11.7796 24.3635 12.849 24.3635 14.0254C24.3635 15.2047 23.8837 16.2741 23.112 17.0459C22.3403 17.8176 21.2708 18.2974 20.0916 18.2974C18.9152 18.2974 17.8486 17.8205 17.074 17.0459L17.0711 17.043C16.2994 16.2683 15.8196 15.2018 15.8196 14.0254C15.8196 12.8461 16.2994 11.7767 17.0711 11.005C17.8428 10.2332 18.9123 9.75342 20.0916 9.75342ZM22.2304 11.8865C21.6842 11.3431 20.9269 11.005 20.0916 11.005C19.2562 11.005 18.5019 11.3431 17.9556 11.8894C17.4093 12.4357 17.0711 13.1901 17.0711 14.0254C17.0711 14.8607 17.4093 15.618 17.9527 16.1614L17.9556 16.1643C18.499 16.7077 19.2562 17.0459 20.0916 17.0459C20.9269 17.0459 21.6813 16.7077 22.2276 16.1614C22.7738 15.6151 23.112 14.8607 23.112 14.0254C23.112 13.1901 22.7738 12.4328 22.2304 11.8865ZM23.641 28.5033L23.6265 26.006C23.6265 25.6621 23.904 25.3817 24.2479 25.3817C24.5919 25.3817 24.8723 25.6592 24.8723 26.0031L24.8867 28.5033H26.7597V23.659C26.7597 22.5752 26.4013 21.5722 25.7943 20.7658C25.2393 20.0258 24.4763 19.4478 23.5976 19.1183C23.164 19.4853 22.6698 19.7859 22.138 19.9998C21.505 20.2571 20.8142 20.3987 20.0945 20.3987C19.3719 20.3987 18.6811 20.2571 18.051 19.9998C17.5191 19.783 17.0249 19.4824 16.5913 19.1183C15.7126 19.4478 14.9496 20.0258 14.3946 20.7658C13.7905 21.5722 13.4292 22.5752 13.4292 23.659V28.5033H15.3109L15.2964 26.006C15.2964 25.6621 15.5739 25.3817 15.9178 25.3817C16.2618 25.3817 16.5422 25.6592 16.5422 26.0031L16.5566 28.5033H23.6438H23.641Z" fill="black" fill-opacity="0.8"/>
<path fill-rule="evenodd" clip-rule="evenodd" d="M11.0008 13C11.7639 13 12.4547 13.3093 12.9547 13.8093L12.9576 13.8122C13.4577 14.3122 13.7669 15.003 13.7669 15.7661C13.7669 16.5292 13.4577 17.2228 12.9576 17.7229C13.0212 17.72 13.0848 17.7287 13.1484 17.7489C13.7564 17.9282 14.3049 18.2566 14.7487 18.6887C14.4066 18.932 14.0905 19.2095 13.8055 19.5159C13.5196 19.2582 13.1766 19.0616 12.8016 18.9513C12.4721 18.8559 12.2813 18.5091 12.3796 18.1767L12.3767 18.1709C11.972 18.4021 11.5009 18.538 11.0008 18.538C10.5008 18.538 10.0297 18.405 9.62214 18.168V18.1709C9.71752 18.5004 9.52964 18.8472 9.20014 18.9455C8.65675 19.1045 8.18561 19.4427 7.85322 19.8849C7.53239 20.3156 7.33873 20.8503 7.33873 21.4312V24.021H7.93126L7.92548 22.8128C7.92548 22.4689 8.20296 22.1885 8.54691 22.1885C8.89087 22.1885 9.17123 22.466 9.17123 22.81L9.17702 24.0239H12.1701V25.2697H6.71441H6.09009V24.6453V21.4312C6.09009 20.5757 6.37623 19.7779 6.85893 19.1363C7.35029 18.4802 8.04977 17.983 8.85329 17.7489C8.91688 17.7287 8.98336 17.7229 9.04695 17.7229L9.04406 17.72C8.54402 17.2171 8.23186 16.5263 8.23186 15.7661C8.23186 15.0001 8.54402 14.3093 9.04406 13.8093C9.5441 13.3093 10.2378 13 11.0008 13ZM12.0761 14.6938C11.8015 14.4221 11.42 14.2515 11.0008 14.2515C10.5817 14.2515 10.2002 14.4221 9.92852 14.6967C9.65393 14.9712 9.48339 15.3528 9.48339 15.769C9.48339 16.191 9.65393 16.5696 9.92562 16.8413L9.92852 16.8442C10.2002 17.1159 10.5817 17.2864 11.0008 17.2864C11.42 17.2864 11.7986 17.1159 12.0732 16.8413C12.3478 16.5667 12.5183 16.1881 12.5183 15.769C12.5183 15.3499 12.3478 14.9684 12.0761 14.6938Z" fill="black" fill-opacity="0.8"/>
<path fill-rule="evenodd" clip-rule="evenodd" d="M29.0009 13C29.764 13 30.4548 13.3093 30.9548 13.8093L30.9577 13.8122C31.4578 14.3122 31.767 15.003 31.767 15.7661C31.767 16.5292 31.4578 17.2228 30.9577 17.7229C31.0213 17.72 31.0849 17.7287 31.1485 17.7489C31.952 17.9859 32.6515 18.4831 33.1429 19.1363C33.6256 19.7779 33.9117 20.5728 33.9117 21.4312V24.6453V25.2697H33.2874H28.0008V24.0239H30.8306L30.8248 22.8157C30.8248 22.4718 31.1023 22.1914 31.4462 22.1914C31.7902 22.1914 32.0705 22.4689 32.0705 22.8128L32.0763 24.0268H32.6631V21.437C32.6631 20.8561 32.4694 20.3184 32.1486 19.8907C31.8162 19.4484 31.3422 19.1103 30.8017 18.9513C30.4721 18.8559 30.2814 18.5091 30.3797 18.1767L30.3768 18.1709C29.9721 18.4021 29.501 18.538 29.0009 18.538C28.5009 18.538 28.0298 18.405 27.6222 18.168V18.1709C27.7176 18.5004 27.5297 18.8472 27.2002 18.9455C26.8624 19.0443 26.5526 19.2124 26.2866 19.4317C25.9949 19.1292 25.6724 18.8568 25.3242 18.6194C25.7549 18.2197 26.2774 17.9167 26.8534 17.7489C26.917 17.7287 26.9835 17.7229 27.047 17.7229L27.0442 17.72C26.5441 17.2171 26.232 16.5263 26.232 15.7661C26.232 15.0001 26.5441 14.3093 27.0442 13.8093C27.5442 13.3093 28.2379 13 29.0009 13ZM30.0762 14.6938C29.8016 14.4221 29.42 14.2515 29.0009 14.2515C28.5818 14.2515 28.2003 14.4221 27.9286 14.6967C27.654 14.9712 27.4835 15.3528 27.4835 15.769C27.4835 16.191 27.654 16.5696 27.9257 16.8413L27.9286 16.8442C28.2003 17.1159 28.5818 17.2864 29.0009 17.2864C29.42 17.2864 29.7987 17.1159 30.0733 16.8413C30.3479 16.5667 30.5184 16.1881 30.5184 15.769C30.5184 15.3499 30.3479 14.9684 30.0762 14.6938Z" fill="black" fill-opacity="0.8"/>
</svg>
