<svg width="80" height="80" viewBox="0 0 80 80" fill="none" xmlns="http://www.w3.org/2000/svg">
<path d="M54.0621 56.1231C59.9698 56.1231 64.7698 51.3231 64.7698 45.2923C64.7698 42.9539 65.7545 40.6154 67.3545 39.0154C71.5391 34.8308 71.5391 27.9385 67.3545 23.7539C65.6314 22.0308 64.7698 19.8154 64.7698 17.4769C64.7698 11.5692 59.9698 6.64617 53.9391 6.64617C51.6006 6.64617 49.2621 5.66156 47.6621 4.06156C43.4775 -0.123058 36.5852 -0.123058 32.4006 4.06156C30.6775 5.78463 28.4621 6.64617 26.1237 6.64617C20.216 6.64617 15.2929 11.4462 15.2929 17.4769C15.2929 19.8154 14.3083 22.1539 12.7083 23.7539C10.616 25.8462 9.5083 28.4308 9.5083 31.3846C9.5083 34.2154 10.616 36.9231 12.7083 39.0154C14.4314 40.7385 15.2929 42.9539 15.2929 45.2923C15.2929 51.2 20.0929 56.1231 26.1237 56.1231C28.4621 56.1231 30.8006 57.1077 32.4006 58.7077C34.4929 60.8 37.2006 61.9077 40.0314 61.9077C42.7391 61.9077 45.5698 60.8 47.6621 58.7077C49.5083 56.9846 51.7237 56.1231 54.0621 56.1231ZM33.8775 57.3539C31.7852 55.2616 29.0775 54.1539 26.2468 54.1539C21.3237 54.1539 17.2621 50.0923 17.2621 45.1692C17.2621 42.3385 16.1545 39.6308 14.0621 37.5385C12.3391 35.8154 11.4775 33.6 11.4775 31.2616C11.4775 28.9231 12.4621 26.5846 14.0621 24.9846C16.1545 22.8923 17.2621 20.1846 17.2621 17.3539C17.2621 12.4308 21.3237 8.36925 26.2468 8.36925C29.0775 8.36925 31.7852 7.26156 33.8775 5.16925C35.6006 3.69233 37.816 2.83079 40.1545 2.83079C42.4929 2.83079 44.7083 3.69233 46.4314 5.4154C48.5237 7.38463 51.2314 8.49233 54.0621 8.49233C58.9852 8.49233 62.9237 12.5539 62.9237 17.4769C62.9237 20.3077 64.0314 23.0154 66.1237 25.1077C69.5698 28.5539 69.5698 34.2154 66.1237 37.7846C64.0314 39.8769 62.9237 42.5846 62.9237 45.4154C62.9237 50.3385 58.8622 54.4 53.9391 54.4C51.1083 54.4 48.4006 55.5077 46.3083 57.6C42.9852 60.9231 37.3237 60.9231 33.8775 57.3539Z" fill="black" fill-opacity="0.8"/>
<path d="M61.9391 31.3846C61.9391 30.8923 61.5699 30.4 60.9545 30.4C60.4622 30.4 59.9699 30.7692 59.9699 31.3846C59.9699 42.3384 50.9853 51.3231 39.9083 51.4461C28.9545 51.4461 19.9699 42.4615 19.8468 31.3846C19.8468 28.3077 20.4622 25.4769 21.816 22.7692C25.3853 15.8769 32.5237 11.4461 40.1545 11.4461C48.5237 11.4461 56.1545 16.7384 58.9853 24.7384C59.1083 25.2307 59.7237 25.4769 60.216 25.3538C60.4622 25.2307 60.5853 25.1077 60.7083 24.8615C60.8314 24.6154 60.8314 24.3692 60.7083 24.1231C57.6314 15.5077 49.3853 9.59998 40.1545 9.59998C35.9699 9.59998 31.9083 10.8307 28.3391 13.0461C24.893 15.2615 22.1853 18.3384 20.4622 22.0307C19.1083 24.9846 18.3699 28.1846 18.3699 31.5077C18.3699 43.5692 28.216 53.4154 40.2776 53.4154C52.3391 53.4154 61.9391 43.4461 61.9391 31.3846Z" fill="black" fill-opacity="0.8"/>
<path d="M55.0465 26.5846C54.9234 26.2154 54.6773 25.9692 54.308 25.9692L45.0773 24.6154L41.0157 16.2461C40.6465 15.6308 39.6619 15.6308 39.4157 16.2461L35.2311 24.6154L26.1234 25.9692C25.7542 25.9692 25.508 26.2154 25.385 26.5846C25.2619 26.9538 25.385 27.3231 25.6311 27.5692L32.2773 34.0923L30.5542 43.0769C30.5542 43.4461 30.6773 43.8154 30.9234 43.9384C31.1696 44.1846 31.5388 44.1846 31.908 44.0615L40.1542 39.7538L48.4003 44.0615C48.5234 44.1846 48.6465 44.1846 48.7696 44.1846C49.0157 44.1846 49.1388 44.1846 49.2619 44.0615C49.508 43.8154 49.6311 43.4461 49.6311 43.2L48.0311 34.0923L54.6773 27.5692C55.0465 27.3231 55.0465 26.9538 55.0465 26.5846ZM46.4311 32.9846C46.185 33.2308 46.0619 33.4769 46.185 33.8461L47.5388 41.6L40.5234 37.9077C40.4003 37.7846 40.2773 37.7846 40.1542 37.7846C40.0311 37.7846 39.908 37.7846 39.785 37.9077L32.7696 41.6L34.1234 33.8461C34.1234 33.6 34.1234 33.2308 33.8773 32.9846L28.2157 27.4461L35.9696 26.3385C36.2157 26.3385 36.585 26.0923 36.708 25.8461L40.1542 18.8308L43.6003 25.8461C43.7234 26.0923 43.9696 26.3385 44.3388 26.3385L52.0926 27.4461L46.4311 32.9846Z" fill="black" fill-opacity="0.8"/>
<path d="M34.0005 63.5077C33.5082 63.2615 33.0159 63.5077 32.7697 64L27.2312 75.8154L23.7851 66.2154C23.662 65.9692 23.5389 65.8462 23.2928 65.7231C23.0466 65.6 22.8005 65.6 22.5543 65.7231L12.9543 69.1692L18.2466 57.7231C18.4928 57.2308 18.2466 56.7385 17.7543 56.4923C17.262 56.2462 16.7697 56.4923 16.5235 56.9846L10.2466 70.5231C10.1235 70.8923 10.1235 71.2616 10.3697 71.5077C10.6158 71.7539 10.9851 71.8769 11.3543 71.7539L22.1851 67.8154L26.1235 78.6462C26.2466 79.0154 26.6158 79.2616 26.9851 79.2616C27.3543 79.2616 27.7235 79.0154 27.8466 78.7692L34.2466 64.9846C34.7389 64.2462 34.4928 63.7539 34.0005 63.5077Z" fill="black" fill-opacity="0.8"/>
<path d="M67.9698 71.3847C68.216 71.1385 68.3391 70.7693 68.0929 70.4001L62.1852 57.8462C61.9391 57.3539 61.4468 57.2308 60.9545 57.3539C60.4621 57.6001 60.3391 58.0924 60.4621 58.5847L65.3852 69.1693L55.7852 65.7231C55.5391 65.6001 55.2929 65.6001 55.0468 65.7231C54.8006 65.8462 54.6775 65.9693 54.5545 66.2154L51.2314 75.6924L46.0621 64.4924C45.816 64.0001 45.3237 63.877 44.8314 64.0001C44.3391 64.2462 44.216 64.7385 44.3391 65.2308L50.4929 78.4001C50.616 78.7693 50.9852 78.8924 51.3544 78.8924C51.7237 78.8924 52.0929 78.6462 52.216 78.277L56.1545 67.4462L66.9852 71.3847C67.3544 71.7539 67.7237 71.6308 67.9698 71.3847Z" fill="black" fill-opacity="0.8"/>
</svg>
