<svg width="40" height="40" viewBox="0 0 40 40" fill="none" xmlns="http://www.w3.org/2000/svg">
<g clip-path="url(#clip0)">
<path d="M39.4727 0.195327C39.212 -0.065353 38.7906 -0.065353 38.5299 0.195327L36.0578 2.66678H20.5357L1.0214 22.3418C0.57671 22.7858 0.332031 23.3772 0.332031 24.0052C0.332031 24.6332 0.57671 25.2246 1.0214 25.6686L14.6661 39.3133C15.1241 39.7713 15.7248 40 16.3268 40C16.9309 40 17.5362 39.7693 17.9989 39.3066L37.0005 19.7916V3.6095L39.472 1.13804C39.7327 0.877361 39.7327 0.456006 39.4727 0.195327ZM35.6678 19.2503L17.0502 38.3706C16.6535 38.7679 16.0068 38.7679 15.6088 38.3706L1.96411 24.7259C1.77144 24.5332 1.66543 24.2772 1.66543 24.0052C1.66543 23.7332 1.77144 23.4772 1.96611 23.2825L21.0911 4.00018H34.7251L31.5029 7.22234C30.9756 6.87299 30.3455 6.66698 29.6675 6.66698C27.8294 6.66698 26.334 8.16239 26.334 10.0005C26.334 11.8386 27.8294 13.334 29.6675 13.334C31.5056 13.334 33.001 11.8386 33.001 10.0005C33.001 9.32245 32.795 8.69242 32.4456 8.16506L35.6678 4.9429V19.2503ZM31.6676 10.0005C31.6676 11.1032 30.7702 12.0006 29.6675 12.0006C28.5648 12.0006 27.6674 11.1032 27.6674 10.0005C27.6674 8.89776 28.5648 8.00038 29.6675 8.00038C29.9755 8.00038 30.2635 8.07639 30.5242 8.20106L29.1961 9.52913C28.9355 9.78981 28.9355 10.2112 29.1961 10.4718C29.3261 10.6018 29.4968 10.6672 29.6675 10.6672C29.8382 10.6672 30.0088 10.6018 30.1389 10.4718L31.4669 9.14377C31.5916 9.40445 31.6676 9.69247 31.6676 10.0005Z" fill="#DEC377"/>
<path d="M26.9426 14.088C27.2033 13.8274 27.2033 13.406 26.9426 13.1453C26.6819 12.8847 26.2606 12.8847 25.9999 13.1453L25.5025 13.6427C24.3111 12.6893 22.799 12.2206 21.2556 12.3513C20.1802 12.4413 19.2069 12.9607 18.5148 13.8134C17.8028 14.6914 17.4741 15.8395 17.6148 16.9629L18.1221 21.0231L12.1572 26.988C10.7904 25.1613 10.9318 22.5565 12.5905 20.8971C12.8512 20.6364 12.8512 20.215 12.5905 19.9543C12.3299 19.6937 11.9085 19.6937 11.6478 19.9543C9.46771 22.1344 9.32104 25.5873 11.2045 27.9407L10.4431 28.7021C10.1824 28.9628 10.1824 29.3841 10.4431 29.6448C10.5731 29.7748 10.7438 29.8402 10.9145 29.8402C11.0851 29.8402 11.2558 29.7748 11.3858 29.6448L12.1478 28.8828C13.2099 29.7315 14.5253 30.1975 15.8887 30.1975C16.056 30.1975 16.2241 30.1902 16.3927 30.1762C17.4681 30.0868 18.4415 29.5682 19.1335 28.7148C19.8462 27.8367 20.1749 26.688 20.0342 25.5646L19.5269 21.5044L25.4918 15.5395C26.8579 17.3662 26.7172 19.9717 25.0578 21.6311C24.7971 21.8918 24.7971 22.3131 25.0578 22.5738C25.3185 22.8345 25.7399 22.8345 26.0005 22.5738C28.1806 20.393 28.3267 16.9402 26.4439 14.5867L26.9426 14.088ZM18.7095 25.7306C18.8055 26.4953 18.5822 27.2767 18.0968 27.8754C17.6355 28.4441 16.9908 28.7894 16.2807 28.8488C15.1353 28.9388 14.0086 28.6094 13.0999 27.9314L18.3308 22.6998L18.7095 25.7306ZM18.9369 16.7975C18.8408 16.0335 19.0642 15.2514 19.5489 14.6534C20.0102 14.0847 20.6556 13.7394 21.3656 13.6794C22.511 13.5854 23.6384 13.918 24.5471 14.5967L19.3155 19.8283L18.9369 16.7975Z" fill="#DEC377"/>
</g>
<defs>
<clipPath id="clip0">
<rect width="40" height="40" fill="white"/>
</clipPath>
</defs>
</svg>
