<svg width="80" height="80" viewBox="0 0 80 80" fill="none" xmlns="http://www.w3.org/2000/svg">
<path d="M60.3899 71.7611H12.9056V24.5913L29.2578 8.3439H59.5513V26.3732C59.5513 26.7925 59.8657 27.2118 60.3899 27.2118C60.914 27.2118 61.2284 26.8974 61.2284 26.3732V7.50532C61.2284 7.08604 60.914 6.66675 60.3899 6.66675H28.9433C28.7337 6.66675 28.524 6.77157 28.4192 6.87639L11.5429 23.7527C11.4381 23.8575 11.3333 24.0672 11.3333 24.2768V72.4948C11.3333 72.9141 11.6477 73.3334 12.1718 73.3334H60.3899C60.8091 73.3334 61.2284 73.019 61.2284 72.4948C61.2284 71.9707 60.8091 71.7611 60.3899 71.7611Z" fill="black" fill-opacity="0.8"/>
<path d="M29.6768 24.2768V11.6982C29.6768 11.2789 29.3624 10.8596 28.8382 10.8596C28.3141 10.8596 27.9997 11.1741 27.9997 11.6982V23.5431H16.3645C15.9452 23.5431 15.5259 23.8575 15.5259 24.3816C15.5259 24.9057 15.8403 25.2202 16.3645 25.2202H28.9431C29.3624 25.1154 29.6768 24.6961 29.6768 24.2768Z" fill="black" fill-opacity="0.8"/>
<path d="M53.0533 30.8806H18.4621C18.0428 30.8806 17.6235 31.195 17.6235 31.7191C17.6235 32.2432 17.938 32.5577 18.4621 32.5577H53.0533C53.4726 32.5577 53.8919 32.2432 53.8919 31.7191C53.8919 31.195 53.4726 30.8806 53.0533 30.8806Z" fill="black" fill-opacity="0.8"/>
<path d="M53.7864 37.9036C53.7864 37.4843 53.4719 37.0651 52.9478 37.0651H18.3566C17.9374 37.0651 17.5181 37.3795 17.5181 37.9036C17.5181 38.4277 17.8325 38.7422 18.3566 38.7422H52.9478C53.4719 38.7422 53.7864 38.3229 53.7864 37.9036Z" fill="black" fill-opacity="0.8"/>
<path d="M18.4621 43.4592C18.0428 43.4592 17.6235 43.7736 17.6235 44.2977C17.6235 44.8218 17.938 45.1363 18.4621 45.1363H46.764C47.1833 45.1363 47.6026 44.8218 47.6026 44.2977C47.6026 43.7736 47.2881 43.4592 46.764 43.4592H18.4621Z" fill="black" fill-opacity="0.8"/>
<path d="M63.3247 40.3146C57.245 40.3146 51.8991 44.0882 49.8027 49.7485H20.6622C20.4526 49.7485 20.2429 49.8534 20.1381 49.9582L15.9452 54.1511C15.8404 54.2559 15.7356 54.4655 15.7356 54.6752C15.7356 54.8848 15.7356 54.9896 15.8404 55.1993L20.0333 59.3921C20.1381 59.497 20.3478 59.6018 20.5574 59.6018H24.8551C25.0647 59.6018 25.2744 59.497 25.3792 59.3921L27.7901 56.9812L30.4106 59.3921C30.5155 59.497 30.7251 59.6018 30.9348 59.6018H31.983C32.1926 59.6018 32.4023 59.497 32.5071 59.3921L34.918 56.9812L37.3289 59.3921C37.4337 59.497 37.6433 59.6018 37.853 59.6018H38.9012C39.1109 59.6018 39.3205 59.497 39.4253 59.3921L41.8362 56.9812L44.2471 59.3921C44.3519 59.497 44.5616 59.6018 44.7712 59.6018H49.4882C51.5846 65.2622 56.9306 69.0357 63.0102 69.0357C70.9767 69.0357 77.4756 62.5368 77.4756 54.5703C77.4756 46.6039 71.2911 40.3146 63.3247 40.3146ZM63.3247 67.5682C57.6643 67.5682 52.8425 64.0043 51.0605 58.6584C50.9557 58.3439 50.6412 58.1343 50.3268 58.1343H45.4002L42.6748 55.4089C42.57 55.3041 42.3603 55.1993 42.1507 55.1993C41.941 55.1993 41.7314 55.3041 41.6266 55.4089L38.7964 58.0295H38.3771L35.6517 55.3041C35.3373 54.9896 34.8132 54.9896 34.4987 55.3041L31.7733 58.0295H31.354L28.6287 55.3041C28.3142 54.9896 27.7901 54.9896 27.4756 55.3041L24.7503 58.0295H20.9767L17.5176 54.5703L20.9767 51.1112H50.4316C50.7461 51.1112 51.0605 50.9016 51.1654 50.5871C52.9473 45.346 57.7691 41.7821 63.3247 41.7821C70.4526 41.7821 76.2178 47.5473 76.2178 54.6752C76.2178 61.803 70.4526 67.5682 63.3247 67.5682Z" fill="black" fill-opacity="0.8"/>
<path d="M68.5655 49.2244C65.5256 49.2244 63.1147 51.6353 63.1147 54.6751C63.1147 57.7149 65.5256 60.1258 68.5655 60.1258C71.6053 60.1258 74.0162 57.7149 74.0162 54.6751C74.0162 51.6353 71.6053 49.2244 68.5655 49.2244ZM68.5655 58.5535C66.469 58.5535 64.6871 56.7715 64.6871 54.6751C64.6871 52.5787 66.469 50.7967 68.5655 50.7967C70.6619 50.7967 72.4439 52.5787 72.4439 54.6751C72.4439 56.7715 70.7667 58.5535 68.5655 58.5535Z" fill="black" fill-opacity="0.8"/>
<path d="M53.7863 11.6982C53.7863 11.2789 53.4718 10.8596 52.9477 10.8596H40.3691C39.9498 10.8596 39.5305 11.1741 39.5305 11.6982V26.3732C39.5305 26.7925 39.845 27.2118 40.3691 27.2118H52.9477C53.367 27.2118 53.7863 26.8974 53.7863 26.3732V11.6982ZM52.2139 25.6395H41.2077V12.5368H52.2139V25.6395Z" fill="black" fill-opacity="0.8"/>
</svg>
