<svg width="40" height="40" viewBox="0 0 40 40" fill="none" xmlns="http://www.w3.org/2000/svg">
<path d="M35.8805 12.3282L36.0558 12.28L35.9752 12.117C35.1238 10.3957 33.9882 8.80632 32.5909 7.40909C29.2279 4.04612 24.756 2.19375 20 2.19375C15.244 2.19375 10.7721 4.04612 7.40909 7.40909C4.04612 10.7721 2.19375 15.244 2.19375 20C2.19375 24.756 4.04612 29.2279 7.40909 32.5909C10.7721 35.9539 15.244 37.8063 20 37.8063C23.0848 37.8063 26.0501 37.0261 28.6714 35.5602L28.6737 35.5588C30.4041 34.5489 31.4781 32.6819 31.4781 30.6798C31.4781 30.007 31.3606 29.3529 31.1378 28.7412L31.0879 28.604L31.0862 28.6046C30.7212 27.6784 30.1112 26.8562 29.2978 26.2228C28.8316 25.8598 28.0483 25.5378 27.1078 25.4753L26.9321 25.4636L26.9485 25.6389C26.9587 25.7485 26.9645 25.8586 26.9645 25.9696C26.9645 27.9115 25.3845 29.4915 23.4427 29.4915C21.5008 29.4915 19.9208 27.9115 19.9208 25.9696C19.9208 24.0278 21.5008 22.4477 23.4427 22.4477C24.3822 22.4477 25.2362 22.8182 25.8687 23.4204L25.9194 23.4687L25.989 23.4608C26.4748 23.4057 26.9632 23.4003 27.4484 23.448L27.4485 23.448C27.7481 23.4774 28.0453 23.5274 28.3354 23.5956L28.6488 23.6692L28.5036 23.3819L27.4429 21.2833C26.4176 19.2546 25.999 16.9897 26.188 14.7676L26.1956 14.6777L26.1197 14.6288C25.1453 14.0012 24.4989 12.908 24.4989 11.6666C24.4989 9.72472 26.0789 8.14469 28.0208 8.14469C29.9626 8.14469 31.5427 9.72472 31.5427 11.6666C31.5427 13.5022 30.1304 15.014 28.3354 15.1736L28.2043 15.1853L28.1988 15.3168C28.1106 17.4462 28.5955 19.0329 29.3882 20.6014L29.5621 20.9454L29.6665 20.5744C29.7495 20.2796 29.8496 19.9889 29.9705 19.7036C30.5885 18.2454 31.6572 17.031 33.0888 16.1499L33.1664 16.1021L33.1598 16.0112C33.1096 15.3231 33.2634 14.6352 33.6127 14.0211C34.0752 13.2082 34.9672 12.5791 35.8805 12.3282ZM36.8842 14.3187L36.8391 14.1842L36.7023 14.2218L36.2822 14.3372C35.9018 14.4418 35.5842 14.6888 35.3892 15.0317C35.1941 15.3746 35.1442 15.7738 35.2487 16.1542C35.4647 16.9402 36.2792 17.4038 37.0657 17.1878L37.0657 17.1878L37.4337 17.0866L37.565 17.0505L37.5417 16.9163C37.388 16.0311 37.1676 15.1634 36.8842 14.3187ZM32.9998 27.8815L32.9998 27.8815L33.0013 27.8854C33.342 28.7617 33.5219 29.7059 33.522 30.6798C33.522 30.8493 33.5162 31.0182 33.505 31.1861L33.474 31.6517L33.7705 31.2914C36.3845 28.1153 37.8063 24.1665 37.8063 20C37.8063 19.7649 37.8005 19.5311 37.7915 19.2986L37.7843 19.1099L37.6021 19.1597C37.2925 19.2443 36.9812 19.2848 36.675 19.2848C35.668 19.2848 34.7135 18.8484 34.0517 18.1124L33.9632 18.014L33.8545 18.0895C32.9442 18.7222 32.2589 19.5416 31.8522 20.5011L31.9903 20.5596L31.8522 20.5011C31.3224 21.7512 31.3067 23.1434 31.7997 24.523L31.931 24.4761L31.7997 24.523L32.9998 27.8815ZM20 0.15C25.3024 0.15 30.2867 2.21459 34.0361 5.96396C37.7854 9.71333 39.85 14.6976 39.85 20C39.85 25.3024 37.7854 30.2867 34.0361 34.036C30.2867 37.7854 25.3024 39.85 20 39.85C14.6976 39.85 9.71333 37.7854 5.96388 34.036C2.21459 30.2867 0.15 25.3024 0.15 20C0.15 14.6976 2.21459 9.71333 5.96388 5.96396C9.71333 2.21459 14.6976 0.15 20 0.15ZM28.0208 10.1885C27.2056 10.1885 26.5427 10.8515 26.5427 11.6666C26.5427 12.4818 27.2056 13.1448 28.0208 13.1448C28.836 13.1448 29.4989 12.4818 29.4989 11.6666C29.4989 10.8515 28.836 10.1885 28.0208 10.1885ZM24.9207 25.9697C24.9207 25.1545 24.2578 24.4916 23.4426 24.4916C22.6274 24.4916 21.9645 25.1545 21.9645 25.9697C21.9645 26.7849 22.6274 27.4478 23.4426 27.4478C24.2578 27.4478 24.9207 26.7849 24.9207 25.9697Z" fill="black" fill-opacity="0.8" stroke="white" stroke-width="0.3"/>
<path d="M8.96803 22.2325V22.082L8.81749 22.0825L7.57403 22.0871L6.9854 22.0893L6.88629 22.0897L6.87859 20.046L6.97838 20.0456L7.56887 20.0434L8.81856 20.0388L8.96803 20.0382V19.8888V10.874H14.503C15.9981 10.874 17.4155 11.4523 18.495 12.5034L18.495 12.5034C19.588 13.5675 20.1885 14.9759 20.1885 16.4699C20.1885 17.9638 19.5879 19.3721 18.495 20.4363C17.4155 21.4874 15.9981 22.0657 14.503 22.0657C13.9395 22.0657 12.5318 22.0699 11.1613 22.0744L11.0118 22.0749V22.2244V24.3984V24.5489L11.1623 24.5484C11.8474 24.5461 12.9756 24.5439 13.9325 24.5423L15.1627 24.5404L15.5249 24.5399V26.5837L15.1623 26.5842L13.9321 26.5861C12.9751 26.5877 11.8467 26.5899 11.1613 26.5921L11.0118 26.5926V26.7421V29.126H8.96803V26.7502V26.5997L8.81746 26.6002L7.57403 26.6049L6.98541 26.6071L6.88629 26.6075L6.87859 24.5637L6.97838 24.5634L7.56887 24.5611L8.81856 24.5565L8.96803 24.556V24.4065V22.2325ZM11.1618 12.9177H11.0118V13.0677V19.8806V20.0311L11.1623 20.0306C12.5329 20.026 13.939 20.0219 14.503 20.0219C16.4748 20.0219 18.1447 18.4004 18.1447 16.4698C18.1447 14.5391 16.4749 12.9177 14.503 12.9177H11.1618Z" fill="black" fill-opacity="0.8" stroke="white" stroke-width="0.3"/>
</svg>
