<svg width="80" height="80" viewBox="0 0 80 80" fill="none" xmlns="http://www.w3.org/2000/svg">
<path d="M70.2873 22.4153C52.3181 22.1692 40.7488 6.16919 40.6258 6.04611C40.2565 5.5538 39.5181 5.5538 39.1488 6.04611C39.0258 6.16919 27.4565 22.1692 9.48729 22.4153C8.99499 22.4153 8.62576 22.7846 8.62576 23.2769C8.62576 23.6461 5.1796 60.2 39.6411 75.2153C39.7642 75.2153 39.8873 75.3384 40.0104 75.3384C40.1334 75.3384 40.2565 75.3384 40.3796 75.2153C74.7181 60.323 71.395 23.6461 71.395 23.2769C71.1488 22.7846 70.7796 22.4153 70.2873 22.4153ZM39.8873 73.2461C9.9796 60.0769 10.1027 29.5538 10.3488 24.2615C26.3488 23.6461 37.0565 11.7076 39.8873 8.13842C42.7181 11.7076 53.4258 23.6461 69.4258 24.2615C69.6719 29.5538 69.795 60.0769 39.8873 73.2461Z" fill="black" fill-opacity="0.8"/>
<path d="M63.1485 29.0615C53.0562 27.0923 45.3023 21.3077 40.5023 16.8769C40.1947 16.5929 39.887 16.2964 39.887 16.2964C39.887 16.2964 39.5793 16.5854 39.2716 16.8769C34.5947 21.3077 26.7177 27.0923 16.6254 29.0615C16.34 29.1329 15.8381 29.24 15.8381 29.24C15.8381 29.24 15.887 29.8393 15.887 30.0461C16.6254 39.6461 20.5639 57.2461 39.3947 66.9692C39.5177 67.0923 39.6408 67.0923 39.7639 67.0923C39.887 67.0923 40.01 67.0923 40.1331 66.9692C59.087 57.2461 62.7309 39.6227 63.6408 30.0461C63.6707 29.7315 63.7262 29.168 63.7262 29.168C63.7262 29.168 63.7022 29.16 63.1485 29.0615ZM39.887 65.1231C22.6562 56.0154 18.7177 40.0154 17.8562 30.7846C27.5793 28.6923 35.087 23.2769 39.887 18.8461C44.687 23.2769 52.3177 28.5692 61.9177 30.7846C61.1793 40.0154 57.1177 56.0154 39.887 65.1231Z" fill="black" fill-opacity="0.8"/>
<path d="M34.718 33.6153V37.6769H31.8872H30.9026V51.9538H31.8872H49.118H50.1026V38.6615V37.6769H46.2872V33.6153C46.2872 30.4153 43.7026 27.7076 40.3795 27.7076C37.0564 27.7076 34.718 30.4153 34.718 33.6153ZM48.2564 49.9846H32.8718V39.523H35.7026H45.5487H48.3795V49.9846H48.2564ZM36.6872 33.6153C36.6872 31.3999 38.4103 29.5538 40.6257 29.5538C42.841 29.5538 44.6872 31.3999 44.6872 33.6153V37.6769H36.6872V33.6153Z" fill="black" fill-opacity="0.8"/>
<path d="M40.5024 42.5999L39.5178 42.5999V47.0307H40.5024H41.4871V42.5999L40.5024 42.5999Z" fill="black" fill-opacity="0.8"/>
</svg>
