<svg width="80" height="80" viewBox="0 0 80 80" fill="none" xmlns="http://www.w3.org/2000/svg">
<path d="M75.8817 15.2069C76.5713 14.5172 76.9851 13.5517 76.9851 12.5862C76.9851 11.6207 76.5713 10.6552 75.8817 9.96552L70.0886 4.17241C68.7093 2.7931 66.0886 2.7931 64.7093 4.17241L58.9162 9.96552L49.6748 18.931C46.7782 17.5517 43.4679 16.7241 40.0196 16.7241C36.5714 16.7241 33.261 17.5517 30.3645 18.931L21.261 9.82759L15.4679 4.03448C14.0886 2.65517 11.6058 2.65517 10.0886 4.03448L4.15756 9.82759C2.64032 11.3448 2.64032 13.6897 4.15756 15.2069L9.95066 21L19.0541 30.1034C17.6748 33 16.8472 36.3103 16.8472 39.7586C16.8472 43.2069 17.6748 46.5172 19.0541 49.4138L8.15756 60.3103C8.01963 60.4483 8.01963 60.5862 7.8817 60.7241L3.05411 75.6207C2.91618 76.0345 3.05411 76.4483 3.32997 76.7241C3.4679 76.8621 3.74377 77 4.01963 77C4.15756 77 4.29549 77 4.29549 77L18.9162 72.1724C19.0541 72.1724 19.192 72.0345 19.33 71.8965L30.2265 61C33.1231 62.3793 36.4334 63.2069 39.8817 63.2069C43.33 63.2069 46.6403 62.3793 49.5369 61L60.4334 71.8965C60.5713 72.0345 60.7093 72.0345 60.8472 72.1724L75.4679 77C75.6058 77 75.7438 77 75.7438 77C76.0196 77 76.2955 76.8621 76.4334 76.7241C76.7093 76.4483 76.8472 76.0345 76.7093 75.6207L71.8817 61C71.8817 60.8621 71.7438 60.7241 71.6058 60.5862L60.7093 49.6897C62.0886 46.7931 62.9162 43.4828 62.9162 40.0345C62.9162 36.5862 62.0886 33.2759 60.7093 30.3793L69.8127 21.2759L75.8817 15.2069ZM66.2265 5.41379C66.9162 4.72414 68.0196 4.72414 68.7093 5.41379L74.5024 11.2069C75.192 11.8966 75.192 13 74.5024 13.6897L69.3989 18.7931L61.1231 10.5172L66.2265 5.41379ZM59.6058 12.0345L63.0541 15.4828L55.6058 22.931C54.3644 21.8276 53.1231 20.8621 51.7438 20.0345L59.6058 12.0345ZM24.4334 22.931L16.9851 15.4828L20.4334 12.0345L28.4334 20.0345C26.9162 20.8621 25.6748 21.8276 24.4334 22.931ZM5.53687 11.3448L11.33 5.55172C11.6058 5.27586 12.0196 5 12.5714 5C13.1231 5 13.3989 5.13793 13.8127 5.55172L18.9162 10.6552L10.6403 18.931L5.53687 13.6897C4.84721 13 4.84721 11.8966 5.53687 11.3448ZM12.1576 20.3103L15.6058 16.8621L23.0541 24.3103C21.9507 25.5517 20.9851 26.7931 20.1576 28.1724L12.1576 20.3103ZM20.1576 51.4828C20.9851 52.8621 21.9507 54.2414 23.0541 55.3448L13.8127 64.7241L10.3645 61.2759L20.1576 51.4828ZM5.6748 74.2414L9.39894 63.2069L16.8472 70.6552L5.6748 74.2414ZM18.6403 69.5517L15.192 66.1034L24.4334 56.8621C25.6748 57.9655 26.9162 58.931 28.2955 59.7586L18.6403 69.5517ZM55.6058 56.8621L64.8472 66.1034L61.3989 69.5517L51.6058 59.7586C53.1231 58.931 54.3644 57.9655 55.6058 56.8621ZM63.33 70.5172L70.7782 63.069L74.5024 74.1034L63.33 70.5172ZM69.6748 61.2759L66.2265 64.7241L56.9851 55.4828C58.0886 54.2414 59.0541 53 59.8817 51.6207L69.6748 61.2759ZM40.0196 61C28.4334 61 19.0541 51.6207 19.0541 39.8965C19.0541 28.1724 28.4334 18.931 40.0196 18.931C51.6058 18.931 61.1231 28.3103 61.1231 40.0345C61.1231 51.7586 51.6058 61 40.0196 61ZM59.8817 28.3103C59.0541 26.931 58.0886 25.5517 56.9851 24.4483L64.4334 17L67.8817 20.4483L59.8817 28.3103Z" fill="black" fill-opacity="0.8"/>
<path d="M40.0197 22.3793C30.3645 22.3793 22.5024 30.2414 22.5024 40.0345C22.5024 49.8276 30.3645 57.5517 40.0197 57.5517C49.6748 57.5517 57.6748 49.6897 57.6748 40.0345C57.6748 30.3793 49.6748 22.3793 40.0197 22.3793ZM40.0197 55.4828C31.468 55.4828 24.5714 48.5862 24.5714 40.0345C24.5714 31.4828 31.468 24.4483 40.0197 24.4483C48.5714 24.4483 55.6059 31.3448 55.6059 40.0345C55.6059 48.7242 48.5714 55.4828 40.0197 55.4828Z" fill="black" fill-opacity="0.8"/>
<path d="M40.8472 38.2412C40.7093 38.2412 40.5714 38.1032 40.5714 37.9653V32.9998C40.5714 32.8619 40.5714 32.7239 40.7093 32.7239C40.8472 32.7239 40.9852 32.586 40.9852 32.7239C41.8128 33.1377 42.5024 33.6894 42.6403 34.655L45.261 34.3791C44.9852 33.2756 44.5714 32.4481 43.8817 31.8963C43.0541 31.2067 42.0886 30.7929 40.7093 30.655C40.5714 30.655 40.4334 30.517 40.4334 30.3791V29.4136H39.1921V30.3791C39.1921 30.517 39.0541 30.655 38.9162 30.655C37.5369 30.7929 36.4334 31.3446 35.6059 32.1722C34.7783 32.9998 34.3645 34.1032 34.3645 35.4825C34.3645 38.2412 35.8817 40.0343 39.0541 40.8619C39.1921 40.8619 39.33 40.9998 39.33 41.1377V46.517C39.33 46.655 39.33 46.7929 39.1921 46.7929C39.0541 46.7929 38.9162 46.9308 38.9162 46.7929C38.3645 46.517 37.9507 46.1032 37.5369 45.5515C37.1231 45.1377 36.9852 44.586 36.7093 43.8963L33.9507 44.1722C34.5024 47.2067 36.1576 48.7239 39.0541 49.1377C39.1921 49.1377 39.33 49.2756 39.33 49.4136V50.517H40.5714V49.2756C40.5714 49.1377 40.7093 48.9998 40.8472 48.9998C42.3645 48.7239 43.7438 48.1722 44.5714 47.2067C45.5369 46.2412 45.9507 44.9998 45.9507 43.4825C45.9507 42.1032 45.5369 40.9998 44.7093 40.1722C44.1576 39.4825 42.9162 38.7929 40.8472 38.2412ZM39.4679 37.4136C39.4679 37.5515 39.4679 37.6894 39.33 37.6894H39.1921H39.0541C37.8128 37.1377 37.1231 36.3101 37.1231 35.0687C37.1231 34.517 37.261 33.9653 37.6748 33.5515C38.0886 33.1377 38.5024 32.7239 39.0541 32.586C39.1921 32.586 39.33 32.586 39.33 32.586C39.4679 32.586 39.4679 32.7239 39.4679 32.8618V37.4136ZM42.7783 45.9653C42.3645 46.517 41.6748 46.7929 40.9852 46.9308C40.8472 46.9308 40.8472 46.9308 40.7093 46.7929C40.5714 46.7929 40.5714 46.655 40.5714 46.517V41.5515C40.5714 41.4136 40.5714 41.2756 40.7093 41.2756C40.8472 41.2756 40.8472 41.1377 40.9852 41.2756C42.6403 41.6894 43.4679 42.655 43.4679 44.0343C43.6059 44.7239 43.33 45.4136 42.7783 45.9653Z" fill="black" fill-opacity="0.8"/>
</svg>
