<svg width="40" height="40" viewBox="0 0 40 40" fill="none" xmlns="http://www.w3.org/2000/svg">
<g clip-path="url(#clip0)">
<path d="M36.41 25.9996H26.0003V21.9994H23.3336V17.838C23.3336 16.4126 23.9482 15.0739 24.9776 14.2552C26.899 12.7291 28.0004 10.4484 28.0004 7.99898C28.0004 5.72157 27.025 3.5455 25.325 2.02878C23.6262 0.512733 21.3415 -0.209291 19.0621 0.052718C15.4933 0.458732 12.5545 3.33416 12.0745 6.88895C11.6945 9.70504 12.7792 12.4445 14.9766 14.2179C16.0346 15.0719 16.6667 16.4713 16.6667 17.96V21.9994H13.9999V25.9996H3.59023C2.71354 25.9996 1.99951 26.7129 1.99951 27.5903V35.0765C1.99951 35.9532 2.71287 36.6673 3.59023 36.6673H4.06025C4.37892 38.556 6.02165 40.0007 8.00038 40.0007H32.0012C33.9792 40.0007 35.622 38.556 35.9413 36.6673H36.4113C37.288 36.6673 38.002 35.9539 38.002 35.0765V27.5903C38.0007 26.7136 37.2873 25.9996 36.41 25.9996ZM15.814 13.1805C13.9826 11.7024 13.0785 9.41703 13.3966 7.06762C13.7966 4.10885 16.2433 1.71677 19.2141 1.37743C21.1468 1.16009 23.0015 1.74211 24.4376 3.02415C25.855 4.28819 26.6677 6.10159 26.6677 7.99965C26.6677 10.0404 25.7496 11.9398 24.1489 13.2118C22.7835 14.2972 22.0008 15.9832 22.0008 17.838V21.9994H18.0007V17.9606C18 16.0446 17.2033 14.3019 15.814 13.1805ZM15.3333 23.3328H16.6667H23.3336H24.6669V25.9996H15.3333V23.3328ZM32.0005 38.6667H7.99971C6.75967 38.6667 5.71364 37.816 5.41763 36.6666H34.5826C34.2866 37.816 33.2412 38.6667 32.0005 38.6667ZM36.6673 35.0765C36.6673 35.2186 36.552 35.3339 36.41 35.3339H36.0006H3.99958H3.59023C3.44823 35.3339 3.33289 35.2186 3.33289 35.0765V27.5903C3.33289 27.4483 3.44823 27.333 3.59023 27.333H13.9999H26.0003H36.41C36.552 27.333 36.6673 27.4483 36.6673 27.5903V35.0765Z" fill="#DEC377"/>
</g>
<defs>
<clipPath id="clip0">
<rect width="40" height="40" fill="white"/>
</clipPath>
</defs>
</svg>
