<svg width="80" height="80" viewBox="0 0 80 80" fill="none" xmlns="http://www.w3.org/2000/svg">
<path d="M63.3847 45.2921H62.7693C63.7539 43.569 64.3693 41.4767 64.3693 40.1229C64.3693 36.9229 61.6616 34.2152 58.4616 34.2152C55.2616 34.2152 52.5539 36.9229 52.5539 40.1229C52.5539 41.4767 53.1693 43.569 54.1539 45.2921H53.5385C52.3078 45.2921 51.2001 45.6614 50.2155 46.2767C49.3539 44.1844 47.2616 42.8306 44.9231 42.8306H44.3078C45.2924 41.1075 45.9078 39.0152 45.9078 37.6614C45.9078 34.4614 43.2001 31.7537 40.0001 31.7537C36.8001 31.7537 34.0924 34.4614 34.0924 37.6614C34.0924 39.0152 34.7078 41.1075 35.6924 42.8306H35.077C32.7385 42.8306 30.6462 44.3075 29.7847 46.2767C28.8001 45.6614 27.6924 45.2921 26.4616 45.2921H25.8462C26.8308 43.569 27.4462 41.4767 27.4462 40.1229C27.4462 36.9229 24.7385 34.2152 21.5385 34.2152C18.3385 34.2152 15.6308 36.9229 15.6308 40.1229C15.6308 41.4767 16.2462 43.569 17.2308 45.2921H16.6155C13.4155 45.2921 10.7078 47.8767 10.7078 51.1998V64.7383C10.7078 65.2306 11.077 65.7229 11.6924 65.7229H15.6308V78.3998C15.6308 78.8921 16.0001 79.3844 16.6155 79.3844H26.5847C27.077 79.3844 27.5693 79.0152 27.5693 78.3998V53.7844C27.5693 53.2921 27.2001 52.7998 26.5847 52.7998C25.9693 52.7998 25.6001 53.169 25.6001 53.7844V77.5383H22.4001V62.1537C22.4001 61.6614 22.0308 61.169 21.4155 61.169C20.8001 61.169 20.4308 61.5383 20.4308 62.1537V77.2921H17.2308V53.5383C17.2308 53.046 16.8616 52.5537 16.2462 52.5537C15.6308 52.5537 15.2616 52.9229 15.2616 53.5383V63.7537H12.3078V51.0767C12.3078 48.8614 14.1539 47.0152 16.3693 47.0152H18.3385C19.2001 47.8767 20.1847 48.369 21.2924 48.369C22.4001 48.369 23.3847 47.8767 24.2462 47.0152H26.2155C27.3231 47.0152 28.3078 47.5075 29.0462 48.246C29.0462 48.369 29.0462 48.4921 29.0462 48.6152V60.9229C29.0462 61.4152 29.4155 61.9075 30.0308 61.9075H33.9693V77.046C33.9693 77.5383 34.3385 78.0306 34.9539 78.0306H44.9231C45.4155 78.0306 45.9078 77.6614 45.9078 77.046V61.9075H49.8462C50.3385 61.9075 50.8308 61.5383 50.8308 60.9229V48.6152C50.8308 48.4921 50.8308 48.369 50.8308 48.246C51.5693 47.5075 52.5539 47.0152 53.6616 47.0152H55.6308C56.4924 47.8767 57.477 48.369 58.5847 48.369C59.6924 48.369 60.677 47.8767 61.5385 47.0152H63.5078C65.7231 47.0152 67.5693 48.8614 67.5693 51.0767V63.7537H64.6155V53.5383C64.6155 53.046 64.2462 52.5537 63.6308 52.5537C63.0155 52.5537 62.6462 52.9229 62.6462 53.5383V77.2921H59.4462V62.1537C59.4462 61.6614 59.077 61.169 58.4616 61.169C57.8462 61.169 57.477 61.5383 57.477 62.1537V77.2921H54.277V53.5383C54.277 53.046 53.9078 52.5537 53.2924 52.5537C52.677 52.5537 52.3078 52.9229 52.3078 53.5383V78.1537C52.3078 78.646 52.677 79.1383 53.2924 79.1383H63.2616C63.7539 79.1383 64.2462 78.769 64.2462 78.1537V65.5998H68.1847C68.677 65.5998 69.1693 65.2306 69.1693 64.6152V51.0767C69.2924 47.8767 66.5847 45.2921 63.3847 45.2921ZM21.5385 36.0614C23.7539 36.0614 25.6001 37.9075 25.6001 40.1229C25.6001 41.7229 24.6155 44.1844 23.3847 45.5383C23.0155 45.9075 22.6462 46.2767 22.1539 46.5229C22.1539 46.5229 22.1539 46.5229 22.0308 46.5229C21.9078 46.5229 21.6616 46.646 21.5385 46.646C21.4155 46.646 21.1693 46.646 21.0462 46.5229C21.0462 46.5229 21.0462 46.5229 20.9231 46.5229C20.4308 46.2767 19.9385 45.9075 19.6924 45.5383C18.4616 44.1844 17.477 41.7229 17.477 40.1229C17.477 37.7844 19.3231 36.0614 21.5385 36.0614ZM40.0001 33.5998C42.2155 33.5998 44.0616 35.446 44.0616 37.6614C44.0616 39.2614 43.077 41.7229 41.8462 43.0767C41.477 43.446 41.1078 43.8152 40.6155 44.0614C40.6155 44.0614 40.6155 44.0614 40.4924 44.0614C40.3693 44.0614 40.1231 44.1844 40.0001 44.1844C39.877 44.1844 39.6308 44.1844 39.5078 44.0614C39.5078 44.0614 39.5078 44.0614 39.3847 44.0614C38.8924 43.8152 38.4001 43.446 38.1539 43.0767C36.9231 41.7229 35.9385 39.2614 35.9385 37.6614C35.9385 35.3229 37.7847 33.5998 40.0001 33.5998ZM48.9847 60.0614H46.0308V53.5383C46.0308 53.046 45.6616 52.5537 45.0462 52.5537C44.4308 52.5537 44.0616 52.9229 44.0616 53.5383V76.0614H40.8616V59.6921C40.8616 59.1998 40.4924 58.7075 39.877 58.7075C39.2616 58.7075 38.8924 59.0767 38.8924 59.6921V76.0614H35.6924V53.5383C35.6924 53.046 35.3231 52.5537 34.7078 52.5537C34.0924 52.5537 33.7232 52.9229 33.7232 53.5383V60.0614H30.7693V48.6152C30.7693 46.3998 32.6155 44.5537 34.8308 44.5537H36.8001C37.6616 45.4152 38.6462 45.9075 39.7539 45.9075C40.8616 45.9075 41.8462 45.4152 42.7078 44.5537H44.677C46.8924 44.5537 48.7385 46.3998 48.7385 48.6152V60.0614H48.9847ZM58.4616 36.0614C60.677 36.0614 62.5231 37.9075 62.5231 40.1229C62.5231 41.7229 61.5385 44.1844 60.3078 45.5383C59.9385 45.9075 59.5693 46.2767 59.077 46.5229C59.077 46.5229 59.077 46.5229 58.9539 46.5229C58.8308 46.5229 58.5847 46.646 58.4616 46.646C58.3385 46.646 58.0924 46.646 57.9693 46.5229C57.9693 46.5229 57.9693 46.5229 57.8462 46.5229C57.3539 46.2767 56.8616 45.9075 56.6155 45.5383C55.3847 44.1844 54.4001 41.7229 54.4001 40.1229C54.4001 37.7844 56.2462 36.0614 58.4616 36.0614Z" fill="black" fill-opacity="0.8"/>
<path d="M72.3692 45.9075C73.4769 42.4613 74.0923 38.769 74.0923 35.0767C74.0923 16.2459 58.8308 0.861328 39.8769 0.861328C20.9231 0.861328 5.90771 16.2459 5.90771 35.0767C5.90771 38.769 6.5231 42.3382 7.63079 45.9075C7.75387 46.2767 8.1231 46.5229 8.49233 46.5229C8.61541 46.5229 8.73848 46.5229 8.73848 46.5229C9.23079 46.3998 9.47695 45.7844 9.35387 45.4152C8.24618 42.0921 7.75387 38.6459 7.75387 35.1998C7.75387 29.7844 9.10771 24.6152 11.4462 20.0613H23.2616C22.4 23.1382 21.9077 26.5844 21.5385 30.1536C21.5385 30.6459 21.9077 31.1382 22.4 31.1382C22.8923 31.1382 23.3846 30.769 23.3846 30.2767C23.6308 26.5844 24.2462 23.1383 25.2308 19.9383H39.1385V27.6921C39.1385 28.1844 39.5077 28.6767 40.1231 28.6767C40.7385 28.6767 41.1077 28.3075 41.1077 27.6921V19.9383H55.0154C55.8769 23.1383 56.4923 26.5844 56.8616 30.2767C56.8616 30.769 57.3539 31.1382 57.7231 31.1382C57.7231 31.1382 57.7231 31.1382 57.8462 31.1382C58.3385 31.1382 58.7077 30.6459 58.7077 30.1536C58.4616 26.5844 57.8462 23.1382 56.9846 20.0613H68.8C71.1385 24.6152 72.4923 29.6613 72.4923 35.1998C72.4923 38.6459 71.8769 42.0921 70.8923 45.4152C70.7692 45.9075 71.0154 46.3998 71.5077 46.5229C71.7539 46.6459 72.2462 46.3998 72.3692 45.9075ZM12.5539 18.2152C16.9846 10.9536 24.2462 5.66133 32.7385 3.6921C28.9231 6.64594 25.8462 11.6921 23.8769 18.2152H12.5539ZM25.7231 18.2152C28.5539 9.47671 33.4769 3.56902 39.0154 2.95364V18.2152H25.7231ZM40.9846 18.2152V2.83056C46.5231 3.44594 51.4462 9.35364 54.2769 18.0921H40.9846V18.2152ZM56.2462 18.2152C54.2769 11.6921 51.0769 6.64594 47.3846 3.6921C55.8769 5.66133 63.1385 10.9536 67.5693 18.2152H56.2462Z" fill="black" fill-opacity="0.8"/>
</svg>
