<svg width="40" height="40" viewBox="0 0 40 40" fill="none" xmlns="http://www.w3.org/2000/svg">
<path d="M18.291 20.9444C20.2205 21.5119 21.8924 22.6993 23.0711 24.2752C24.2235 25.8118 24.9089 27.7194 24.9089 29.7755V38.0347V38.9776H23.966H1.94291H1V38.0347V29.7755C1 27.7238 1.68536 25.8161 2.8378 24.2752C4.01644 22.7037 5.68836 21.5119 7.61783 20.9444L8.14603 20.7917L8.54328 21.1758C9.12387 21.7389 9.81359 22.1929 10.5775 22.5029C11.3109 22.7997 12.1141 22.9656 12.9566 22.9656C13.8035 22.9656 14.6067 22.7997 15.3357 22.5029C16.0997 22.1929 16.7894 21.7389 17.37 21.1758L17.7628 20.7917L18.291 20.9444ZM12.9566 8.77393C14.7333 8.77393 16.3485 9.49857 17.514 10.6641L17.5184 10.6685C18.6839 11.834 19.4086 13.4492 19.4086 15.2259C19.4086 17.0069 18.6839 18.6221 17.5184 19.7876C16.3528 20.9532 14.7377 21.6778 12.9566 21.6778C11.1799 21.6778 9.56913 20.9575 8.39922 19.7876L8.39486 19.7833C7.22932 18.6134 6.50467 17.0026 6.50467 15.2259C6.50467 13.4448 7.22932 11.8297 8.39486 10.6641C9.5604 9.49857 11.1756 8.77393 12.9566 8.77393ZM16.187 11.9955C15.3619 11.1749 14.2182 10.6641 12.9566 10.6641C11.695 10.6641 10.5557 11.1749 9.73065 11.9999C8.9056 12.8249 8.39486 13.9643 8.39486 15.2259C8.39486 16.4875 8.9056 17.6312 9.72628 18.4518L9.73065 18.4562C10.5513 19.2769 11.695 19.7876 12.9566 19.7876C14.2182 19.7876 15.3575 19.2769 16.1826 18.4518C17.0076 17.6268 17.5184 16.4875 17.5184 15.2259C17.5184 13.9643 17.0076 12.8206 16.187 11.9955ZM18.3172 37.0918L18.2954 33.3201C18.2954 32.8007 18.7145 32.3772 19.234 32.3772C19.7534 32.3772 20.1769 32.7963 20.1769 33.3158L20.1987 37.0918H23.0274V29.7755C23.0274 28.1385 22.4861 26.6237 21.5694 25.4058C20.7313 24.2883 19.5788 23.4152 18.2518 22.9176C17.597 23.472 16.8505 23.926 16.0473 24.249C15.0913 24.6375 14.0479 24.8514 12.961 24.8514C11.8697 24.8514 10.8263 24.6375 9.8747 24.249C9.07148 23.9216 8.32501 23.4676 7.67022 22.9176C6.34316 23.4152 5.19071 24.2883 4.35257 25.4058C3.44022 26.6237 2.89455 28.1385 2.89455 29.7755V37.0918H5.73638L5.71455 33.3201C5.71455 32.8007 6.13362 32.3772 6.65309 32.3772C7.17257 32.3772 7.596 32.7963 7.596 33.3158L7.61783 37.0918H18.3216H18.3172Z" fill="black" fill-opacity="0.8"/>
<path fill-rule="evenodd" clip-rule="evenodd" d="M35.6292 16.8817V33.87H24.9088V32.0723H33.8315V15.084V15.039V7.08416H31.9888V13.2413L23.7643 5.01679L17.8058 10.9753C17.7133 10.8699 17.6174 10.7676 17.5183 10.6685L17.5139 10.6641C17.1933 10.3435 16.8387 10.0563 16.456 9.80828L23.7643 2.5L30.1911 8.88187V5.28645H35.6292V14.3649L38.9999 17.7356L37.7415 18.994L35.6292 16.8817ZM11.8994 21.5914V22.8773C12.243 22.9353 12.5962 22.9656 12.9565 22.9656C13.2075 22.9656 13.4546 22.951 13.6971 22.9228V21.6357C13.4541 21.6635 13.2069 21.6778 12.9565 21.6778C12.5966 21.6778 12.2435 21.6483 11.8994 21.5914Z" fill="black" fill-opacity="0.8"/>
</svg>
