<svg width="40" height="40" viewBox="0 0 40 40" fill="none" xmlns="http://www.w3.org/2000/svg">
<path d="M14.9732 15.5H12.6399V17.8333H14.9732V15.5Z" fill="black" fill-opacity="0.8"/>
<path d="M18.4732 15.5H16.1399V17.8333H18.4732V15.5Z" fill="black" fill-opacity="0.8"/>
<path d="M21.9732 15.5H19.6399V17.8333H21.9732V15.5Z" fill="black" fill-opacity="0.8"/>
<path d="M25.4732 15.5H23.1399V17.8333H25.4732V15.5Z" fill="black" fill-opacity="0.8"/>
<path d="M14.9732 20.1667H12.6399V22.5H14.9732V20.1667Z" fill="black" fill-opacity="0.8"/>
<path d="M18.4732 20.1667H16.1399V22.5H18.4732V20.1667Z" fill="black" fill-opacity="0.8"/>
<path d="M21.9732 20.1667H19.6399V22.5H21.9732V20.1667Z" fill="black" fill-opacity="0.8"/>
<path d="M25.4732 20.1667H23.1399V22.5H25.4732V20.1667Z" fill="black" fill-opacity="0.8"/>
<path d="M14.9732 24.8333H12.6399V27.1667H14.9732V24.8333Z" fill="black" fill-opacity="0.8"/>
<path d="M18.4732 24.8333H16.1399V27.1667H18.4732V24.8333Z" fill="black" fill-opacity="0.8"/>
<path d="M21.9732 24.8333H19.6399V27.1667H21.9732V24.8333Z" fill="black" fill-opacity="0.8"/>
<path d="M25.4732 24.8333H23.1399V27.1667H25.4732V24.8333Z" fill="black" fill-opacity="0.8"/>
<path d="M14.9732 29.5H12.6399V31.8333H14.9732V29.5Z" fill="black" fill-opacity="0.8"/>
<path d="M18.4732 29.5H16.1399V31.8333H18.4732V29.5Z" fill="black" fill-opacity="0.8"/>
<path d="M21.9732 29.5H19.6399V31.8333H21.9732V29.5Z" fill="black" fill-opacity="0.8"/>
<path d="M25.4732 29.5H23.1399V31.8333H25.4732V29.5Z" fill="black" fill-opacity="0.8"/>
<path fill-rule="evenodd" clip-rule="evenodd" d="M28.3899 16.0833V13.1667C28.3899 12.5227 27.8672 12 27.2232 12H25.4732H12.6399H10.8899C10.2459 12 9.72323 12.5227 9.72323 13.1667V16.0833H1.55656C0.912559 16.0833 0.389893 16.606 0.389893 17.25V38.8333C0.389893 39.4773 0.912559 40 1.55656 40H10.3066H27.2232C27.8672 40 28.3899 39.4773 28.3899 38.8333V16.0833ZM1.55656 38.8333H9.72323V17.25H1.55656V38.8333ZM17.8899 38.8333H20.2232V35.3333H17.8899V38.8333ZM21.3899 38.8333H27.2232V13.1667H10.8899V38.8333H16.7232V34.1667H21.3899V38.8333Z" fill="black" fill-opacity="0.8"/>
<path d="M5.05656 34.1667H2.72323V36.5H5.05656V34.1667Z" fill="black" fill-opacity="0.8"/>
<path d="M8.55656 34.1667H6.22323V36.5H8.55656V34.1667Z" fill="black" fill-opacity="0.8"/>
<path d="M8.55656 29.5H6.22323V31.8333H8.55656V29.5Z" fill="black" fill-opacity="0.8"/>
<path d="M5.05656 29.5H2.72323V31.8333H5.05656V29.5Z" fill="black" fill-opacity="0.8"/>
<path d="M5.05656 24.8333H2.72323V27.1667H5.05656V24.8333Z" fill="black" fill-opacity="0.8"/>
<path d="M8.55656 24.8333H6.22323V27.1667H8.55656V24.8333Z" fill="black" fill-opacity="0.8"/>
<path d="M5.05656 20.1667H2.72323V22.5H5.05656V20.1667Z" fill="black" fill-opacity="0.8"/>
<path d="M8.55656 20.1667H6.22323V22.5H8.55656V20.1667Z" fill="black" fill-opacity="0.8"/>
<path fill-rule="evenodd" clip-rule="evenodd" d="M23.869 0.350098C20.5814 0.350098 17.5195 1.33352 14.9701 3.02515C14.6333 3.24893 14.3056 3.48549 13.9877 3.73202C13.2327 4.31593 12.5331 4.96675 11.8948 5.67392C11.873 5.69495 11.8525 5.71773 11.8335 5.7422C9.36931 8.50321 7.84029 12.1154 7.74463 16.0833H9.7232V15.8291H9.05385C9.19858 12.4729 10.4582 9.40819 12.4733 6.99056C13.4302 7.56674 14.5222 8.06681 15.7161 8.47722C15.3533 9.57782 15.0639 10.7589 14.8581 12H16.1768C16.3709 10.8906 16.6348 9.83893 16.9584 8.86128C18.8587 9.38635 20.9793 9.70174 23.219 9.75308V12H24.519V9.75308C26.7587 9.70175 28.8795 9.38633 30.7798 8.86129C31.4576 10.9091 31.8736 13.2816 31.9343 15.8291H28.3899V16.0833V17.1291H31.9343C31.8736 19.6766 31.4576 22.049 30.7799 24.0968C30.0165 23.8854 29.2176 23.7083 28.3899 23.5687V24.8881C29.0595 25.0073 29.7069 25.1524 30.3281 25.3209C30.068 25.9554 29.7812 26.5506 29.4709 27.1009C29.1327 27.7009 28.7708 28.2413 28.3899 28.7192V31.9669C31.3155 31.115 33.8955 29.4573 35.8758 27.2509L35.8805 27.2456C36.5512 26.4984 37.1532 25.6882 37.6754 24.8237C39.1495 22.3878 39.9982 19.5324 39.9982 16.4793C39.9982 12.3576 38.4522 8.59374 35.9058 5.74354C35.886 5.71785 35.8645 5.69403 35.8416 5.67211C35.4646 5.25519 35.065 4.85679 34.6452 4.47918C34.0875 3.97785 33.4921 3.51294 32.8669 3.09179C32.1605 2.61724 31.4139 2.19389 30.6314 1.833C29.812 1.45271 28.9561 1.14224 28.0713 0.903668C26.7315 0.543221 25.3227 0.350098 23.869 0.350098ZM30.6034 27.7393C30.9592 27.1082 31.2846 26.427 31.5762 25.7027C32.6099 26.0565 33.5485 26.4773 34.3712 26.9503C32.7282 28.5985 30.7006 29.8613 28.4346 30.5933C29.2508 29.8159 29.9799 28.8452 30.6034 27.7393ZM32.022 24.4813C33.2166 24.8919 34.3092 25.3923 35.2665 25.9689C35.7429 25.3978 36.1767 24.7905 36.5627 24.1515C36.6045 24.0824 36.6458 24.0129 36.6865 23.9431L36.7122 23.8989C37.8732 21.8919 38.5782 19.5891 38.6842 17.1291H33.2346C33.174 19.7906 32.7427 22.2947 32.022 24.4813ZM34.3694 6.00927C34.1771 5.81652 33.9793 5.62868 33.7762 5.44602C33.2631 4.98486 32.7162 4.55767 32.1414 4.17049C31.4898 3.73284 30.8034 3.34389 30.0864 3.01328L30.085 3.01259C29.5525 2.76544 29.0025 2.55008 28.4371 2.36739C29.2523 3.14436 29.9806 4.11419 30.6034 5.2189C30.9592 5.85011 31.2847 6.53141 31.5763 7.25584C32.6092 6.90228 33.5471 6.48187 34.3694 6.00927ZM30.328 7.63715C30.068 7.0027 29.7811 6.40759 29.4709 5.85732C28.1058 3.43577 26.3557 1.98376 24.519 1.70539V8.45273C26.6046 8.40263 28.5712 8.11275 30.328 7.63715ZM23.219 8.45272V1.7054C21.3824 1.98381 19.6324 3.43582 18.2673 5.85732C17.957 6.40758 17.6702 7.00268 17.4102 7.63711C19.1669 8.11268 21.1336 8.4026 23.219 8.45272ZM16.1619 7.25581C16.4535 6.5314 16.779 5.8501 17.1348 5.2189C17.7581 4.11335 18.487 3.14288 19.3029 2.3656C18.1054 2.75255 16.9748 3.28774 15.9331 3.94973C15.8513 4.00175 15.77 4.05456 15.6892 4.10813C15.4473 4.26892 15.2097 4.43735 14.9766 4.61253C14.9121 4.66104 14.8479 4.71006 14.784 4.75957C14.2859 5.14483 13.8131 5.56255 13.3682 6.00889C14.1906 6.48163 15.1287 6.90216 16.1619 7.25581ZM32.0221 8.47726C33.2162 8.06682 34.3082 7.56673 35.2652 6.99047C37.2806 9.40599 38.5396 12.4729 38.6842 15.8291H33.2346C33.174 13.1677 32.7428 10.6637 32.0221 8.47726Z" fill="black" fill-opacity="0.8"/>
</svg>
