<svg width="40" height="40" viewBox="0 0 40 40" fill="none" xmlns="http://www.w3.org/2000/svg">
<g clip-path="url(#clip0)">
<mask id="path-1-outside-1" maskUnits="userSpaceOnUse" x="2.27734" y="-1" width="33" height="40" fill="black">
<rect fill="white" x="2.27734" y="-1" width="33" height="40"/>
<path d="M18.1133 7.14403L18.2329 7.13692C18.5189 7.12269 18.7793 7.11557 19.0141 7.11557C23.2764 7.11557 27.1373 8.84466 29.9309 11.6382L29.9323 11.6397L29.9337 11.6382C32.7273 14.4318 34.4564 18.2941 34.4564 22.5578C34.4564 26.82 32.7273 30.6809 29.9337 33.4745L29.9309 33.4773C27.1373 36.2709 23.2764 38 19.0141 38C14.7505 38 10.8882 36.2709 8.09459 33.4773L8.06043 33.4403C5.28678 30.6496 3.57193 26.8015 3.57193 22.5564C3.57193 20.9952 3.80674 19.4839 4.24222 18.0536C4.65492 16.7002 5.24693 15.4266 5.99122 14.2596C4.89685 12.3982 3.93767 10.588 3.49508 9.20186L3.48227 9.15205L3.48085 9.14351L3.47943 9.13355C3.41254 8.85319 3.36273 8.57284 3.33 8.29818C3.29584 8.00502 3.27734 7.71328 3.27734 7.42154C3.27734 5.3751 4.10844 3.52078 5.45186 2.17594L5.45329 2.17452L5.45471 2.1731C6.79813 0.831099 8.65245 0 10.6989 0C12.7453 0 14.5996 0.831099 15.9445 2.17452L15.9459 2.17594L15.9473 2.17736C17.2296 3.46101 18.0436 5.2086 18.1147 7.14403H18.1133ZM10.6975 3.9833C11.5442 3.9833 12.3141 4.32769 12.8706 4.88413L12.8734 4.88697C13.4298 5.44341 13.7742 6.21332 13.7742 7.06007C13.7742 7.90825 13.4298 8.67957 12.8734 9.23601L12.8378 9.26874C12.2842 9.80668 11.5286 10.1368 10.6975 10.1368C9.84929 10.1368 9.07796 9.79245 8.52152 9.23601C7.96508 8.67957 7.62069 7.90825 7.62069 7.06007C7.62069 6.21189 7.96651 5.44199 8.52294 4.88555L8.52152 4.88413C9.07796 4.32769 9.84929 3.9833 10.6975 3.9833ZM12.0338 5.72234C11.6951 5.38222 11.2212 5.1716 10.6975 5.1716C10.1766 5.1716 9.70413 5.38364 9.36116 5.72519L9.35974 5.72377L9.35831 5.72519C9.01819 6.06389 8.80757 6.53779 8.80757 7.06149C8.80757 7.58235 9.01961 8.05483 9.36116 8.3978C9.70271 8.73935 10.1752 8.95139 10.6975 8.95139C11.2069 8.95139 11.6694 8.75215 12.0053 8.42768L12.0323 8.3978C12.3739 8.05625 12.5859 7.58378 12.5859 7.06149C12.5859 6.53779 12.3753 6.06531 12.0352 5.72519L12.0323 5.72234H12.0338ZM7.18522 13.9522L7.18949 13.9593L7.19233 13.9636L7.19945 13.9764L7.20656 13.9878L7.21226 14.0006C7.74023 14.8872 8.29525 15.7823 8.83461 16.6447C8.85453 16.6718 8.87303 16.7002 8.88726 16.7301L9.4067 17.557C9.86779 18.2913 10.3061 18.9886 10.696 19.6276C11.086 18.99 11.5229 18.2913 11.9854 17.557L12.502 16.733C12.5176 16.7017 12.5361 16.6732 12.5561 16.6462C14.2026 14.0163 15.9957 11.069 16.693 9.07093L16.7101 9.0197L16.7115 9.01685L16.7158 9.00404L16.7642 8.85889C16.814 8.64115 16.8567 8.41061 16.8837 8.16868V8.16014C16.9122 7.92248 16.9264 7.67628 16.9264 7.42154C16.9264 5.69815 16.2291 4.13984 15.1034 3.01416L15.1006 3.01131C13.9749 1.88563 12.4166 1.1883 10.6932 1.1883C8.9698 1.1883 7.41149 1.88563 6.28581 3.01131L6.28296 3.01416C5.15728 4.13984 4.45995 5.69815 4.45995 7.42154C4.45995 7.67628 4.47418 7.92248 4.50265 8.16014V8.16156C4.53111 8.40634 4.57238 8.63973 4.62361 8.85889C5.05908 10.2151 6.05384 12.058 7.18095 13.9522H7.18522ZM6.68001 15.4081C6.49074 15.734 6.31427 16.0684 6.15061 16.4085H7.2948L6.68001 15.4081ZM8.03624 17.5968H5.64683C5.54863 17.8601 5.45898 18.1276 5.37644 18.3966C4.97797 19.7059 4.76308 21.1034 4.76308 22.5549C4.76308 24.2983 5.07616 25.9704 5.64968 27.5145H10.7273C10.0998 25.3727 9.88771 23.1199 10.0898 20.9056C9.6344 20.1371 9.04238 19.1964 8.40767 18.1874L8.03624 17.5954V17.5968ZM11.2724 20.9667C11.066 23.164 11.2966 25.4026 11.964 27.5145H18.4221V17.5968H13.3601L12.9901 18.1874C12.3383 19.2249 11.7335 20.1869 11.2724 20.9667ZM14.1016 16.4071H18.4207V9.1734C18.1902 9.31713 17.9696 9.46371 17.7575 9.61171C17.0645 11.4945 15.5759 14.0262 14.1016 16.4057V16.4071ZM20.5781 8.38641C22.9092 9.92053 24.6938 11.9357 25.9305 14.207C26.3176 14.9171 26.6492 15.6528 26.9295 16.4071H31.8791C31.1761 14.9399 30.2311 13.6121 29.0955 12.475L29.0969 12.4736C26.864 10.2422 23.8912 8.74788 20.5781 8.38641ZM27.3209 17.5954C27.782 19.1879 28.0153 20.8429 28.0168 22.498C28.0196 24.1901 27.7805 25.885 27.3052 27.5145H32.3843C32.9578 25.9704 33.2709 24.2983 33.2709 22.5549C33.2709 20.8116 32.9578 19.1395 32.3843 17.5968H27.3223L27.3209 17.5954ZM26.911 28.7014C26.6435 29.4215 26.3261 30.1245 25.9604 30.8047C24.7208 33.1102 22.9206 35.1623 20.5625 36.7249C23.8826 36.3677 26.8598 34.8706 29.0969 32.6349C30.234 31.4978 31.1789 30.1686 31.8805 28.7014H26.911ZM19.6104 35.9308C21.9443 34.4593 23.7147 32.4797 24.9172 30.2426C25.1862 29.7417 25.4281 29.2265 25.6402 28.7014H19.6104V35.9308ZM26.0685 27.5131C26.5823 25.8893 26.837 24.1929 26.8356 22.4966C26.8342 20.8387 26.5837 19.1793 26.087 17.594H19.6104V27.5116H26.0685V27.5131ZM25.6615 16.4071C25.4367 15.8492 25.1805 15.3027 24.8916 14.7719C23.6919 12.5647 21.9301 10.6179 19.6104 9.17197V16.4071H25.6615ZM12.3924 28.7014C12.5689 29.1383 12.7652 29.5666 12.9816 29.9879C14.1855 32.3303 16 34.4038 18.4221 35.9322V28.7028H12.3924V28.7014ZM17.4686 36.7249C15.0166 35.1011 13.1694 32.9479 11.927 30.5301V30.5286C11.6225 29.9338 11.3535 29.3247 11.1216 28.7014H6.15203C6.84794 30.1558 7.78292 31.475 8.90576 32.605L8.93707 32.6334C11.1728 34.8691 14.1499 36.3663 17.4686 36.7249Z"/>
</mask>
<path d="M18.1133 7.14403L18.2329 7.13692C18.5189 7.12269 18.7793 7.11557 19.0141 7.11557C23.2764 7.11557 27.1373 8.84466 29.9309 11.6382L29.9323 11.6397L29.9337 11.6382C32.7273 14.4318 34.4564 18.2941 34.4564 22.5578C34.4564 26.82 32.7273 30.6809 29.9337 33.4745L29.9309 33.4773C27.1373 36.2709 23.2764 38 19.0141 38C14.7505 38 10.8882 36.2709 8.09459 33.4773L8.06043 33.4403C5.28678 30.6496 3.57193 26.8015 3.57193 22.5564C3.57193 20.9952 3.80674 19.4839 4.24222 18.0536C4.65492 16.7002 5.24693 15.4266 5.99122 14.2596C4.89685 12.3982 3.93767 10.588 3.49508 9.20186L3.48227 9.15205L3.48085 9.14351L3.47943 9.13355C3.41254 8.85319 3.36273 8.57284 3.33 8.29818C3.29584 8.00502 3.27734 7.71328 3.27734 7.42154C3.27734 5.3751 4.10844 3.52078 5.45186 2.17594L5.45329 2.17452L5.45471 2.1731C6.79813 0.831099 8.65245 0 10.6989 0C12.7453 0 14.5996 0.831099 15.9445 2.17452L15.9459 2.17594L15.9473 2.17736C17.2296 3.46101 18.0436 5.2086 18.1147 7.14403H18.1133ZM10.6975 3.9833C11.5442 3.9833 12.3141 4.32769 12.8706 4.88413L12.8734 4.88697C13.4298 5.44341 13.7742 6.21332 13.7742 7.06007C13.7742 7.90825 13.4298 8.67957 12.8734 9.23601L12.8378 9.26874C12.2842 9.80668 11.5286 10.1368 10.6975 10.1368C9.84929 10.1368 9.07796 9.79245 8.52152 9.23601C7.96508 8.67957 7.62069 7.90825 7.62069 7.06007C7.62069 6.21189 7.96651 5.44199 8.52294 4.88555L8.52152 4.88413C9.07796 4.32769 9.84929 3.9833 10.6975 3.9833ZM12.0338 5.72234C11.6951 5.38222 11.2212 5.1716 10.6975 5.1716C10.1766 5.1716 9.70413 5.38364 9.36116 5.72519L9.35974 5.72377L9.35831 5.72519C9.01819 6.06389 8.80757 6.53779 8.80757 7.06149C8.80757 7.58235 9.01961 8.05483 9.36116 8.3978C9.70271 8.73935 10.1752 8.95139 10.6975 8.95139C11.2069 8.95139 11.6694 8.75215 12.0053 8.42768L12.0323 8.3978C12.3739 8.05625 12.5859 7.58378 12.5859 7.06149C12.5859 6.53779 12.3753 6.06531 12.0352 5.72519L12.0323 5.72234H12.0338ZM7.18522 13.9522L7.18949 13.9593L7.19233 13.9636L7.19945 13.9764L7.20656 13.9878L7.21226 14.0006C7.74023 14.8872 8.29525 15.7823 8.83461 16.6447C8.85453 16.6718 8.87303 16.7002 8.88726 16.7301L9.4067 17.557C9.86779 18.2913 10.3061 18.9886 10.696 19.6276C11.086 18.99 11.5229 18.2913 11.9854 17.557L12.502 16.733C12.5176 16.7017 12.5361 16.6732 12.5561 16.6462C14.2026 14.0163 15.9957 11.069 16.693 9.07093L16.7101 9.0197L16.7115 9.01685L16.7158 9.00404L16.7642 8.85889C16.814 8.64115 16.8567 8.41061 16.8837 8.16868V8.16014C16.9122 7.92248 16.9264 7.67628 16.9264 7.42154C16.9264 5.69815 16.2291 4.13984 15.1034 3.01416L15.1006 3.01131C13.9749 1.88563 12.4166 1.1883 10.6932 1.1883C8.9698 1.1883 7.41149 1.88563 6.28581 3.01131L6.28296 3.01416C5.15728 4.13984 4.45995 5.69815 4.45995 7.42154C4.45995 7.67628 4.47418 7.92248 4.50265 8.16014V8.16156C4.53111 8.40634 4.57238 8.63973 4.62361 8.85889C5.05908 10.2151 6.05384 12.058 7.18095 13.9522H7.18522ZM6.68001 15.4081C6.49074 15.734 6.31427 16.0684 6.15061 16.4085H7.2948L6.68001 15.4081ZM8.03624 17.5968H5.64683C5.54863 17.8601 5.45898 18.1276 5.37644 18.3966C4.97797 19.7059 4.76308 21.1034 4.76308 22.5549C4.76308 24.2983 5.07616 25.9704 5.64968 27.5145H10.7273C10.0998 25.3727 9.88771 23.1199 10.0898 20.9056C9.6344 20.1371 9.04238 19.1964 8.40767 18.1874L8.03624 17.5954V17.5968ZM11.2724 20.9667C11.066 23.164 11.2966 25.4026 11.964 27.5145H18.4221V17.5968H13.3601L12.9901 18.1874C12.3383 19.2249 11.7335 20.1869 11.2724 20.9667ZM14.1016 16.4071H18.4207V9.1734C18.1902 9.31713 17.9696 9.46371 17.7575 9.61171C17.0645 11.4945 15.5759 14.0262 14.1016 16.4057V16.4071ZM20.5781 8.38641C22.9092 9.92053 24.6938 11.9357 25.9305 14.207C26.3176 14.9171 26.6492 15.6528 26.9295 16.4071H31.8791C31.1761 14.9399 30.2311 13.6121 29.0955 12.475L29.0969 12.4736C26.864 10.2422 23.8912 8.74788 20.5781 8.38641ZM27.3209 17.5954C27.782 19.1879 28.0153 20.8429 28.0168 22.498C28.0196 24.1901 27.7805 25.885 27.3052 27.5145H32.3843C32.9578 25.9704 33.2709 24.2983 33.2709 22.5549C33.2709 20.8116 32.9578 19.1395 32.3843 17.5968H27.3223L27.3209 17.5954ZM26.911 28.7014C26.6435 29.4215 26.3261 30.1245 25.9604 30.8047C24.7208 33.1102 22.9206 35.1623 20.5625 36.7249C23.8826 36.3677 26.8598 34.8706 29.0969 32.6349C30.234 31.4978 31.1789 30.1686 31.8805 28.7014H26.911ZM19.6104 35.9308C21.9443 34.4593 23.7147 32.4797 24.9172 30.2426C25.1862 29.7417 25.4281 29.2265 25.6402 28.7014H19.6104V35.9308ZM26.0685 27.5131C26.5823 25.8893 26.837 24.1929 26.8356 22.4966C26.8342 20.8387 26.5837 19.1793 26.087 17.594H19.6104V27.5116H26.0685V27.5131ZM25.6615 16.4071C25.4367 15.8492 25.1805 15.3027 24.8916 14.7719C23.6919 12.5647 21.9301 10.6179 19.6104 9.17197V16.4071H25.6615ZM12.3924 28.7014C12.5689 29.1383 12.7652 29.5666 12.9816 29.9879C14.1855 32.3303 16 34.4038 18.4221 35.9322V28.7028H12.3924V28.7014ZM17.4686 36.7249C15.0166 35.1011 13.1694 32.9479 11.927 30.5301V30.5286C11.6225 29.9338 11.3535 29.3247 11.1216 28.7014H6.15203C6.84794 30.1558 7.78292 31.475 8.90576 32.605L8.93707 32.6334C11.1728 34.8691 14.1499 36.3663 17.4686 36.7249Z" fill="black" fill-opacity="0.8"/>
<path d="M18.1133 7.14403L18.2329 7.13692C18.5189 7.12269 18.7793 7.11557 19.0141 7.11557C23.2764 7.11557 27.1373 8.84466 29.9309 11.6382L29.9323 11.6397L29.9337 11.6382C32.7273 14.4318 34.4564 18.2941 34.4564 22.5578C34.4564 26.82 32.7273 30.6809 29.9337 33.4745L29.9309 33.4773C27.1373 36.2709 23.2764 38 19.0141 38C14.7505 38 10.8882 36.2709 8.09459 33.4773L8.06043 33.4403C5.28678 30.6496 3.57193 26.8015 3.57193 22.5564C3.57193 20.9952 3.80674 19.4839 4.24222 18.0536C4.65492 16.7002 5.24693 15.4266 5.99122 14.2596C4.89685 12.3982 3.93767 10.588 3.49508 9.20186L3.48227 9.15205L3.48085 9.14351L3.47943 9.13355C3.41254 8.85319 3.36273 8.57284 3.33 8.29818C3.29584 8.00502 3.27734 7.71328 3.27734 7.42154C3.27734 5.3751 4.10844 3.52078 5.45186 2.17594L5.45329 2.17452L5.45471 2.1731C6.79813 0.831099 8.65245 0 10.6989 0C12.7453 0 14.5996 0.831099 15.9445 2.17452L15.9459 2.17594L15.9473 2.17736C17.2296 3.46101 18.0436 5.2086 18.1147 7.14403H18.1133ZM10.6975 3.9833C11.5442 3.9833 12.3141 4.32769 12.8706 4.88413L12.8734 4.88697C13.4298 5.44341 13.7742 6.21332 13.7742 7.06007C13.7742 7.90825 13.4298 8.67957 12.8734 9.23601L12.8378 9.26874C12.2842 9.80668 11.5286 10.1368 10.6975 10.1368C9.84929 10.1368 9.07796 9.79245 8.52152 9.23601C7.96508 8.67957 7.62069 7.90825 7.62069 7.06007C7.62069 6.21189 7.96651 5.44199 8.52294 4.88555L8.52152 4.88413C9.07796 4.32769 9.84929 3.9833 10.6975 3.9833ZM12.0338 5.72234C11.6951 5.38222 11.2212 5.1716 10.6975 5.1716C10.1766 5.1716 9.70413 5.38364 9.36116 5.72519L9.35974 5.72377L9.35831 5.72519C9.01819 6.06389 8.80757 6.53779 8.80757 7.06149C8.80757 7.58235 9.01961 8.05483 9.36116 8.3978C9.70271 8.73935 10.1752 8.95139 10.6975 8.95139C11.2069 8.95139 11.6694 8.75215 12.0053 8.42768L12.0323 8.3978C12.3739 8.05625 12.5859 7.58378 12.5859 7.06149C12.5859 6.53779 12.3753 6.06531 12.0352 5.72519L12.0323 5.72234H12.0338ZM7.18522 13.9522L7.18949 13.9593L7.19233 13.9636L7.19945 13.9764L7.20656 13.9878L7.21226 14.0006C7.74023 14.8872 8.29525 15.7823 8.83461 16.6447C8.85453 16.6718 8.87303 16.7002 8.88726 16.7301L9.4067 17.557C9.86779 18.2913 10.3061 18.9886 10.696 19.6276C11.086 18.99 11.5229 18.2913 11.9854 17.557L12.502 16.733C12.5176 16.7017 12.5361 16.6732 12.5561 16.6462C14.2026 14.0163 15.9957 11.069 16.693 9.07093L16.7101 9.0197L16.7115 9.01685L16.7158 9.00404L16.7642 8.85889C16.814 8.64115 16.8567 8.41061 16.8837 8.16868V8.16014C16.9122 7.92248 16.9264 7.67628 16.9264 7.42154C16.9264 5.69815 16.2291 4.13984 15.1034 3.01416L15.1006 3.01131C13.9749 1.88563 12.4166 1.1883 10.6932 1.1883C8.9698 1.1883 7.41149 1.88563 6.28581 3.01131L6.28296 3.01416C5.15728 4.13984 4.45995 5.69815 4.45995 7.42154C4.45995 7.67628 4.47418 7.92248 4.50265 8.16014V8.16156C4.53111 8.40634 4.57238 8.63973 4.62361 8.85889C5.05908 10.2151 6.05384 12.058 7.18095 13.9522H7.18522ZM6.68001 15.4081C6.49074 15.734 6.31427 16.0684 6.15061 16.4085H7.2948L6.68001 15.4081ZM8.03624 17.5968H5.64683C5.54863 17.8601 5.45898 18.1276 5.37644 18.3966C4.97797 19.7059 4.76308 21.1034 4.76308 22.5549C4.76308 24.2983 5.07616 25.9704 5.64968 27.5145H10.7273C10.0998 25.3727 9.88771 23.1199 10.0898 20.9056C9.6344 20.1371 9.04238 19.1964 8.40767 18.1874L8.03624 17.5954V17.5968ZM11.2724 20.9667C11.066 23.164 11.2966 25.4026 11.964 27.5145H18.4221V17.5968H13.3601L12.9901 18.1874C12.3383 19.2249 11.7335 20.1869 11.2724 20.9667ZM14.1016 16.4071H18.4207V9.1734C18.1902 9.31713 17.9696 9.46371 17.7575 9.61171C17.0645 11.4945 15.5759 14.0262 14.1016 16.4057V16.4071ZM20.5781 8.38641C22.9092 9.92053 24.6938 11.9357 25.9305 14.207C26.3176 14.9171 26.6492 15.6528 26.9295 16.4071H31.8791C31.1761 14.9399 30.2311 13.6121 29.0955 12.475L29.0969 12.4736C26.864 10.2422 23.8912 8.74788 20.5781 8.38641ZM27.3209 17.5954C27.782 19.1879 28.0153 20.8429 28.0168 22.498C28.0196 24.1901 27.7805 25.885 27.3052 27.5145H32.3843C32.9578 25.9704 33.2709 24.2983 33.2709 22.5549C33.2709 20.8116 32.9578 19.1395 32.3843 17.5968H27.3223L27.3209 17.5954ZM26.911 28.7014C26.6435 29.4215 26.3261 30.1245 25.9604 30.8047C24.7208 33.1102 22.9206 35.1623 20.5625 36.7249C23.8826 36.3677 26.8598 34.8706 29.0969 32.6349C30.234 31.4978 31.1789 30.1686 31.8805 28.7014H26.911ZM19.6104 35.9308C21.9443 34.4593 23.7147 32.4797 24.9172 30.2426C25.1862 29.7417 25.4281 29.2265 25.6402 28.7014H19.6104V35.9308ZM26.0685 27.5131C26.5823 25.8893 26.837 24.1929 26.8356 22.4966C26.8342 20.8387 26.5837 19.1793 26.087 17.594H19.6104V27.5116H26.0685V27.5131ZM25.6615 16.4071C25.4367 15.8492 25.1805 15.3027 24.8916 14.7719C23.6919 12.5647 21.9301 10.6179 19.6104 9.17197V16.4071H25.6615ZM12.3924 28.7014C12.5689 29.1383 12.7652 29.5666 12.9816 29.9879C14.1855 32.3303 16 34.4038 18.4221 35.9322V28.7028H12.3924V28.7014ZM17.4686 36.7249C15.0166 35.1011 13.1694 32.9479 11.927 30.5301V30.5286C11.6225 29.9338 11.3535 29.3247 11.1216 28.7014H6.15203C6.84794 30.1558 7.78292 31.475 8.90576 32.605L8.93707 32.6334C11.1728 34.8691 14.1499 36.3663 17.4686 36.7249Z" stroke="black" stroke-opacity="0.8" stroke-width="0.4" mask="url(#path-1-outside-1)"/>
</g>
<defs>
<clipPath id="clip0">
<rect width="40" height="40" fill="white"/>
</clipPath>
</defs>
</svg>
