<svg width="25" height="25" viewBox="0 0 25 25" fill="none" xmlns="http://www.w3.org/2000/svg">
<path d="M11.9068 21.25L10.9168 17.8075H5.35933L4.36933 21.25H0.184326L5.65183 5.11751H10.5568L16.0918 21.25H11.9068ZM9.11683 11.395C9.04183 11.125 8.93683 10.765 8.80183 10.315C8.68183 9.85001 8.55433 9.37751 8.41933 8.89751C8.29933 8.41751 8.20183 8.01251 8.12683 7.68251C8.06683 8.01251 7.96933 8.42501 7.83433 8.92001C7.71433 9.40001 7.59433 9.87251 7.47433 10.3375C7.35433 10.7875 7.25683 11.14 7.18183 11.395L6.23683 14.6125H10.0618L9.11683 11.395Z" fill="black" fill-opacity="0.8"/>
<path d="M22.6625 2.26001V11.89H19.8275V7.43501C19.8275 7.25501 19.835 7.00751 19.85 6.69251C19.865 6.36251 19.88 6.04751 19.895 5.74751C19.91 5.43251 19.925 5.22251 19.94 5.11751C19.85 5.25251 19.73 5.40251 19.58 5.56751C19.43 5.71751 19.295 5.84501 19.175 5.95001L18.2975 6.64751L16.925 5.05001L20.435 2.26001H22.6625Z" fill="black" fill-opacity="0.8"/>
</svg>
