<svg width="25" height="25" viewBox="0 0 25 25" fill="none" xmlns="http://www.w3.org/2000/svg">
<path d="M20.0938 10.5282C20.1188 7.51566 17.5532 4.7542 14.3751 4.37191C14.3064 4.36334 14.238 4.35292 14.1699 4.34066C14.0101 4.31007 13.8481 4.29265 13.6855 4.28857C13.0334 4.28857 12.8595 4.74691 12.8136 5.01878C12.7688 5.28441 12.8115 5.50837 12.9397 5.68232C13.1553 5.97503 13.5355 6.02712 13.8407 6.06878C13.9292 6.08128 14.0136 6.09274 14.0845 6.10837C16.9407 6.74691 17.9022 7.75003 18.372 10.5823C18.3834 10.6511 18.3886 10.7365 18.3949 10.8271C18.4157 11.1657 18.4574 11.8698 19.2147 11.8698C19.2772 11.8698 19.3459 11.8646 19.4167 11.8542C20.1209 11.7469 20.099 11.1032 20.0886 10.7938C20.0855 10.7063 20.0824 10.624 20.0907 10.5688C20.0924 10.555 20.0931 10.541 20.0928 10.5271L20.0938 10.5282Z" fill="black" fill-opacity="0.8"/>
<path d="M13.5001 3.26667C13.5855 3.27292 13.6647 3.27917 13.7313 3.28854C18.422 4.01042 20.5793 6.23229 21.1761 10.9594C21.1866 11.0396 21.1886 11.1375 21.1897 11.2406C21.1959 11.6104 21.2084 12.3792 22.0334 12.3948H22.0584C22.3178 12.3948 22.523 12.3167 22.6709 12.1625C22.9272 11.8948 22.9105 11.4958 22.8949 11.175C22.8918 11.0958 22.8886 11.0219 22.8886 10.9562C22.9491 6.12292 18.7636 1.73854 13.9345 1.57604C13.9136 1.57604 13.8949 1.57604 13.8761 1.57917C13.8571 1.58156 13.838 1.58261 13.8188 1.58229C13.7699 1.58229 13.7116 1.57813 13.648 1.57396C13.573 1.56875 13.4866 1.5625 13.398 1.5625C12.6293 1.5625 12.4834 2.10938 12.4647 2.43542C12.422 3.18854 13.1501 3.24167 13.5001 3.26667ZM20.9501 17.0687C20.8495 16.9922 20.7498 16.9145 20.6511 16.8354C20.1386 16.4229 19.5938 16.0437 19.0678 15.676L18.7397 15.4469C18.0647 14.9729 17.4584 14.7427 16.8855 14.7427C16.1126 14.7427 15.4397 15.1698 14.8834 16.0104C14.6376 16.3833 14.3386 16.5646 13.9709 16.5646C13.7155 16.5557 13.4649 16.4928 13.2355 16.3802C11.0584 15.3927 9.50217 13.8781 8.61259 11.8792C8.18238 10.9125 8.32197 10.2812 9.07822 9.76667C9.50842 9.475 10.3074 8.93229 10.2522 7.89167C10.1876 6.71146 7.58238 3.15833 6.48447 2.75521C6.01511 2.584 5.50063 2.58253 5.0303 2.75104C3.76884 3.175 2.86467 3.92083 2.41155 4.90521C1.97405 5.85729 1.99488 6.975 2.4678 8.1375C3.83759 11.499 5.76259 14.4302 8.19072 16.849C10.5668 19.2167 13.4876 21.1552 16.8709 22.6125C17.1761 22.7437 17.4959 22.8156 17.7303 22.8677C17.8095 22.8854 17.8782 22.901 17.9282 22.9146C17.9557 22.922 17.9841 22.9258 18.0126 22.926H18.0397C19.6313 22.926 21.5428 21.4719 22.1293 19.8146C22.6438 18.3625 21.7043 17.6448 20.9501 17.0687ZM14.2043 7.10729C13.9324 7.11354 13.3647 7.12812 13.1657 7.70521C13.072 7.97604 13.0834 8.20937 13.199 8.40208C13.3678 8.68333 13.6918 8.77083 13.9855 8.81875C15.0532 8.98958 15.6022 9.57917 15.7116 10.676C15.7626 11.1865 16.1074 11.5437 16.548 11.5437C16.5814 11.5437 16.6148 11.5416 16.648 11.5375C17.1793 11.475 17.4366 11.0844 17.4136 10.3771C17.422 9.63958 17.0366 8.80208 16.3793 8.13542C15.7209 7.46667 14.9272 7.08958 14.2043 7.10729Z" fill="black" fill-opacity="0.8"/>
</svg>
