<svg width="25" height="25" viewBox="0 0 25 25" fill="none" xmlns="http://www.w3.org/2000/svg">
<path d="M13.2812 23.4375C11.263 23.4375 9.36686 22.9492 7.59277 21.9727L0 25L3.02734 17.4072C2.05078 15.6331 1.5625 13.737 1.5625 11.7188C1.5625 10.1237 1.87174 8.60596 2.49023 7.16553C3.10872 5.7251 3.94287 4.47998 4.99268 3.43018C6.04248 2.38037 7.2876 1.54622 8.72803 0.927734C10.1685 0.309245 11.6862 0 13.2812 0C14.8763 0 16.394 0.309245 17.8345 0.927734C19.2749 1.54622 20.52 2.38037 21.5698 3.43018C22.6196 4.47998 23.4538 5.7251 24.0723 7.16553C24.6908 8.60596 25 10.1237 25 11.7188C25 13.3138 24.6908 14.8315 24.0723 16.272C23.4538 17.7124 22.6196 18.9575 21.5698 20.0073C20.52 21.0571 19.2749 21.8913 17.8345 22.5098C16.394 23.1283 14.8763 23.4375 13.2812 23.4375ZM17.1875 14.0625H15.625L14.7461 14.8438C14.0137 14.6484 13.1144 14.0177 12.0483 12.9517C10.9823 11.8856 10.3516 10.9863 10.1562 10.2539L10.9375 9.375V7.8125C10.9375 7.53581 10.8398 7.25911 10.6445 6.98242C10.4492 6.70573 10.2336 6.50635 9.99756 6.38428C9.76156 6.26221 9.59473 6.25 9.49707 6.34766L8.34961 7.49512C7.71484 8.12988 7.62126 9.11865 8.06885 10.4614C8.51644 11.8042 9.37093 13.1063 10.6323 14.3677C11.8937 15.6291 13.1958 16.4836 14.5386 16.9312C15.8813 17.3787 16.8701 17.2852 17.5049 16.6504L18.6523 15.5029C18.75 15.4053 18.7378 15.2384 18.6157 15.0024C18.4937 14.7664 18.2943 14.5508 18.0176 14.3555C17.7409 14.1602 17.4642 14.0625 17.1875 14.0625Z" fill="black" fill-opacity="0.8"/>
</svg>
